G75*
%MOIN*%
%OFA0B0*%
%FSLAX25Y25*%
%IPPOS*%
%LPD*%
%AMOC8*
5,1,8,0,0,1.08239X$1,22.5*
%
%ADD10C,0.00700*%
%ADD11C,0.00400*%
%ADD12C,0.01600*%
%ADD13C,0.00000*%
%ADD14C,0.01000*%
%ADD15C,0.01181*%
%ADD16R,0.00050X0.00049*%
%ADD17R,0.00049X0.00049*%
%ADD18R,0.00098X0.00049*%
%ADD19R,0.00099X0.00049*%
%ADD20R,0.00148X0.00049*%
%ADD21R,0.01230X0.00049*%
%ADD22R,0.00147X0.00049*%
%ADD23R,0.00098X0.00049*%
%ADD24R,0.00049X0.00049*%
%ADD25R,0.04626X0.00049*%
%ADD26R,0.06398X0.00049*%
%ADD27R,0.07579X0.00049*%
%ADD28R,0.08711X0.00049*%
%ADD29R,0.09646X0.00049*%
%ADD30R,0.10383X0.00049*%
%ADD31R,0.11171X0.00049*%
%ADD32R,0.11860X0.00049*%
%ADD33R,0.12500X0.00049*%
%ADD34R,0.13041X0.00049*%
%ADD35R,0.13583X0.00049*%
%ADD36R,0.14074X0.00049*%
%ADD37R,0.14616X0.00049*%
%ADD38R,0.15059X0.00049*%
%ADD39R,0.15502X0.00049*%
%ADD40R,0.15944X0.00049*%
%ADD41R,0.16388X0.00049*%
%ADD42R,0.16732X0.00049*%
%ADD43R,0.17126X0.00049*%
%ADD44R,0.17470X0.00049*%
%ADD45R,0.17864X0.00049*%
%ADD46R,0.18209X0.00049*%
%ADD47R,0.18553X0.00049*%
%ADD48R,0.18898X0.00049*%
%ADD49R,0.19193X0.00049*%
%ADD50R,0.19488X0.00049*%
%ADD51R,0.19783X0.00049*%
%ADD52R,0.20030X0.00049*%
%ADD53R,0.20374X0.00049*%
%ADD54R,0.20620X0.00049*%
%ADD55R,0.20866X0.00049*%
%ADD56R,0.21161X0.00049*%
%ADD57R,0.21407X0.00049*%
%ADD58R,0.21654X0.00049*%
%ADD59R,0.21949X0.00049*%
%ADD60R,0.22146X0.00049*%
%ADD61R,0.22441X0.00049*%
%ADD62R,0.22638X0.00049*%
%ADD63R,0.22884X0.00049*%
%ADD64R,0.23130X0.00049*%
%ADD65R,0.23327X0.00049*%
%ADD66R,0.23572X0.00049*%
%ADD67R,0.23721X0.00049*%
%ADD68R,0.23967X0.00049*%
%ADD69R,0.24213X0.00049*%
%ADD70R,0.24360X0.00049*%
%ADD71R,0.24557X0.00049*%
%ADD72R,0.24754X0.00049*%
%ADD73R,0.24951X0.00049*%
%ADD74R,0.25098X0.00049*%
%ADD75R,0.25344X0.00049*%
%ADD76R,0.25492X0.00049*%
%ADD77R,0.25640X0.00049*%
%ADD78R,0.25886X0.00049*%
%ADD79R,0.26033X0.00049*%
%ADD80R,0.26181X0.00049*%
%ADD81R,0.26329X0.00049*%
%ADD82R,0.26526X0.00049*%
%ADD83R,0.26674X0.00049*%
%ADD84R,0.26821X0.00049*%
%ADD85R,0.27018X0.00049*%
%ADD86R,0.27116X0.00049*%
%ADD87R,0.27313X0.00049*%
%ADD88R,0.27411X0.00049*%
%ADD89R,0.27608X0.00049*%
%ADD90R,0.27707X0.00049*%
%ADD91R,0.27904X0.00049*%
%ADD92R,0.28002X0.00049*%
%ADD93R,0.28149X0.00049*%
%ADD94R,0.28297X0.00049*%
%ADD95R,0.28395X0.00049*%
%ADD96R,0.28494X0.00049*%
%ADD97R,0.28641X0.00049*%
%ADD98R,0.28789X0.00049*%
%ADD99R,0.28888X0.00049*%
%ADD100R,0.29035X0.00049*%
%ADD101R,0.29133X0.00049*%
%ADD102R,0.29281X0.00049*%
%ADD103R,0.29380X0.00049*%
%ADD104R,0.29478X0.00049*%
%ADD105R,0.29626X0.00049*%
%ADD106R,0.29675X0.00049*%
%ADD107R,0.29823X0.00049*%
%ADD108R,0.29970X0.00049*%
%ADD109R,0.30020X0.00049*%
%ADD110R,0.30167X0.00049*%
%ADD111R,0.30217X0.00049*%
%ADD112R,0.30364X0.00049*%
%ADD113R,0.30414X0.00049*%
%ADD114R,0.30561X0.00049*%
%ADD115R,0.30610X0.00049*%
%ADD116R,0.30758X0.00049*%
%ADD117R,0.30807X0.00049*%
%ADD118R,0.30955X0.00049*%
%ADD119R,0.31102X0.00049*%
%ADD120R,0.31201X0.00049*%
%ADD121R,0.31250X0.00049*%
%ADD122R,0.31348X0.00049*%
%ADD123R,0.31447X0.00049*%
%ADD124R,0.31496X0.00049*%
%ADD125R,0.31595X0.00049*%
%ADD126R,0.31693X0.00049*%
%ADD127R,0.31742X0.00049*%
%ADD128R,0.31791X0.00049*%
%ADD129R,0.31890X0.00049*%
%ADD130R,0.31988X0.00049*%
%ADD131R,0.32037X0.00049*%
%ADD132R,0.32135X0.00049*%
%ADD133R,0.32185X0.00049*%
%ADD134R,0.32283X0.00049*%
%ADD135R,0.32332X0.00049*%
%ADD136R,0.32382X0.00049*%
%ADD137R,0.32431X0.00049*%
%ADD138R,0.32480X0.00049*%
%ADD139R,0.32628X0.00049*%
%ADD140R,0.32727X0.00049*%
%ADD141R,0.32776X0.00049*%
%ADD142R,0.32776X0.00049*%
%ADD143R,0.32923X0.00049*%
%ADD144R,0.33022X0.00049*%
%ADD145R,0.33071X0.00049*%
%ADD146R,0.33169X0.00049*%
%ADD147R,0.33219X0.00049*%
%ADD148R,0.33268X0.00049*%
%ADD149R,0.15994X0.00049*%
%ADD150R,0.16338X0.00049*%
%ADD151R,0.15157X0.00049*%
%ADD152R,0.15649X0.00049*%
%ADD153R,0.14862X0.00049*%
%ADD154R,0.15206X0.00049*%
%ADD155R,0.14518X0.00049*%
%ADD156R,0.14961X0.00049*%
%ADD157R,0.14321X0.00049*%
%ADD158R,0.14715X0.00049*%
%ADD159R,0.14026X0.00049*%
%ADD160R,0.14567X0.00049*%
%ADD161R,0.13928X0.00049*%
%ADD162R,0.13730X0.00049*%
%ADD163R,0.14173X0.00049*%
%ADD164R,0.14124X0.00049*%
%ADD165R,0.13435X0.00049*%
%ADD166R,0.13927X0.00049*%
%ADD167R,0.13385X0.00049*%
%ADD168R,0.13829X0.00049*%
%ADD169R,0.13189X0.00049*%
%ADD170R,0.13091X0.00049*%
%ADD171R,0.13681X0.00049*%
%ADD172R,0.12992X0.00049*%
%ADD173R,0.12795X0.00049*%
%ADD174R,0.13337X0.00049*%
%ADD175R,0.12746X0.00049*%
%ADD176R,0.13238X0.00049*%
%ADD177R,0.12648X0.00049*%
%ADD178R,0.12598X0.00049*%
%ADD179R,0.13091X0.00049*%
%ADD180R,0.12500X0.00049*%
%ADD181R,0.13139X0.00049*%
%ADD182R,0.13041X0.00049*%
%ADD183R,0.12451X0.00049*%
%ADD184R,0.12402X0.00049*%
%ADD185R,0.12943X0.00049*%
%ADD186R,0.12352X0.00049*%
%ADD187R,0.12893X0.00049*%
%ADD188R,0.12254X0.00049*%
%ADD189R,0.12844X0.00049*%
%ADD190R,0.12204X0.00049*%
%ADD191R,0.12156X0.00049*%
%ADD192R,0.12697X0.00049*%
%ADD193R,0.12057X0.00049*%
%ADD194R,0.12696X0.00049*%
%ADD195R,0.12647X0.00049*%
%ADD196R,0.12008X0.00049*%
%ADD197R,0.12598X0.00049*%
%ADD198R,0.11959X0.00049*%
%ADD199R,0.11959X0.00049*%
%ADD200R,0.12549X0.00049*%
%ADD201R,0.11861X0.00049*%
%ADD202R,0.11811X0.00049*%
%ADD203R,0.11860X0.00049*%
%ADD204R,0.11762X0.00049*%
%ADD205R,0.12353X0.00049*%
%ADD206R,0.12402X0.00049*%
%ADD207R,0.11713X0.00049*%
%ADD208R,0.11663X0.00049*%
%ADD209R,0.12401X0.00049*%
%ADD210R,0.11614X0.00049*%
%ADD211R,0.12352X0.00049*%
%ADD212R,0.11565X0.00049*%
%ADD213R,0.11615X0.00049*%
%ADD214R,0.12303X0.00049*%
%ADD215R,0.11565X0.00049*%
%ADD216R,0.11516X0.00049*%
%ADD217R,0.12254X0.00049*%
%ADD218R,0.11467X0.00049*%
%ADD219R,0.11418X0.00049*%
%ADD220R,0.12205X0.00049*%
%ADD221R,0.11369X0.00049*%
%ADD222R,0.11319X0.00049*%
%ADD223R,0.12303X0.00049*%
%ADD224R,0.12450X0.00049*%
%ADD225R,0.12500X0.00049*%
%ADD226R,0.12746X0.00049*%
%ADD227R,0.12844X0.00049*%
%ADD228R,0.12943X0.00049*%
%ADD229R,0.12992X0.00049*%
%ADD230R,0.13287X0.00049*%
%ADD231R,0.13484X0.00049*%
%ADD232R,0.13631X0.00049*%
%ADD233R,0.14272X0.00049*%
%ADD234R,0.14517X0.00049*%
%ADD235R,0.14665X0.00049*%
%ADD236R,0.14911X0.00049*%
%ADD237R,0.15207X0.00049*%
%ADD238R,0.15551X0.00049*%
%ADD239R,0.19242X0.00049*%
%ADD240R,0.19144X0.00049*%
%ADD241R,0.19094X0.00049*%
%ADD242R,0.19045X0.00049*%
%ADD243R,0.19045X0.00049*%
%ADD244R,0.18946X0.00049*%
%ADD245R,0.18897X0.00049*%
%ADD246R,0.18848X0.00049*%
%ADD247R,0.18750X0.00049*%
%ADD248R,0.18602X0.00049*%
%ADD249R,0.18652X0.00049*%
%ADD250R,0.18602X0.00049*%
%ADD251R,0.18504X0.00049*%
%ADD252R,0.18455X0.00049*%
%ADD253R,0.18454X0.00049*%
%ADD254R,0.18356X0.00049*%
%ADD255R,0.18307X0.00049*%
%ADD256R,0.18258X0.00049*%
%ADD257R,0.18110X0.00049*%
%ADD258R,0.18061X0.00049*%
%ADD259R,0.17962X0.00049*%
%ADD260R,0.17815X0.00049*%
%ADD261R,0.17766X0.00049*%
%ADD262R,0.17618X0.00049*%
%ADD263R,0.17618X0.00049*%
%ADD264R,0.17520X0.00049*%
%ADD265R,0.17421X0.00049*%
%ADD266R,0.17372X0.00049*%
%ADD267R,0.17323X0.00049*%
%ADD268R,0.17224X0.00049*%
%ADD269R,0.17076X0.00049*%
%ADD270R,0.17028X0.00049*%
%ADD271R,0.16978X0.00049*%
%ADD272R,0.16781X0.00049*%
%ADD273R,0.16634X0.00049*%
%ADD274R,0.16486X0.00049*%
%ADD275R,0.16437X0.00049*%
%ADD276R,0.16339X0.00049*%
%ADD277R,0.16191X0.00049*%
%ADD278R,0.16043X0.00049*%
%ADD279R,0.15945X0.00049*%
%ADD280R,0.15846X0.00049*%
%ADD281R,0.15650X0.00049*%
%ADD282R,0.15404X0.00049*%
%ADD283R,0.15108X0.00049*%
%ADD284R,0.14764X0.00049*%
%ADD285R,0.14468X0.00049*%
%ADD286R,0.14469X0.00049*%
%ADD287R,0.14813X0.00049*%
%ADD288R,0.15010X0.00049*%
%ADD289R,0.15256X0.00049*%
%ADD290R,0.15452X0.00049*%
%ADD291R,0.15600X0.00049*%
%ADD292R,0.15699X0.00049*%
%ADD293R,0.15748X0.00049*%
%ADD294R,0.15896X0.00049*%
%ADD295R,0.15994X0.00049*%
%ADD296R,0.16240X0.00049*%
%ADD297R,0.16388X0.00049*%
%ADD298R,0.16486X0.00049*%
%ADD299R,0.16585X0.00049*%
%ADD300R,0.16830X0.00049*%
%ADD301R,0.16929X0.00049*%
%ADD302R,0.16978X0.00049*%
%ADD303R,0.17126X0.00049*%
%ADD304R,0.17175X0.00049*%
%ADD305R,0.17274X0.00049*%
%ADD306R,0.15797X0.00049*%
%ADD307R,0.14370X0.00049*%
%ADD308R,0.12894X0.00049*%
%ADD309R,0.12549X0.00049*%
%ADD310R,0.12106X0.00049*%
%ADD311R,0.11811X0.00049*%
%ADD312R,0.11663X0.00049*%
%ADD313R,0.11565X0.00049*%
%ADD314R,0.11516X0.00049*%
%ADD315R,0.11515X0.00049*%
%ADD316R,0.11417X0.00049*%
%ADD317R,0.11368X0.00049*%
%ADD318R,0.11417X0.00049*%
%ADD319R,0.11368X0.00049*%
%ADD320R,0.00197X0.00049*%
%ADD321R,0.10925X0.00049*%
%ADD322R,0.11171X0.00049*%
%ADD323R,0.11220X0.00049*%
%ADD324R,0.11466X0.00049*%
%ADD325R,0.11270X0.00049*%
%ADD326R,0.11221X0.00049*%
%ADD327R,0.11270X0.00049*%
%ADD328R,0.11467X0.00049*%
%ADD329R,0.11909X0.00049*%
%ADD330R,0.11958X0.00049*%
%ADD331R,0.12057X0.00049*%
%ADD332R,0.12106X0.00049*%
%ADD333R,0.12155X0.00049*%
%ADD334R,0.13484X0.00049*%
%ADD335R,0.13533X0.00049*%
%ADD336R,0.13730X0.00049*%
%ADD337R,0.14075X0.00049*%
%ADD338R,0.14370X0.00049*%
%ADD339R,0.14518X0.00049*%
%ADD340R,0.15109X0.00049*%
%ADD341R,0.31594X0.00049*%
%ADD342R,0.31545X0.00049*%
%ADD343R,0.31398X0.00049*%
%ADD344R,0.31201X0.00049*%
%ADD345R,0.31102X0.00049*%
%ADD346R,0.31054X0.00049*%
%ADD347R,0.30954X0.00049*%
%ADD348R,0.30856X0.00049*%
%ADD349R,0.30708X0.00049*%
%ADD350R,0.30659X0.00049*%
%ADD351R,0.30610X0.00049*%
%ADD352R,0.30512X0.00049*%
%ADD353R,0.30463X0.00049*%
%ADD354R,0.30413X0.00049*%
%ADD355R,0.30315X0.00049*%
%ADD356R,0.30266X0.00049*%
%ADD357R,0.30167X0.00049*%
%ADD358R,0.30069X0.00049*%
%ADD359R,0.29921X0.00049*%
%ADD360R,0.29872X0.00049*%
%ADD361R,0.10433X0.00049*%
%ADD362R,0.29724X0.00049*%
%ADD363R,0.10384X0.00049*%
%ADD364R,0.29528X0.00049*%
%ADD365R,0.29429X0.00049*%
%ADD366R,0.29380X0.00049*%
%ADD367R,0.10384X0.00049*%
%ADD368R,0.29282X0.00049*%
%ADD369R,0.29183X0.00049*%
%ADD370R,0.10335X0.00049*%
%ADD371R,0.29232X0.00049*%
%ADD372R,0.10285X0.00049*%
%ADD373R,0.29183X0.00049*%
%ADD374R,0.29134X0.00049*%
%ADD375R,0.29084X0.00049*%
%ADD376R,0.29085X0.00049*%
%ADD377R,0.10236X0.00049*%
%ADD378R,0.29085X0.00049*%
%ADD379R,0.10285X0.00049*%
%ADD380R,0.10286X0.00049*%
%ADD381R,0.28986X0.00049*%
%ADD382R,0.10237X0.00049*%
%ADD383R,0.28986X0.00049*%
%ADD384R,0.10236X0.00049*%
%ADD385R,0.28937X0.00049*%
%ADD386R,0.10187X0.00049*%
%ADD387R,0.28888X0.00049*%
%ADD388R,0.28789X0.00049*%
%ADD389R,0.28740X0.00049*%
%ADD390R,0.10089X0.00049*%
%ADD391R,0.28691X0.00049*%
%ADD392R,0.10138X0.00049*%
%ADD393R,0.28642X0.00049*%
%ADD394R,0.10138X0.00049*%
%ADD395R,0.28593X0.00049*%
%ADD396R,0.28543X0.00049*%
%ADD397R,0.28445X0.00049*%
%ADD398R,0.10039X0.00049*%
%ADD399R,0.28346X0.00049*%
%ADD400R,0.10089X0.00049*%
%ADD401R,0.28297X0.00049*%
%ADD402R,0.28248X0.00049*%
%ADD403R,0.28199X0.00049*%
%ADD404R,0.09991X0.00049*%
%ADD405R,0.28051X0.00049*%
%ADD406R,0.09990X0.00049*%
%ADD407R,0.28051X0.00049*%
%ADD408R,0.09990X0.00049*%
%ADD409R,0.27953X0.00049*%
%ADD410R,0.09941X0.00049*%
%ADD411R,0.27855X0.00049*%
%ADD412R,0.27805X0.00049*%
%ADD413R,0.27756X0.00049*%
%ADD414R,0.27707X0.00049*%
%ADD415R,0.09892X0.00049*%
%ADD416R,0.27559X0.00049*%
%ADD417R,0.27461X0.00049*%
%ADD418R,0.27362X0.00049*%
%ADD419R,0.09891X0.00049*%
%ADD420R,0.27263X0.00049*%
%ADD421R,0.09843X0.00049*%
%ADD422R,0.27165X0.00049*%
%ADD423R,0.09892X0.00049*%
%ADD424R,0.09843X0.00049*%
%ADD425R,0.27067X0.00049*%
%ADD426R,0.26919X0.00049*%
%ADD427R,0.26870X0.00049*%
%ADD428R,0.26771X0.00049*%
%ADD429R,0.09794X0.00049*%
%ADD430R,0.26673X0.00049*%
%ADD431R,0.26575X0.00049*%
%ADD432R,0.09793X0.00049*%
%ADD433R,0.26476X0.00049*%
%ADD434R,0.26378X0.00049*%
%ADD435R,0.09793X0.00049*%
%ADD436R,0.26280X0.00049*%
%ADD437R,0.26181X0.00049*%
%ADD438R,0.09744X0.00049*%
%ADD439R,0.26033X0.00049*%
%ADD440R,0.25935X0.00049*%
%ADD441R,0.09744X0.00049*%
%ADD442R,0.25837X0.00049*%
%ADD443R,0.09695X0.00049*%
%ADD444R,0.25689X0.00049*%
%ADD445R,0.25591X0.00049*%
%ADD446R,0.25443X0.00049*%
%ADD447R,0.25295X0.00049*%
%ADD448R,0.25098X0.00049*%
%ADD449R,0.09350X0.00049*%
%ADD450R,0.09252X0.00049*%
%ADD451R,0.09695X0.00049*%
%ADD452R,0.09252X0.00049*%
%ADD453R,0.09203X0.00049*%
%ADD454R,0.09646X0.00049*%
%ADD455R,0.13829X0.00049*%
%ADD456R,0.13386X0.00049*%
%ADD457R,0.09202X0.00049*%
%ADD458R,0.09596X0.00049*%
%ADD459R,0.12894X0.00049*%
%ADD460R,0.18848X0.00049*%
%ADD461R,0.11712X0.00049*%
%ADD462R,0.18701X0.00049*%
%ADD463R,0.11122X0.00049*%
%ADD464R,0.18603X0.00049*%
%ADD465R,0.18406X0.00049*%
%ADD466R,0.08760X0.00049*%
%ADD467R,0.18356X0.00049*%
%ADD468R,0.07923X0.00049*%
%ADD469R,0.06840X0.00049*%
%ADD470R,0.05463X0.00049*%
%ADD471R,0.18012X0.00049*%
%ADD472R,0.03691X0.00049*%
%ADD473R,0.17963X0.00049*%
%ADD474R,0.17765X0.00049*%
%ADD475R,0.17717X0.00049*%
%ADD476R,0.17619X0.00049*%
%ADD477R,0.17372X0.00049*%
%ADD478R,0.17077X0.00049*%
%ADD479R,0.16880X0.00049*%
%ADD480R,0.16781X0.00049*%
%ADD481R,0.16683X0.00049*%
%ADD482R,0.16289X0.00049*%
%ADD483R,0.16093X0.00049*%
%ADD484R,0.15797X0.00049*%
%ADD485R,0.15699X0.00049*%
%ADD486R,0.15305X0.00049*%
%ADD487R,0.14813X0.00049*%
%ADD488R,0.14715X0.00049*%
%ADD489R,0.14419X0.00049*%
%ADD490R,0.13976X0.00049*%
%ADD491R,0.13878X0.00049*%
%ADD492R,0.13780X0.00049*%
%ADD493R,0.11073X0.00049*%
%ADD494R,0.11024X0.00049*%
%ADD495R,0.11319X0.00049*%
%ADD496R,0.11713X0.00049*%
%ADD497R,0.12697X0.00049*%
%ADD498R,0.12746X0.00049*%
%ADD499R,0.13140X0.00049*%
%ADD500R,0.13632X0.00049*%
%ADD501R,0.13731X0.00049*%
%ADD502R,0.15059X0.00049*%
%ADD503R,0.16535X0.00049*%
%ADD504R,0.16683X0.00049*%
%ADD505R,0.16782X0.00049*%
%ADD506R,0.17421X0.00049*%
%ADD507R,0.18159X0.00049*%
%ADD508R,0.18800X0.00049*%
%ADD509R,0.09448X0.00049*%
%ADD510R,0.09302X0.00049*%
%ADD511R,0.09400X0.00049*%
%ADD512R,0.09400X0.00049*%
%ADD513R,0.09399X0.00049*%
%ADD514R,0.09449X0.00049*%
%ADD515R,0.09498X0.00049*%
%ADD516R,0.09498X0.00049*%
%ADD517R,0.09498X0.00049*%
%ADD518R,0.09547X0.00049*%
%ADD519R,0.09547X0.00049*%
%ADD520R,0.09548X0.00049*%
%ADD521R,0.09597X0.00049*%
%ADD522R,0.09596X0.00049*%
%ADD523R,0.09694X0.00049*%
%ADD524R,0.09645X0.00049*%
%ADD525R,0.09744X0.00049*%
%ADD526R,0.09842X0.00049*%
%ADD527R,0.09941X0.00049*%
%ADD528R,0.09941X0.00049*%
%ADD529R,0.10040X0.00049*%
%ADD530R,0.10088X0.00049*%
%ADD531R,0.10039X0.00049*%
%ADD532R,0.10137X0.00049*%
%ADD533R,0.10187X0.00049*%
%ADD534R,0.00025X0.00025*%
%ADD535R,0.00024X0.00025*%
%ADD536R,0.00049X0.00025*%
%ADD537R,0.00074X0.00025*%
%ADD538R,0.00615X0.00025*%
%ADD539R,0.00024X0.00025*%
%ADD540R,0.00049X0.00025*%
%ADD541R,0.02313X0.00025*%
%ADD542R,0.00025X0.00025*%
%ADD543R,0.00024X0.00025*%
%ADD544R,0.03199X0.00025*%
%ADD545R,0.00025X0.00025*%
%ADD546R,0.03789X0.00025*%
%ADD547R,0.04355X0.00025*%
%ADD548R,0.04823X0.00025*%
%ADD549R,0.05192X0.00025*%
%ADD550R,0.05585X0.00025*%
%ADD551R,0.05930X0.00025*%
%ADD552R,0.06250X0.00025*%
%ADD553R,0.06521X0.00025*%
%ADD554R,0.06791X0.00025*%
%ADD555R,0.07037X0.00025*%
%ADD556R,0.07308X0.00025*%
%ADD557R,0.07530X0.00025*%
%ADD558R,0.07751X0.00025*%
%ADD559R,0.07972X0.00025*%
%ADD560R,0.08194X0.00025*%
%ADD561R,0.08366X0.00025*%
%ADD562R,0.08563X0.00025*%
%ADD563R,0.08735X0.00025*%
%ADD564R,0.08932X0.00025*%
%ADD565R,0.09104X0.00025*%
%ADD566R,0.09276X0.00025*%
%ADD567R,0.09449X0.00025*%
%ADD568R,0.09596X0.00025*%
%ADD569R,0.09744X0.00025*%
%ADD570R,0.09892X0.00025*%
%ADD571R,0.10015X0.00025*%
%ADD572R,0.10187X0.00025*%
%ADD573R,0.10310X0.00025*%
%ADD574R,0.10433X0.00025*%
%ADD575R,0.10581X0.00025*%
%ADD576R,0.10704X0.00025*%
%ADD577R,0.10827X0.00025*%
%ADD578R,0.10974X0.00025*%
%ADD579R,0.11073X0.00025*%
%ADD580R,0.11220X0.00025*%
%ADD581R,0.11319X0.00025*%
%ADD582R,0.11442X0.00025*%
%ADD583R,0.11565X0.00025*%
%ADD584R,0.11663X0.00025*%
%ADD585R,0.11786X0.00025*%
%ADD586R,0.11860X0.00025*%
%ADD587R,0.11983X0.00025*%
%ADD588R,0.12106X0.00025*%
%ADD589R,0.12180X0.00025*%
%ADD590R,0.12279X0.00025*%
%ADD591R,0.12377X0.00025*%
%ADD592R,0.12476X0.00025*%
%ADD593R,0.12549X0.00025*%
%ADD594R,0.12672X0.00025*%
%ADD595R,0.12746X0.00025*%
%ADD596R,0.12820X0.00025*%
%ADD597R,0.12943X0.00025*%
%ADD598R,0.13017X0.00025*%
%ADD599R,0.13091X0.00025*%
%ADD600R,0.13165X0.00025*%
%ADD601R,0.13263X0.00025*%
%ADD602R,0.13337X0.00025*%
%ADD603R,0.13410X0.00025*%
%ADD604R,0.13509X0.00025*%
%ADD605R,0.13558X0.00025*%
%ADD606R,0.13657X0.00025*%
%ADD607R,0.13706X0.00025*%
%ADD608R,0.13804X0.00025*%
%ADD609R,0.13854X0.00025*%
%ADD610R,0.13952X0.00025*%
%ADD611R,0.14001X0.00025*%
%ADD612R,0.14075X0.00025*%
%ADD613R,0.14149X0.00025*%
%ADD614R,0.14198X0.00025*%
%ADD615R,0.14247X0.00025*%
%ADD616R,0.14321X0.00025*%
%ADD617R,0.14394X0.00025*%
%ADD618R,0.14444X0.00025*%
%ADD619R,0.14518X0.00025*%
%ADD620R,0.14567X0.00025*%
%ADD621R,0.14641X0.00025*%
%ADD622R,0.14690X0.00025*%
%ADD623R,0.14739X0.00025*%
%ADD624R,0.14813X0.00025*%
%ADD625R,0.14838X0.00025*%
%ADD626R,0.14911X0.00025*%
%ADD627R,0.14985X0.00025*%
%ADD628R,0.15010X0.00025*%
%ADD629R,0.15083X0.00025*%
%ADD630R,0.15108X0.00025*%
%ADD631R,0.15182X0.00025*%
%ADD632R,0.15207X0.00025*%
%ADD633R,0.15280X0.00025*%
%ADD634R,0.15305X0.00025*%
%ADD635R,0.15379X0.00025*%
%ADD636R,0.15404X0.00025*%
%ADD637R,0.15477X0.00025*%
%ADD638R,0.15551X0.00025*%
%ADD639R,0.15600X0.00025*%
%ADD640R,0.15625X0.00025*%
%ADD641R,0.15674X0.00025*%
%ADD642R,0.15724X0.00025*%
%ADD643R,0.15748X0.00025*%
%ADD644R,0.15797X0.00025*%
%ADD645R,0.15846X0.00025*%
%ADD646R,0.15871X0.00025*%
%ADD647R,0.15896X0.00025*%
%ADD648R,0.15945X0.00025*%
%ADD649R,0.15994X0.00025*%
%ADD650R,0.16019X0.00025*%
%ADD651R,0.16068X0.00025*%
%ADD652R,0.16093X0.00025*%
%ADD653R,0.16142X0.00025*%
%ADD654R,0.16166X0.00025*%
%ADD655R,0.16191X0.00025*%
%ADD656R,0.16216X0.00025*%
%ADD657R,0.16240X0.00025*%
%ADD658R,0.16314X0.00025*%
%ADD659R,0.16363X0.00025*%
%ADD660R,0.16388X0.00025*%
%ADD661R,0.16461X0.00025*%
%ADD662R,0.16461X0.00025*%
%ADD663R,0.16511X0.00025*%
%ADD664R,0.16535X0.00025*%
%ADD665R,0.16585X0.00025*%
%ADD666R,0.16609X0.00025*%
%ADD667R,0.16634X0.00025*%
%ADD668R,0.07997X0.00025*%
%ADD669R,0.08169X0.00025*%
%ADD670R,0.07579X0.00025*%
%ADD671R,0.07825X0.00025*%
%ADD672R,0.07431X0.00025*%
%ADD673R,0.07603X0.00025*%
%ADD674R,0.07259X0.00025*%
%ADD675R,0.07480X0.00025*%
%ADD676R,0.07160X0.00025*%
%ADD677R,0.07357X0.00025*%
%ADD678R,0.07013X0.00025*%
%ADD679R,0.07283X0.00025*%
%ADD680R,0.06964X0.00025*%
%ADD681R,0.06865X0.00025*%
%ADD682R,0.07087X0.00025*%
%ADD683R,0.06791X0.00025*%
%ADD684R,0.07062X0.00025*%
%ADD685R,0.06717X0.00025*%
%ADD686R,0.06693X0.00025*%
%ADD687R,0.06914X0.00025*%
%ADD688R,0.06594X0.00025*%
%ADD689R,0.06545X0.00025*%
%ADD690R,0.06841X0.00025*%
%ADD691R,0.06520X0.00025*%
%ADD692R,0.06791X0.00025*%
%ADD693R,0.06496X0.00025*%
%ADD694R,0.06718X0.00025*%
%ADD695R,0.06398X0.00025*%
%ADD696R,0.06668X0.00025*%
%ADD697R,0.06373X0.00025*%
%ADD698R,0.06619X0.00025*%
%ADD699R,0.06324X0.00025*%
%ADD700R,0.06619X0.00025*%
%ADD701R,0.06299X0.00025*%
%ADD702R,0.06545X0.00025*%
%ADD703R,0.06570X0.00025*%
%ADD704R,0.06520X0.00025*%
%ADD705R,0.06226X0.00025*%
%ADD706R,0.06496X0.00025*%
%ADD707R,0.06201X0.00025*%
%ADD708R,0.06471X0.00025*%
%ADD709R,0.06176X0.00025*%
%ADD710R,0.06447X0.00025*%
%ADD711R,0.06127X0.00025*%
%ADD712R,0.06422X0.00025*%
%ADD713R,0.06102X0.00025*%
%ADD714R,0.06078X0.00025*%
%ADD715R,0.06348X0.00025*%
%ADD716R,0.06029X0.00025*%
%ADD717R,0.06028X0.00025*%
%ADD718R,0.06004X0.00025*%
%ADD719R,0.06299X0.00025*%
%ADD720R,0.06004X0.00025*%
%ADD721R,0.06299X0.00025*%
%ADD722R,0.05979X0.00025*%
%ADD723R,0.05980X0.00025*%
%ADD724R,0.05980X0.00025*%
%ADD725R,0.06275X0.00025*%
%ADD726R,0.05930X0.00025*%
%ADD727R,0.05906X0.00025*%
%ADD728R,0.05930X0.00025*%
%ADD729R,0.06225X0.00025*%
%ADD730R,0.05906X0.00025*%
%ADD731R,0.05881X0.00025*%
%ADD732R,0.06176X0.00025*%
%ADD733R,0.05906X0.00025*%
%ADD734R,0.05856X0.00025*%
%ADD735R,0.05856X0.00025*%
%ADD736R,0.05831X0.00025*%
%ADD737R,0.05832X0.00025*%
%ADD738R,0.06201X0.00025*%
%ADD739R,0.05807X0.00025*%
%ADD740R,0.05832X0.00025*%
%ADD741R,0.06201X0.00025*%
%ADD742R,0.05807X0.00025*%
%ADD743R,0.06127X0.00025*%
%ADD744R,0.06176X0.00025*%
%ADD745R,0.05783X0.00025*%
%ADD746R,0.05807X0.00025*%
%ADD747R,0.06152X0.00025*%
%ADD748R,0.05782X0.00025*%
%ADD749R,0.06152X0.00025*%
%ADD750R,0.05782X0.00025*%
%ADD751R,0.06152X0.00025*%
%ADD752R,0.05758X0.00025*%
%ADD753R,0.06127X0.00025*%
%ADD754R,0.05733X0.00025*%
%ADD755R,0.05758X0.00025*%
%ADD756R,0.05733X0.00025*%
%ADD757R,0.06127X0.00025*%
%ADD758R,0.05733X0.00025*%
%ADD759R,0.05709X0.00025*%
%ADD760R,0.05684X0.00025*%
%ADD761R,0.05684X0.00025*%
%ADD762R,0.06127X0.00025*%
%ADD763R,0.05684X0.00025*%
%ADD764R,0.05659X0.00025*%
%ADD765R,0.06226X0.00025*%
%ADD766R,0.06225X0.00025*%
%ADD767R,0.06250X0.00025*%
%ADD768R,0.06250X0.00025*%
%ADD769R,0.06324X0.00025*%
%ADD770R,0.06373X0.00025*%
%ADD771R,0.06422X0.00025*%
%ADD772R,0.06422X0.00025*%
%ADD773R,0.06472X0.00025*%
%ADD774R,0.06644X0.00025*%
%ADD775R,0.06742X0.00025*%
%ADD776R,0.06816X0.00025*%
%ADD777R,0.06841X0.00025*%
%ADD778R,0.07062X0.00025*%
%ADD779R,0.07136X0.00025*%
%ADD780R,0.07259X0.00025*%
%ADD781R,0.07333X0.00025*%
%ADD782R,0.07456X0.00025*%
%ADD783R,0.07776X0.00025*%
%ADD784R,0.07997X0.00025*%
%ADD785R,0.09621X0.00025*%
%ADD786R,0.09572X0.00025*%
%ADD787R,0.09572X0.00025*%
%ADD788R,0.09547X0.00025*%
%ADD789R,0.09523X0.00025*%
%ADD790R,0.09522X0.00025*%
%ADD791R,0.09522X0.00025*%
%ADD792R,0.09473X0.00025*%
%ADD793R,0.09424X0.00025*%
%ADD794R,0.09375X0.00025*%
%ADD795R,0.09375X0.00025*%
%ADD796R,0.09301X0.00025*%
%ADD797R,0.09326X0.00025*%
%ADD798R,0.09301X0.00025*%
%ADD799R,0.09252X0.00025*%
%ADD800R,0.09228X0.00025*%
%ADD801R,0.09227X0.00025*%
%ADD802R,0.09178X0.00025*%
%ADD803R,0.09154X0.00025*%
%ADD804R,0.09129X0.00025*%
%ADD805R,0.09104X0.00025*%
%ADD806R,0.09055X0.00025*%
%ADD807R,0.09030X0.00025*%
%ADD808R,0.09030X0.00025*%
%ADD809R,0.08981X0.00025*%
%ADD810R,0.08932X0.00025*%
%ADD811R,0.08907X0.00025*%
%ADD812R,0.08883X0.00025*%
%ADD813R,0.08809X0.00025*%
%ADD814R,0.08760X0.00025*%
%ADD815R,0.08711X0.00025*%
%ADD816R,0.08686X0.00025*%
%ADD817R,0.08661X0.00025*%
%ADD818R,0.08612X0.00025*%
%ADD819R,0.08539X0.00025*%
%ADD820R,0.08514X0.00025*%
%ADD821R,0.08489X0.00025*%
%ADD822R,0.08391X0.00025*%
%ADD823R,0.08391X0.00025*%
%ADD824R,0.08317X0.00025*%
%ADD825R,0.08243X0.00025*%
%ADD826R,0.08219X0.00025*%
%ADD827R,0.08169X0.00025*%
%ADD828R,0.08095X0.00025*%
%ADD829R,0.08022X0.00025*%
%ADD830R,0.07923X0.00025*%
%ADD831R,0.07776X0.00025*%
%ADD832R,0.07702X0.00025*%
%ADD833R,0.07604X0.00025*%
%ADD834R,0.07554X0.00025*%
%ADD835R,0.07480X0.00025*%
%ADD836R,0.07382X0.00025*%
%ADD837R,0.07234X0.00025*%
%ADD838R,0.07308X0.00025*%
%ADD839R,0.07406X0.00025*%
%ADD840R,0.07456X0.00025*%
%ADD841R,0.07505X0.00025*%
%ADD842R,0.07579X0.00025*%
%ADD843R,0.07628X0.00025*%
%ADD844R,0.07702X0.00025*%
%ADD845R,0.07726X0.00025*%
%ADD846R,0.07800X0.00025*%
%ADD847R,0.07849X0.00025*%
%ADD848R,0.07874X0.00025*%
%ADD849R,0.07948X0.00025*%
%ADD850R,0.08095X0.00025*%
%ADD851R,0.08120X0.00025*%
%ADD852R,0.08169X0.00025*%
%ADD853R,0.08243X0.00025*%
%ADD854R,0.08292X0.00025*%
%ADD855R,0.08293X0.00025*%
%ADD856R,0.08415X0.00025*%
%ADD857R,0.08465X0.00025*%
%ADD858R,0.08489X0.00025*%
%ADD859R,0.08587X0.00025*%
%ADD860R,0.08588X0.00025*%
%ADD861R,0.08637X0.00025*%
%ADD862R,0.07898X0.00025*%
%ADD863R,0.07185X0.00025*%
%ADD864R,0.06644X0.00025*%
%ADD865R,0.06545X0.00025*%
%ADD866R,0.06422X0.00025*%
%ADD867R,0.06274X0.00025*%
%ADD868R,0.06053X0.00025*%
%ADD869R,0.06053X0.00025*%
%ADD870R,0.05979X0.00025*%
%ADD871R,0.05856X0.00025*%
%ADD872R,0.05831X0.00025*%
%ADD873R,0.05832X0.00025*%
%ADD874R,0.05783X0.00025*%
%ADD875R,0.05758X0.00025*%
%ADD876R,0.05733X0.00025*%
%ADD877R,0.05733X0.00025*%
%ADD878R,0.05684X0.00025*%
%ADD879R,0.05709X0.00025*%
%ADD880R,0.05709X0.00025*%
%ADD881R,0.00098X0.00025*%
%ADD882R,0.05463X0.00025*%
%ADD883R,0.05586X0.00025*%
%ADD884R,0.05586X0.00025*%
%ADD885R,0.05684X0.00025*%
%ADD886R,0.05610X0.00025*%
%ADD887R,0.05610X0.00025*%
%ADD888R,0.05635X0.00025*%
%ADD889R,0.05635X0.00025*%
%ADD890R,0.05635X0.00025*%
%ADD891R,0.05881X0.00025*%
%ADD892R,0.05930X0.00025*%
%ADD893R,0.05955X0.00025*%
%ADD894R,0.05881X0.00025*%
%ADD895R,0.06053X0.00025*%
%ADD896R,0.06078X0.00025*%
%ADD897R,0.06004X0.00025*%
%ADD898R,0.06078X0.00025*%
%ADD899R,0.06176X0.00025*%
%ADD900R,0.06102X0.00025*%
%ADD901R,0.06274X0.00025*%
%ADD902R,0.06471X0.00025*%
%ADD903R,0.06644X0.00025*%
%ADD904R,0.06742X0.00025*%
%ADD905R,0.06767X0.00025*%
%ADD906R,0.06963X0.00025*%
%ADD907R,0.07037X0.00025*%
%ADD908R,0.07259X0.00025*%
%ADD909R,0.15797X0.00025*%
%ADD910R,0.15773X0.00025*%
%ADD911R,0.15723X0.00025*%
%ADD912R,0.15723X0.00025*%
%ADD913R,0.15699X0.00025*%
%ADD914R,0.15699X0.00025*%
%ADD915R,0.15625X0.00025*%
%ADD916R,0.15527X0.00025*%
%ADD917R,0.15477X0.00025*%
%ADD918R,0.15428X0.00025*%
%ADD919R,0.15354X0.00025*%
%ADD920R,0.15330X0.00025*%
%ADD921R,0.15305X0.00025*%
%ADD922R,0.15256X0.00025*%
%ADD923R,0.15231X0.00025*%
%ADD924R,0.15157X0.00025*%
%ADD925R,0.15133X0.00025*%
%ADD926R,0.15084X0.00025*%
%ADD927R,0.15034X0.00025*%
%ADD928R,0.14961X0.00025*%
%ADD929R,0.14936X0.00025*%
%ADD930R,0.05217X0.00025*%
%ADD931R,0.14862X0.00025*%
%ADD932R,0.14813X0.00025*%
%ADD933R,0.14764X0.00025*%
%ADD934R,0.05192X0.00025*%
%ADD935R,0.14715X0.00025*%
%ADD936R,0.05192X0.00025*%
%ADD937R,0.14690X0.00025*%
%ADD938R,0.05192X0.00025*%
%ADD939R,0.14591X0.00025*%
%ADD940R,0.05167X0.00025*%
%ADD941R,0.14616X0.00025*%
%ADD942R,0.05143X0.00025*%
%ADD943R,0.14592X0.00025*%
%ADD944R,0.05143X0.00025*%
%ADD945R,0.14542X0.00025*%
%ADD946R,0.05143X0.00025*%
%ADD947R,0.14543X0.00025*%
%ADD948R,0.05118X0.00025*%
%ADD949R,0.14542X0.00025*%
%ADD950R,0.14493X0.00025*%
%ADD951R,0.05118X0.00025*%
%ADD952R,0.14493X0.00025*%
%ADD953R,0.14469X0.00025*%
%ADD954R,0.05093X0.00025*%
%ADD955R,0.14444X0.00025*%
%ADD956R,0.05093X0.00025*%
%ADD957R,0.14444X0.00025*%
%ADD958R,0.05094X0.00025*%
%ADD959R,0.14395X0.00025*%
%ADD960R,0.05094X0.00025*%
%ADD961R,0.14370X0.00025*%
%ADD962R,0.05044X0.00025*%
%ADD963R,0.14345X0.00025*%
%ADD964R,0.05069X0.00025*%
%ADD965R,0.14296X0.00025*%
%ADD966R,0.14247X0.00025*%
%ADD967R,0.05069X0.00025*%
%ADD968R,0.14272X0.00025*%
%ADD969R,0.05044X0.00025*%
%ADD970R,0.14222X0.00025*%
%ADD971R,0.05020X0.00025*%
%ADD972R,0.05044X0.00025*%
%ADD973R,0.14173X0.00025*%
%ADD974R,0.14148X0.00025*%
%ADD975R,0.14124X0.00025*%
%ADD976R,0.14099X0.00025*%
%ADD977R,0.04995X0.00025*%
%ADD978R,0.14100X0.00025*%
%ADD979R,0.14026X0.00025*%
%ADD980R,0.04995X0.00025*%
%ADD981R,0.14026X0.00025*%
%ADD982R,0.04995X0.00025*%
%ADD983R,0.14001X0.00025*%
%ADD984R,0.04995X0.00025*%
%ADD985R,0.13976X0.00025*%
%ADD986R,0.04970X0.00025*%
%ADD987R,0.13927X0.00025*%
%ADD988R,0.13903X0.00025*%
%ADD989R,0.13878X0.00025*%
%ADD990R,0.04946X0.00025*%
%ADD991R,0.13804X0.00025*%
%ADD992R,0.13780X0.00025*%
%ADD993R,0.13730X0.00025*%
%ADD994R,0.04946X0.00025*%
%ADD995R,0.13730X0.00025*%
%ADD996R,0.04970X0.00025*%
%ADD997R,0.13681X0.00025*%
%ADD998R,0.13632X0.00025*%
%ADD999R,0.04921X0.00025*%
%ADD1000R,0.13583X0.00025*%
%ADD1001R,0.13558X0.00025*%
%ADD1002R,0.13533X0.00025*%
%ADD1003R,0.13459X0.00025*%
%ADD1004R,0.13435X0.00025*%
%ADD1005R,0.13386X0.00025*%
%ADD1006R,0.04896X0.00025*%
%ADD1007R,0.13337X0.00025*%
%ADD1008R,0.04921X0.00025*%
%ADD1009R,0.13287X0.00025*%
%ADD1010R,0.04896X0.00025*%
%ADD1011R,0.13238X0.00025*%
%ADD1012R,0.13189X0.00025*%
%ADD1013R,0.13140X0.00025*%
%ADD1014R,0.04872X0.00025*%
%ADD1015R,0.13017X0.00025*%
%ADD1016R,0.12967X0.00025*%
%ADD1017R,0.12919X0.00025*%
%ADD1018R,0.04848X0.00025*%
%ADD1019R,0.12844X0.00025*%
%ADD1020R,0.04897X0.00025*%
%ADD1021R,0.12795X0.00025*%
%ADD1022R,0.04848X0.00025*%
%ADD1023R,0.12722X0.00025*%
%ADD1024R,0.04847X0.00025*%
%ADD1025R,0.12648X0.00025*%
%ADD1026R,0.04847X0.00025*%
%ADD1027R,0.07800X0.00025*%
%ADD1028R,0.04675X0.00025*%
%ADD1029R,0.04626X0.00025*%
%ADD1030R,0.07382X0.00025*%
%ADD1031R,0.07161X0.00025*%
%ADD1032R,0.04602X0.00025*%
%ADD1033R,0.06915X0.00025*%
%ADD1034R,0.04798X0.00025*%
%ADD1035R,0.06447X0.00025*%
%ADD1036R,0.04626X0.00025*%
%ADD1037R,0.04798X0.00025*%
%ADD1038R,0.06176X0.00025*%
%ADD1039R,0.09424X0.00025*%
%ADD1040R,0.09350X0.00025*%
%ADD1041R,0.05561X0.00025*%
%ADD1042R,0.09203X0.00025*%
%ADD1043R,0.04380X0.00025*%
%ADD1044R,0.03962X0.00025*%
%ADD1045R,0.03420X0.00025*%
%ADD1046R,0.09031X0.00025*%
%ADD1047R,0.02731X0.00025*%
%ADD1048R,0.09006X0.00025*%
%ADD1049R,0.01845X0.00025*%
%ADD1050R,0.08981X0.00025*%
%ADD1051R,0.08883X0.00025*%
%ADD1052R,0.08858X0.00025*%
%ADD1053R,0.08735X0.00025*%
%ADD1054R,0.08440X0.00025*%
%ADD1055R,0.08391X0.00025*%
%ADD1056R,0.08342X0.00025*%
%ADD1057R,0.08292X0.00025*%
%ADD1058R,0.08194X0.00025*%
%ADD1059R,0.08145X0.00025*%
%ADD1060R,0.08095X0.00025*%
%ADD1061R,0.08046X0.00025*%
%ADD1062R,0.07948X0.00025*%
%ADD1063R,0.07898X0.00025*%
%ADD1064R,0.07850X0.00025*%
%ADD1065R,0.07751X0.00025*%
%ADD1066R,0.07653X0.00025*%
%ADD1067R,0.07554X0.00025*%
%ADD1068R,0.07505X0.00025*%
%ADD1069R,0.07406X0.00025*%
%ADD1070R,0.07357X0.00025*%
%ADD1071R,0.07209X0.00025*%
%ADD1072R,0.06988X0.00025*%
%ADD1073R,0.06939X0.00025*%
%ADD1074R,0.06890X0.00025*%
%ADD1075R,0.06742X0.00025*%
%ADD1076R,0.06398X0.00025*%
%ADD1077R,0.05979X0.00025*%
%ADD1078R,0.05955X0.00025*%
%ADD1079R,0.05782X0.00025*%
%ADD1080R,0.05537X0.00025*%
%ADD1081R,0.05512X0.00025*%
%ADD1082R,0.05536X0.00025*%
%ADD1083R,0.05980X0.00025*%
%ADD1084R,0.06225X0.00025*%
%ADD1085R,0.06275X0.00025*%
%ADD1086R,0.06570X0.00025*%
%ADD1087R,0.06669X0.00025*%
%ADD1088R,0.06816X0.00025*%
%ADD1089R,0.06865X0.00025*%
%ADD1090R,0.06939X0.00025*%
%ADD1091R,0.07013X0.00025*%
%ADD1092R,0.07062X0.00025*%
%ADD1093R,0.07136X0.00025*%
%ADD1094R,0.07161X0.00025*%
%ADD1095R,0.07283X0.00025*%
%ADD1096R,0.07333X0.00025*%
%ADD1097R,0.07431X0.00025*%
%ADD1098R,0.07480X0.00025*%
%ADD1099R,0.07530X0.00025*%
%ADD1100R,0.07603X0.00025*%
%ADD1101R,0.07652X0.00025*%
%ADD1102R,0.07825X0.00025*%
%ADD1103R,0.08096X0.00025*%
%ADD1104R,0.08120X0.00025*%
%ADD1105R,0.08243X0.00025*%
%ADD1106R,0.08268X0.00025*%
%ADD1107R,0.08341X0.00025*%
%ADD1108R,0.08391X0.00025*%
%ADD1109R,0.08465X0.00025*%
%ADD1110R,0.08489X0.00025*%
%ADD1111R,0.08538X0.00025*%
%ADD1112R,0.08612X0.00025*%
%ADD1113R,0.08711X0.00025*%
%ADD1114R,0.08760X0.00025*%
%ADD1115R,0.08858X0.00025*%
%ADD1116R,0.08932X0.00025*%
%ADD1117R,0.08981X0.00025*%
%ADD1118R,0.09080X0.00025*%
%ADD1119R,0.09129X0.00025*%
%ADD1120R,0.09178X0.00025*%
%ADD1121R,0.09227X0.00025*%
%ADD1122R,0.09277X0.00025*%
%ADD1123R,0.09400X0.00025*%
%ADD1124R,0.04724X0.00025*%
%ADD1125R,0.04650X0.00025*%
%ADD1126R,0.04700X0.00025*%
%ADD1127R,0.04700X0.00025*%
%ADD1128R,0.04724X0.00025*%
%ADD1129R,0.04724X0.00025*%
%ADD1130R,0.04700X0.00025*%
%ADD1131R,0.04700X0.00025*%
%ADD1132R,0.04749X0.00025*%
%ADD1133R,0.04749X0.00025*%
%ADD1134R,0.04749X0.00025*%
%ADD1135R,0.04749X0.00025*%
%ADD1136R,0.04774X0.00025*%
%ADD1137R,0.04749X0.00025*%
%ADD1138R,0.04774X0.00025*%
%ADD1139R,0.04774X0.00025*%
%ADD1140R,0.04823X0.00025*%
%ADD1141R,0.04798X0.00025*%
%ADD1142R,0.04798X0.00025*%
%ADD1143R,0.04798X0.00025*%
%ADD1144R,0.04847X0.00025*%
%ADD1145R,0.04823X0.00025*%
%ADD1146R,0.04848X0.00025*%
%ADD1147R,0.04872X0.00025*%
%ADD1148R,0.04872X0.00025*%
%ADD1149R,0.04896X0.00025*%
%ADD1150R,0.04897X0.00025*%
%ADD1151R,0.04897X0.00025*%
%ADD1152R,0.04921X0.00025*%
%ADD1153R,0.04946X0.00025*%
%ADD1154R,0.04970X0.00025*%
%ADD1155R,0.05020X0.00025*%
%ADD1156R,0.05020X0.00025*%
%ADD1157R,0.05069X0.00025*%
D10*
X0091473Y0134514D02*
X0096744Y0134514D01*
X0094108Y0134514D02*
X0094108Y0142421D01*
X0096744Y0139785D01*
X0099392Y0141103D02*
X0104663Y0135832D01*
X0103345Y0134514D01*
X0100709Y0134514D01*
X0099392Y0135832D01*
X0099392Y0141103D01*
X0100709Y0142421D01*
X0103345Y0142421D01*
X0104663Y0141103D01*
X0104663Y0135832D01*
X0107310Y0137150D02*
X0107310Y0142421D01*
X0107310Y0137150D02*
X0109946Y0134514D01*
X0112581Y0137150D01*
X0112581Y0142421D01*
X0123148Y0141103D02*
X0123148Y0139785D01*
X0124466Y0138468D01*
X0127101Y0138468D01*
X0128419Y0139785D01*
X0128419Y0141103D01*
X0127101Y0142421D01*
X0124466Y0142421D01*
X0123148Y0141103D01*
X0124466Y0138468D02*
X0123148Y0137150D01*
X0123148Y0135832D01*
X0124466Y0134514D01*
X0127101Y0134514D01*
X0128419Y0135832D01*
X0128419Y0137150D01*
X0127101Y0138468D01*
X0131067Y0141103D02*
X0136338Y0135832D01*
X0135020Y0134514D01*
X0132384Y0134514D01*
X0131067Y0135832D01*
X0131067Y0141103D01*
X0132384Y0142421D01*
X0135020Y0142421D01*
X0136338Y0141103D01*
X0136338Y0135832D01*
X0138985Y0135832D02*
X0140303Y0134514D01*
X0142939Y0134514D01*
X0144256Y0135832D01*
X0138985Y0141103D01*
X0138985Y0135832D01*
X0144256Y0135832D02*
X0144256Y0141103D01*
X0142939Y0142421D01*
X0140303Y0142421D01*
X0138985Y0141103D01*
X0146904Y0142421D02*
X0152175Y0134514D01*
X0154823Y0141103D02*
X0160094Y0135832D01*
X0160094Y0134514D01*
X0162742Y0134514D02*
X0168013Y0134514D01*
X0165377Y0134514D02*
X0165377Y0142421D01*
X0168013Y0139785D01*
X0170660Y0141103D02*
X0175932Y0135832D01*
X0174614Y0134514D01*
X0171978Y0134514D01*
X0170660Y0135832D01*
X0170660Y0141103D01*
X0171978Y0142421D01*
X0174614Y0142421D01*
X0175932Y0141103D01*
X0175932Y0135832D01*
X0178579Y0134514D02*
X0183850Y0134514D01*
X0178579Y0139785D01*
X0178579Y0141103D01*
X0179897Y0142421D01*
X0182533Y0142421D01*
X0183850Y0141103D01*
X0198573Y0133748D02*
X0201209Y0133748D01*
X0199891Y0133748D02*
X0199891Y0141655D01*
X0201209Y0141655D01*
X0203854Y0139019D02*
X0205172Y0139019D01*
X0207808Y0136383D01*
X0207808Y0133748D02*
X0207808Y0139019D01*
X0210455Y0137701D02*
X0210455Y0133748D01*
X0214409Y0133748D01*
X0215727Y0135066D01*
X0214409Y0136383D01*
X0210455Y0136383D01*
X0210455Y0137701D02*
X0211773Y0139019D01*
X0214409Y0139019D01*
X0218374Y0140337D02*
X0219692Y0141655D01*
X0222327Y0141655D01*
X0223645Y0140337D01*
X0223645Y0135066D01*
X0222327Y0133748D01*
X0219692Y0133748D01*
X0218374Y0135066D01*
X0160094Y0142421D02*
X0154823Y0142421D01*
X0154823Y0141103D01*
D11*
X0154536Y0145814D02*
X0156271Y0145814D01*
X0157139Y0146682D01*
X0157139Y0148416D01*
X0156271Y0149284D01*
X0154536Y0149284D01*
X0153669Y0148416D01*
X0153669Y0147549D01*
X0157139Y0147549D01*
X0158825Y0148416D02*
X0158825Y0145814D01*
X0158825Y0148416D02*
X0159693Y0149284D01*
X0162295Y0149284D01*
X0162295Y0145814D01*
X0163998Y0145814D02*
X0165733Y0145814D01*
X0164865Y0145814D02*
X0164865Y0149284D01*
X0165733Y0149284D01*
X0167419Y0149284D02*
X0170022Y0149284D01*
X0170889Y0148416D01*
X0170889Y0146682D01*
X0170022Y0145814D01*
X0167419Y0145814D01*
X0167419Y0144947D02*
X0167419Y0149284D01*
X0164865Y0151019D02*
X0164865Y0151886D01*
X0169146Y0154214D02*
X0170881Y0154214D01*
X0171748Y0155082D01*
X0171748Y0156816D01*
X0170881Y0157684D01*
X0169146Y0157684D01*
X0168279Y0156816D01*
X0168279Y0155949D01*
X0171748Y0155949D01*
X0173435Y0156816D02*
X0173435Y0154214D01*
X0173435Y0156816D02*
X0174303Y0157684D01*
X0176037Y0157684D01*
X0176905Y0156816D01*
X0178608Y0157684D02*
X0180342Y0157684D01*
X0179475Y0158551D02*
X0179475Y0155082D01*
X0178608Y0154214D01*
X0176905Y0154214D02*
X0176905Y0159419D01*
X0187186Y0157684D02*
X0187186Y0153347D01*
X0188053Y0152479D01*
X0188920Y0152479D01*
X0189788Y0154214D02*
X0187186Y0154214D01*
X0189788Y0154214D02*
X0190655Y0155082D01*
X0190655Y0157684D01*
X0192342Y0156816D02*
X0193209Y0157684D01*
X0195812Y0157684D01*
X0195812Y0159419D02*
X0195812Y0154214D01*
X0193209Y0154214D01*
X0192342Y0155082D01*
X0192342Y0156816D01*
X0193201Y0149284D02*
X0193201Y0145814D01*
X0195804Y0145814D01*
X0196671Y0146682D01*
X0196671Y0149284D01*
X0198358Y0148416D02*
X0198358Y0145814D01*
X0200093Y0145814D02*
X0200093Y0148416D01*
X0199225Y0149284D01*
X0198358Y0148416D01*
X0200093Y0148416D02*
X0200960Y0149284D01*
X0201827Y0149284D01*
X0201827Y0145814D01*
X0203514Y0146682D02*
X0203514Y0148416D01*
X0204382Y0149284D01*
X0206116Y0149284D01*
X0206984Y0148416D01*
X0206984Y0146682D01*
X0206116Y0145814D01*
X0204382Y0145814D01*
X0203514Y0146682D01*
X0208670Y0145814D02*
X0208670Y0151019D01*
X0208670Y0149284D02*
X0211273Y0149284D01*
X0212140Y0148416D01*
X0212140Y0146682D01*
X0211273Y0145814D01*
X0208670Y0145814D01*
X0213827Y0145814D02*
X0216429Y0145814D01*
X0217297Y0146682D01*
X0216429Y0147549D01*
X0213827Y0147549D01*
X0213827Y0148416D02*
X0213827Y0145814D01*
X0213827Y0148416D02*
X0214694Y0149284D01*
X0216429Y0149284D01*
X0218991Y0149284D02*
X0219859Y0149284D01*
X0221594Y0147549D01*
X0221594Y0145814D02*
X0221594Y0149284D01*
X0223296Y0149284D02*
X0225031Y0149284D01*
X0224164Y0150151D02*
X0224164Y0146682D01*
X0223296Y0145814D01*
X0226718Y0146682D02*
X0227585Y0147549D01*
X0229320Y0147549D01*
X0230188Y0148416D01*
X0229320Y0149284D01*
X0226718Y0149284D01*
X0226718Y0146682D02*
X0227585Y0145814D01*
X0230188Y0145814D01*
X0231874Y0146682D02*
X0231874Y0148416D01*
X0232742Y0149284D01*
X0234477Y0149284D01*
X0235344Y0148416D01*
X0235344Y0146682D01*
X0234477Y0145814D01*
X0232742Y0145814D01*
X0231874Y0146682D01*
X0237031Y0145814D02*
X0237031Y0151019D01*
X0237898Y0154214D02*
X0237031Y0155082D01*
X0237031Y0158551D01*
X0237898Y0159419D01*
X0240500Y0159419D01*
X0240500Y0154214D01*
X0237898Y0154214D01*
X0235344Y0155082D02*
X0235344Y0156816D01*
X0234477Y0157684D01*
X0232742Y0157684D01*
X0231874Y0156816D01*
X0231874Y0155949D01*
X0235344Y0155949D01*
X0235344Y0155082D02*
X0234477Y0154214D01*
X0232742Y0154214D01*
X0230188Y0154214D02*
X0227585Y0154214D01*
X0226718Y0155082D01*
X0227585Y0155949D01*
X0229320Y0155949D01*
X0230188Y0156816D01*
X0229320Y0157684D01*
X0226718Y0157684D01*
X0225031Y0157684D02*
X0224164Y0157684D01*
X0224164Y0154214D01*
X0225031Y0154214D02*
X0223296Y0154214D01*
X0221594Y0155082D02*
X0220726Y0154214D01*
X0218124Y0154214D01*
X0218124Y0153347D02*
X0218124Y0157684D01*
X0220726Y0157684D01*
X0221594Y0156816D01*
X0221594Y0155082D01*
X0219859Y0152479D02*
X0218991Y0152479D01*
X0218124Y0153347D01*
X0216437Y0154214D02*
X0216437Y0157684D01*
X0213835Y0157684D01*
X0212967Y0156816D01*
X0212967Y0154214D01*
X0211281Y0155082D02*
X0211281Y0156816D01*
X0210413Y0157684D01*
X0208679Y0157684D01*
X0207811Y0156816D01*
X0207811Y0155949D01*
X0211281Y0155949D01*
X0211281Y0155082D02*
X0210413Y0154214D01*
X0208679Y0154214D01*
X0206124Y0155082D02*
X0206124Y0156816D01*
X0205257Y0157684D01*
X0202655Y0157684D01*
X0202655Y0159419D02*
X0202655Y0154214D01*
X0205257Y0154214D01*
X0206124Y0155082D01*
X0191515Y0148416D02*
X0190647Y0149284D01*
X0188045Y0149284D01*
X0188912Y0147549D02*
X0190647Y0147549D01*
X0191515Y0148416D01*
X0191515Y0145814D02*
X0188912Y0145814D01*
X0188045Y0146682D01*
X0188912Y0147549D01*
X0181202Y0148416D02*
X0179467Y0148416D01*
X0181202Y0145814D02*
X0177732Y0145814D01*
X0176045Y0145814D02*
X0176045Y0149284D01*
X0173443Y0149284D01*
X0172576Y0148416D01*
X0172576Y0145814D01*
X0169154Y0144079D02*
X0168287Y0144079D01*
X0167419Y0144947D01*
X0177732Y0151019D02*
X0181202Y0151019D01*
X0181202Y0145814D01*
X0151982Y0146682D02*
X0151982Y0148416D01*
X0151115Y0149284D01*
X0149380Y0149284D01*
X0148513Y0148416D01*
X0148513Y0147549D01*
X0151982Y0147549D01*
X0151982Y0146682D02*
X0151115Y0145814D01*
X0149380Y0145814D01*
X0146826Y0145814D02*
X0146826Y0149284D01*
X0146826Y0147549D02*
X0145091Y0149284D01*
X0144224Y0149284D01*
X0142529Y0149284D02*
X0141661Y0149284D01*
X0141661Y0145814D01*
X0140794Y0145814D02*
X0142529Y0145814D01*
X0139091Y0145814D02*
X0139091Y0149284D01*
X0136489Y0149284D01*
X0135622Y0148416D01*
X0135622Y0145814D01*
X0133935Y0146682D02*
X0133935Y0148416D01*
X0133067Y0149284D01*
X0130465Y0149284D01*
X0130465Y0144947D01*
X0131333Y0144079D01*
X0132200Y0144079D01*
X0133067Y0145814D02*
X0130465Y0145814D01*
X0133067Y0145814D02*
X0133935Y0146682D01*
X0141661Y0151019D02*
X0141661Y0151886D01*
X0123622Y0151019D02*
X0120152Y0151019D01*
X0121887Y0151019D02*
X0121887Y0145814D01*
X0118466Y0146682D02*
X0118466Y0148416D01*
X0117598Y0149284D01*
X0115863Y0149284D01*
X0114996Y0148416D01*
X0114996Y0147549D01*
X0118466Y0147549D01*
X0118466Y0146682D02*
X0117598Y0145814D01*
X0115863Y0145814D01*
X0113309Y0146682D02*
X0112442Y0147549D01*
X0109840Y0147549D01*
X0109840Y0148416D02*
X0109840Y0145814D01*
X0112442Y0145814D01*
X0113309Y0146682D01*
X0112442Y0149284D02*
X0110707Y0149284D01*
X0109840Y0148416D01*
X0108153Y0149284D02*
X0107285Y0149284D01*
X0106418Y0148416D01*
X0105551Y0149284D01*
X0104683Y0148416D01*
X0104683Y0145814D01*
X0106418Y0145814D02*
X0106418Y0148416D01*
X0108153Y0149284D02*
X0108153Y0145814D01*
X0110179Y0096340D02*
X0110179Y0091736D01*
X0111713Y0091736D02*
X0108644Y0091736D01*
X0107109Y0092503D02*
X0107109Y0094038D01*
X0104807Y0094038D01*
X0104040Y0093270D01*
X0104040Y0092503D01*
X0104807Y0091736D01*
X0106342Y0091736D01*
X0107109Y0092503D01*
X0107109Y0094038D02*
X0105575Y0095572D01*
X0104040Y0096340D01*
X0102505Y0095572D02*
X0102505Y0094805D01*
X0101738Y0094038D01*
X0100203Y0094038D01*
X0099436Y0093270D01*
X0099436Y0092503D01*
X0100203Y0091736D01*
X0101738Y0091736D01*
X0102505Y0092503D01*
X0102505Y0093270D01*
X0101738Y0094038D01*
X0100203Y0094038D02*
X0099436Y0094805D01*
X0099436Y0095572D01*
X0100203Y0096340D01*
X0101738Y0096340D01*
X0102505Y0095572D01*
X0097901Y0091736D02*
X0094832Y0096340D01*
X0093297Y0095572D02*
X0092530Y0096340D01*
X0090996Y0096340D01*
X0090228Y0095572D01*
X0090228Y0094805D01*
X0090996Y0094038D01*
X0090228Y0093270D01*
X0090228Y0092503D01*
X0090996Y0091736D01*
X0092530Y0091736D01*
X0093297Y0092503D01*
X0091763Y0094038D02*
X0090996Y0094038D01*
X0088694Y0095572D02*
X0087926Y0096340D01*
X0086392Y0096340D01*
X0085624Y0095572D01*
X0085624Y0094805D01*
X0088694Y0091736D01*
X0085624Y0091736D01*
X0084090Y0092503D02*
X0084090Y0093270D01*
X0083322Y0094038D01*
X0081788Y0094038D01*
X0081020Y0093270D01*
X0081020Y0092503D01*
X0081788Y0091736D01*
X0083322Y0091736D01*
X0084090Y0092503D01*
X0083322Y0094038D02*
X0084090Y0094805D01*
X0084090Y0095572D01*
X0083322Y0096340D01*
X0081788Y0096340D01*
X0081020Y0095572D01*
X0081020Y0094805D01*
X0081788Y0094038D01*
X0080637Y0088840D02*
X0080637Y0084236D01*
X0082939Y0084236D01*
X0083706Y0085003D01*
X0083706Y0086538D01*
X0082939Y0087305D01*
X0080637Y0087305D01*
X0085241Y0084236D02*
X0086775Y0084236D01*
X0086008Y0084236D02*
X0086008Y0088840D01*
X0086775Y0088840D01*
X0088310Y0086538D02*
X0088310Y0085770D01*
X0091379Y0085770D01*
X0091379Y0085003D02*
X0091379Y0086538D01*
X0090612Y0087305D01*
X0089077Y0087305D01*
X0088310Y0086538D01*
X0089077Y0084236D02*
X0090612Y0084236D01*
X0091379Y0085003D01*
X0092914Y0084236D02*
X0094448Y0084236D01*
X0093681Y0084236D02*
X0093681Y0087305D01*
X0094448Y0087305D01*
X0093681Y0088840D02*
X0093681Y0089607D01*
X0095983Y0086538D02*
X0095983Y0084236D01*
X0099052Y0084236D02*
X0099052Y0088840D01*
X0098285Y0087305D02*
X0096750Y0087305D01*
X0095983Y0086538D01*
X0098285Y0087305D02*
X0099052Y0086538D01*
X0100587Y0087305D02*
X0102889Y0087305D01*
X0103656Y0086538D01*
X0102889Y0085770D01*
X0101354Y0085770D01*
X0100587Y0085003D01*
X0101354Y0084236D01*
X0103656Y0084236D01*
X0109795Y0087305D02*
X0110562Y0087305D01*
X0112097Y0085770D01*
X0112097Y0084236D02*
X0112097Y0087305D01*
X0113631Y0086538D02*
X0113631Y0085770D01*
X0116701Y0085770D01*
X0116701Y0085003D02*
X0116701Y0086538D01*
X0115933Y0087305D01*
X0114399Y0087305D01*
X0113631Y0086538D01*
X0115933Y0084236D02*
X0116701Y0085003D01*
X0115933Y0084236D02*
X0114399Y0084236D01*
X0118235Y0084236D02*
X0118235Y0086538D01*
X0119003Y0087305D01*
X0119770Y0086538D01*
X0119770Y0084236D01*
X0121305Y0084236D02*
X0121305Y0087305D01*
X0120537Y0087305D01*
X0119770Y0086538D01*
X0122839Y0086538D02*
X0122839Y0084236D01*
X0124374Y0084236D02*
X0124374Y0086538D01*
X0123607Y0087305D01*
X0122839Y0086538D01*
X0124374Y0086538D02*
X0125141Y0087305D01*
X0125909Y0087305D01*
X0125909Y0084236D01*
X0127443Y0084236D02*
X0129745Y0084236D01*
X0130513Y0085003D01*
X0129745Y0085770D01*
X0127443Y0085770D01*
X0127443Y0086538D02*
X0127443Y0084236D01*
X0127443Y0086538D02*
X0128211Y0087305D01*
X0129745Y0087305D01*
X0132047Y0087305D02*
X0132815Y0087305D01*
X0134349Y0085770D01*
X0134349Y0084236D02*
X0134349Y0087305D01*
X0135884Y0087305D02*
X0138186Y0087305D01*
X0138953Y0086538D01*
X0138953Y0085003D01*
X0138186Y0084236D01*
X0135884Y0084236D01*
X0135884Y0083469D02*
X0135884Y0087305D01*
X0133198Y0090201D02*
X0132431Y0090201D01*
X0131664Y0090969D01*
X0131664Y0094805D01*
X0133965Y0094805D01*
X0134733Y0094038D01*
X0134733Y0092503D01*
X0133965Y0091736D01*
X0131664Y0091736D01*
X0130129Y0092503D02*
X0129362Y0093270D01*
X0127060Y0093270D01*
X0127060Y0094038D02*
X0127060Y0091736D01*
X0129362Y0091736D01*
X0130129Y0092503D01*
X0129362Y0094805D02*
X0127827Y0094805D01*
X0127060Y0094038D01*
X0125525Y0094805D02*
X0125525Y0095572D01*
X0124758Y0096340D01*
X0123223Y0096340D01*
X0122456Y0095572D01*
X0122456Y0094805D01*
X0123223Y0094038D01*
X0124758Y0094038D01*
X0125525Y0094805D01*
X0124758Y0094038D02*
X0125525Y0093270D01*
X0125525Y0092503D01*
X0124758Y0091736D01*
X0123223Y0091736D01*
X0122456Y0092503D01*
X0122456Y0093270D01*
X0123223Y0094038D01*
X0120921Y0094805D02*
X0120921Y0095572D01*
X0120154Y0096340D01*
X0118619Y0096340D01*
X0117852Y0095572D01*
X0117852Y0094805D01*
X0118619Y0094038D01*
X0120154Y0094038D01*
X0120921Y0094805D01*
X0120154Y0094038D02*
X0120921Y0093270D01*
X0120921Y0092503D01*
X0120154Y0091736D01*
X0118619Y0091736D01*
X0117852Y0092503D01*
X0117852Y0093270D01*
X0118619Y0094038D01*
X0116317Y0091736D02*
X0113248Y0096340D01*
X0111713Y0094805D02*
X0110179Y0096340D01*
X0136267Y0094038D02*
X0136267Y0093270D01*
X0139337Y0093270D01*
X0139337Y0092503D02*
X0139337Y0094038D01*
X0138569Y0094805D01*
X0137035Y0094805D01*
X0136267Y0094038D01*
X0137035Y0091736D02*
X0138569Y0091736D01*
X0139337Y0092503D01*
X0140871Y0091736D02*
X0140871Y0094038D01*
X0141639Y0094805D01*
X0142406Y0094038D01*
X0142406Y0091736D01*
X0143941Y0091736D02*
X0143941Y0094805D01*
X0143173Y0094805D01*
X0142406Y0094038D01*
X0145475Y0094805D02*
X0147010Y0094805D01*
X0146243Y0095572D02*
X0146243Y0092503D01*
X0145475Y0091736D01*
X0148545Y0091736D02*
X0148545Y0094805D01*
X0150079Y0096340D01*
X0151614Y0094805D01*
X0151614Y0091736D01*
X0151614Y0094038D02*
X0148545Y0094038D01*
X0149696Y0087305D02*
X0148928Y0086538D01*
X0148928Y0085003D01*
X0149696Y0084236D01*
X0151998Y0084236D01*
X0151998Y0082701D02*
X0151998Y0087305D01*
X0149696Y0087305D01*
X0147394Y0087305D02*
X0147394Y0084236D01*
X0147394Y0085770D02*
X0145859Y0087305D01*
X0145092Y0087305D01*
X0143557Y0086538D02*
X0143557Y0085003D01*
X0142790Y0084236D01*
X0141255Y0084236D01*
X0140488Y0085003D01*
X0140488Y0086538D01*
X0141255Y0087305D01*
X0142790Y0087305D01*
X0143557Y0086538D01*
X0137418Y0082701D02*
X0136651Y0082701D01*
X0135884Y0083469D01*
X0209611Y0122064D02*
X0210479Y0122064D01*
X0210479Y0122932D01*
X0209611Y0122932D01*
X0209611Y0122064D01*
X0212173Y0125534D02*
X0213041Y0125534D01*
X0214776Y0123799D01*
X0216462Y0123799D02*
X0219932Y0123799D01*
X0219932Y0124666D02*
X0219065Y0125534D01*
X0217330Y0125534D01*
X0216462Y0124666D01*
X0216462Y0123799D01*
X0217330Y0122064D02*
X0219065Y0122064D01*
X0219932Y0122932D01*
X0219932Y0124666D01*
X0221619Y0125534D02*
X0224221Y0125534D01*
X0225088Y0124666D01*
X0224221Y0123799D01*
X0222486Y0123799D01*
X0221619Y0122932D01*
X0222486Y0122064D01*
X0225088Y0122064D01*
X0214776Y0122064D02*
X0214776Y0125534D01*
X0237031Y0145814D02*
X0240500Y0151019D01*
X0240500Y0145814D01*
X0224164Y0159419D02*
X0224164Y0160286D01*
D12*
X0205787Y0130984D02*
X0205787Y0117205D01*
X0101457Y0117205D01*
X0101457Y0130984D01*
X0205787Y0130984D01*
D13*
X0005000Y0183370D02*
X0005000Y0008536D01*
X0008536Y0005000D01*
X0262500Y0005000D01*
X0265000Y0007500D01*
X0265000Y0015000D01*
X0275000Y0025000D01*
X0275000Y0154000D01*
X0265000Y0164000D01*
X0265000Y0211464D01*
X0261464Y0215000D01*
X0041398Y0215000D01*
X0038465Y0212066D01*
X0038465Y0190118D01*
X0034449Y0186102D01*
X0007732Y0186102D01*
X0005000Y0183370D01*
X0058701Y0205000D02*
X0058703Y0205158D01*
X0058709Y0205316D01*
X0058719Y0205474D01*
X0058733Y0205632D01*
X0058751Y0205789D01*
X0058772Y0205946D01*
X0058798Y0206102D01*
X0058828Y0206258D01*
X0058861Y0206413D01*
X0058899Y0206566D01*
X0058940Y0206719D01*
X0058985Y0206871D01*
X0059034Y0207022D01*
X0059087Y0207171D01*
X0059143Y0207319D01*
X0059203Y0207465D01*
X0059267Y0207610D01*
X0059335Y0207753D01*
X0059406Y0207895D01*
X0059480Y0208035D01*
X0059558Y0208172D01*
X0059640Y0208308D01*
X0059724Y0208442D01*
X0059813Y0208573D01*
X0059904Y0208702D01*
X0059999Y0208829D01*
X0060096Y0208954D01*
X0060197Y0209076D01*
X0060301Y0209195D01*
X0060408Y0209312D01*
X0060518Y0209426D01*
X0060631Y0209537D01*
X0060746Y0209646D01*
X0060864Y0209751D01*
X0060985Y0209853D01*
X0061108Y0209953D01*
X0061234Y0210049D01*
X0061362Y0210142D01*
X0061492Y0210232D01*
X0061625Y0210318D01*
X0061760Y0210402D01*
X0061896Y0210481D01*
X0062035Y0210558D01*
X0062176Y0210630D01*
X0062318Y0210700D01*
X0062462Y0210765D01*
X0062608Y0210827D01*
X0062755Y0210885D01*
X0062904Y0210940D01*
X0063054Y0210991D01*
X0063205Y0211038D01*
X0063357Y0211081D01*
X0063510Y0211120D01*
X0063665Y0211156D01*
X0063820Y0211187D01*
X0063976Y0211215D01*
X0064132Y0211239D01*
X0064289Y0211259D01*
X0064447Y0211275D01*
X0064604Y0211287D01*
X0064763Y0211295D01*
X0064921Y0211299D01*
X0065079Y0211299D01*
X0065237Y0211295D01*
X0065396Y0211287D01*
X0065553Y0211275D01*
X0065711Y0211259D01*
X0065868Y0211239D01*
X0066024Y0211215D01*
X0066180Y0211187D01*
X0066335Y0211156D01*
X0066490Y0211120D01*
X0066643Y0211081D01*
X0066795Y0211038D01*
X0066946Y0210991D01*
X0067096Y0210940D01*
X0067245Y0210885D01*
X0067392Y0210827D01*
X0067538Y0210765D01*
X0067682Y0210700D01*
X0067824Y0210630D01*
X0067965Y0210558D01*
X0068104Y0210481D01*
X0068240Y0210402D01*
X0068375Y0210318D01*
X0068508Y0210232D01*
X0068638Y0210142D01*
X0068766Y0210049D01*
X0068892Y0209953D01*
X0069015Y0209853D01*
X0069136Y0209751D01*
X0069254Y0209646D01*
X0069369Y0209537D01*
X0069482Y0209426D01*
X0069592Y0209312D01*
X0069699Y0209195D01*
X0069803Y0209076D01*
X0069904Y0208954D01*
X0070001Y0208829D01*
X0070096Y0208702D01*
X0070187Y0208573D01*
X0070276Y0208442D01*
X0070360Y0208308D01*
X0070442Y0208172D01*
X0070520Y0208035D01*
X0070594Y0207895D01*
X0070665Y0207753D01*
X0070733Y0207610D01*
X0070797Y0207465D01*
X0070857Y0207319D01*
X0070913Y0207171D01*
X0070966Y0207022D01*
X0071015Y0206871D01*
X0071060Y0206719D01*
X0071101Y0206566D01*
X0071139Y0206413D01*
X0071172Y0206258D01*
X0071202Y0206102D01*
X0071228Y0205946D01*
X0071249Y0205789D01*
X0071267Y0205632D01*
X0071281Y0205474D01*
X0071291Y0205316D01*
X0071297Y0205158D01*
X0071299Y0205000D01*
X0071297Y0204842D01*
X0071291Y0204684D01*
X0071281Y0204526D01*
X0071267Y0204368D01*
X0071249Y0204211D01*
X0071228Y0204054D01*
X0071202Y0203898D01*
X0071172Y0203742D01*
X0071139Y0203587D01*
X0071101Y0203434D01*
X0071060Y0203281D01*
X0071015Y0203129D01*
X0070966Y0202978D01*
X0070913Y0202829D01*
X0070857Y0202681D01*
X0070797Y0202535D01*
X0070733Y0202390D01*
X0070665Y0202247D01*
X0070594Y0202105D01*
X0070520Y0201965D01*
X0070442Y0201828D01*
X0070360Y0201692D01*
X0070276Y0201558D01*
X0070187Y0201427D01*
X0070096Y0201298D01*
X0070001Y0201171D01*
X0069904Y0201046D01*
X0069803Y0200924D01*
X0069699Y0200805D01*
X0069592Y0200688D01*
X0069482Y0200574D01*
X0069369Y0200463D01*
X0069254Y0200354D01*
X0069136Y0200249D01*
X0069015Y0200147D01*
X0068892Y0200047D01*
X0068766Y0199951D01*
X0068638Y0199858D01*
X0068508Y0199768D01*
X0068375Y0199682D01*
X0068240Y0199598D01*
X0068104Y0199519D01*
X0067965Y0199442D01*
X0067824Y0199370D01*
X0067682Y0199300D01*
X0067538Y0199235D01*
X0067392Y0199173D01*
X0067245Y0199115D01*
X0067096Y0199060D01*
X0066946Y0199009D01*
X0066795Y0198962D01*
X0066643Y0198919D01*
X0066490Y0198880D01*
X0066335Y0198844D01*
X0066180Y0198813D01*
X0066024Y0198785D01*
X0065868Y0198761D01*
X0065711Y0198741D01*
X0065553Y0198725D01*
X0065396Y0198713D01*
X0065237Y0198705D01*
X0065079Y0198701D01*
X0064921Y0198701D01*
X0064763Y0198705D01*
X0064604Y0198713D01*
X0064447Y0198725D01*
X0064289Y0198741D01*
X0064132Y0198761D01*
X0063976Y0198785D01*
X0063820Y0198813D01*
X0063665Y0198844D01*
X0063510Y0198880D01*
X0063357Y0198919D01*
X0063205Y0198962D01*
X0063054Y0199009D01*
X0062904Y0199060D01*
X0062755Y0199115D01*
X0062608Y0199173D01*
X0062462Y0199235D01*
X0062318Y0199300D01*
X0062176Y0199370D01*
X0062035Y0199442D01*
X0061896Y0199519D01*
X0061760Y0199598D01*
X0061625Y0199682D01*
X0061492Y0199768D01*
X0061362Y0199858D01*
X0061234Y0199951D01*
X0061108Y0200047D01*
X0060985Y0200147D01*
X0060864Y0200249D01*
X0060746Y0200354D01*
X0060631Y0200463D01*
X0060518Y0200574D01*
X0060408Y0200688D01*
X0060301Y0200805D01*
X0060197Y0200924D01*
X0060096Y0201046D01*
X0059999Y0201171D01*
X0059904Y0201298D01*
X0059813Y0201427D01*
X0059724Y0201558D01*
X0059640Y0201692D01*
X0059558Y0201828D01*
X0059480Y0201965D01*
X0059406Y0202105D01*
X0059335Y0202247D01*
X0059267Y0202390D01*
X0059203Y0202535D01*
X0059143Y0202681D01*
X0059087Y0202829D01*
X0059034Y0202978D01*
X0058985Y0203129D01*
X0058940Y0203281D01*
X0058899Y0203434D01*
X0058861Y0203587D01*
X0058828Y0203742D01*
X0058798Y0203898D01*
X0058772Y0204054D01*
X0058751Y0204211D01*
X0058733Y0204368D01*
X0058719Y0204526D01*
X0058709Y0204684D01*
X0058703Y0204842D01*
X0058701Y0205000D01*
X0258701Y0145000D02*
X0258703Y0145158D01*
X0258709Y0145316D01*
X0258719Y0145474D01*
X0258733Y0145632D01*
X0258751Y0145789D01*
X0258772Y0145946D01*
X0258798Y0146102D01*
X0258828Y0146258D01*
X0258861Y0146413D01*
X0258899Y0146566D01*
X0258940Y0146719D01*
X0258985Y0146871D01*
X0259034Y0147022D01*
X0259087Y0147171D01*
X0259143Y0147319D01*
X0259203Y0147465D01*
X0259267Y0147610D01*
X0259335Y0147753D01*
X0259406Y0147895D01*
X0259480Y0148035D01*
X0259558Y0148172D01*
X0259640Y0148308D01*
X0259724Y0148442D01*
X0259813Y0148573D01*
X0259904Y0148702D01*
X0259999Y0148829D01*
X0260096Y0148954D01*
X0260197Y0149076D01*
X0260301Y0149195D01*
X0260408Y0149312D01*
X0260518Y0149426D01*
X0260631Y0149537D01*
X0260746Y0149646D01*
X0260864Y0149751D01*
X0260985Y0149853D01*
X0261108Y0149953D01*
X0261234Y0150049D01*
X0261362Y0150142D01*
X0261492Y0150232D01*
X0261625Y0150318D01*
X0261760Y0150402D01*
X0261896Y0150481D01*
X0262035Y0150558D01*
X0262176Y0150630D01*
X0262318Y0150700D01*
X0262462Y0150765D01*
X0262608Y0150827D01*
X0262755Y0150885D01*
X0262904Y0150940D01*
X0263054Y0150991D01*
X0263205Y0151038D01*
X0263357Y0151081D01*
X0263510Y0151120D01*
X0263665Y0151156D01*
X0263820Y0151187D01*
X0263976Y0151215D01*
X0264132Y0151239D01*
X0264289Y0151259D01*
X0264447Y0151275D01*
X0264604Y0151287D01*
X0264763Y0151295D01*
X0264921Y0151299D01*
X0265079Y0151299D01*
X0265237Y0151295D01*
X0265396Y0151287D01*
X0265553Y0151275D01*
X0265711Y0151259D01*
X0265868Y0151239D01*
X0266024Y0151215D01*
X0266180Y0151187D01*
X0266335Y0151156D01*
X0266490Y0151120D01*
X0266643Y0151081D01*
X0266795Y0151038D01*
X0266946Y0150991D01*
X0267096Y0150940D01*
X0267245Y0150885D01*
X0267392Y0150827D01*
X0267538Y0150765D01*
X0267682Y0150700D01*
X0267824Y0150630D01*
X0267965Y0150558D01*
X0268104Y0150481D01*
X0268240Y0150402D01*
X0268375Y0150318D01*
X0268508Y0150232D01*
X0268638Y0150142D01*
X0268766Y0150049D01*
X0268892Y0149953D01*
X0269015Y0149853D01*
X0269136Y0149751D01*
X0269254Y0149646D01*
X0269369Y0149537D01*
X0269482Y0149426D01*
X0269592Y0149312D01*
X0269699Y0149195D01*
X0269803Y0149076D01*
X0269904Y0148954D01*
X0270001Y0148829D01*
X0270096Y0148702D01*
X0270187Y0148573D01*
X0270276Y0148442D01*
X0270360Y0148308D01*
X0270442Y0148172D01*
X0270520Y0148035D01*
X0270594Y0147895D01*
X0270665Y0147753D01*
X0270733Y0147610D01*
X0270797Y0147465D01*
X0270857Y0147319D01*
X0270913Y0147171D01*
X0270966Y0147022D01*
X0271015Y0146871D01*
X0271060Y0146719D01*
X0271101Y0146566D01*
X0271139Y0146413D01*
X0271172Y0146258D01*
X0271202Y0146102D01*
X0271228Y0145946D01*
X0271249Y0145789D01*
X0271267Y0145632D01*
X0271281Y0145474D01*
X0271291Y0145316D01*
X0271297Y0145158D01*
X0271299Y0145000D01*
X0271297Y0144842D01*
X0271291Y0144684D01*
X0271281Y0144526D01*
X0271267Y0144368D01*
X0271249Y0144211D01*
X0271228Y0144054D01*
X0271202Y0143898D01*
X0271172Y0143742D01*
X0271139Y0143587D01*
X0271101Y0143434D01*
X0271060Y0143281D01*
X0271015Y0143129D01*
X0270966Y0142978D01*
X0270913Y0142829D01*
X0270857Y0142681D01*
X0270797Y0142535D01*
X0270733Y0142390D01*
X0270665Y0142247D01*
X0270594Y0142105D01*
X0270520Y0141965D01*
X0270442Y0141828D01*
X0270360Y0141692D01*
X0270276Y0141558D01*
X0270187Y0141427D01*
X0270096Y0141298D01*
X0270001Y0141171D01*
X0269904Y0141046D01*
X0269803Y0140924D01*
X0269699Y0140805D01*
X0269592Y0140688D01*
X0269482Y0140574D01*
X0269369Y0140463D01*
X0269254Y0140354D01*
X0269136Y0140249D01*
X0269015Y0140147D01*
X0268892Y0140047D01*
X0268766Y0139951D01*
X0268638Y0139858D01*
X0268508Y0139768D01*
X0268375Y0139682D01*
X0268240Y0139598D01*
X0268104Y0139519D01*
X0267965Y0139442D01*
X0267824Y0139370D01*
X0267682Y0139300D01*
X0267538Y0139235D01*
X0267392Y0139173D01*
X0267245Y0139115D01*
X0267096Y0139060D01*
X0266946Y0139009D01*
X0266795Y0138962D01*
X0266643Y0138919D01*
X0266490Y0138880D01*
X0266335Y0138844D01*
X0266180Y0138813D01*
X0266024Y0138785D01*
X0265868Y0138761D01*
X0265711Y0138741D01*
X0265553Y0138725D01*
X0265396Y0138713D01*
X0265237Y0138705D01*
X0265079Y0138701D01*
X0264921Y0138701D01*
X0264763Y0138705D01*
X0264604Y0138713D01*
X0264447Y0138725D01*
X0264289Y0138741D01*
X0264132Y0138761D01*
X0263976Y0138785D01*
X0263820Y0138813D01*
X0263665Y0138844D01*
X0263510Y0138880D01*
X0263357Y0138919D01*
X0263205Y0138962D01*
X0263054Y0139009D01*
X0262904Y0139060D01*
X0262755Y0139115D01*
X0262608Y0139173D01*
X0262462Y0139235D01*
X0262318Y0139300D01*
X0262176Y0139370D01*
X0262035Y0139442D01*
X0261896Y0139519D01*
X0261760Y0139598D01*
X0261625Y0139682D01*
X0261492Y0139768D01*
X0261362Y0139858D01*
X0261234Y0139951D01*
X0261108Y0140047D01*
X0260985Y0140147D01*
X0260864Y0140249D01*
X0260746Y0140354D01*
X0260631Y0140463D01*
X0260518Y0140574D01*
X0260408Y0140688D01*
X0260301Y0140805D01*
X0260197Y0140924D01*
X0260096Y0141046D01*
X0259999Y0141171D01*
X0259904Y0141298D01*
X0259813Y0141427D01*
X0259724Y0141558D01*
X0259640Y0141692D01*
X0259558Y0141828D01*
X0259480Y0141965D01*
X0259406Y0142105D01*
X0259335Y0142247D01*
X0259267Y0142390D01*
X0259203Y0142535D01*
X0259143Y0142681D01*
X0259087Y0142829D01*
X0259034Y0142978D01*
X0258985Y0143129D01*
X0258940Y0143281D01*
X0258899Y0143434D01*
X0258861Y0143587D01*
X0258828Y0143742D01*
X0258798Y0143898D01*
X0258772Y0144054D01*
X0258751Y0144211D01*
X0258733Y0144368D01*
X0258719Y0144526D01*
X0258709Y0144684D01*
X0258703Y0144842D01*
X0258701Y0145000D01*
X0258701Y0035000D02*
X0258703Y0035158D01*
X0258709Y0035316D01*
X0258719Y0035474D01*
X0258733Y0035632D01*
X0258751Y0035789D01*
X0258772Y0035946D01*
X0258798Y0036102D01*
X0258828Y0036258D01*
X0258861Y0036413D01*
X0258899Y0036566D01*
X0258940Y0036719D01*
X0258985Y0036871D01*
X0259034Y0037022D01*
X0259087Y0037171D01*
X0259143Y0037319D01*
X0259203Y0037465D01*
X0259267Y0037610D01*
X0259335Y0037753D01*
X0259406Y0037895D01*
X0259480Y0038035D01*
X0259558Y0038172D01*
X0259640Y0038308D01*
X0259724Y0038442D01*
X0259813Y0038573D01*
X0259904Y0038702D01*
X0259999Y0038829D01*
X0260096Y0038954D01*
X0260197Y0039076D01*
X0260301Y0039195D01*
X0260408Y0039312D01*
X0260518Y0039426D01*
X0260631Y0039537D01*
X0260746Y0039646D01*
X0260864Y0039751D01*
X0260985Y0039853D01*
X0261108Y0039953D01*
X0261234Y0040049D01*
X0261362Y0040142D01*
X0261492Y0040232D01*
X0261625Y0040318D01*
X0261760Y0040402D01*
X0261896Y0040481D01*
X0262035Y0040558D01*
X0262176Y0040630D01*
X0262318Y0040700D01*
X0262462Y0040765D01*
X0262608Y0040827D01*
X0262755Y0040885D01*
X0262904Y0040940D01*
X0263054Y0040991D01*
X0263205Y0041038D01*
X0263357Y0041081D01*
X0263510Y0041120D01*
X0263665Y0041156D01*
X0263820Y0041187D01*
X0263976Y0041215D01*
X0264132Y0041239D01*
X0264289Y0041259D01*
X0264447Y0041275D01*
X0264604Y0041287D01*
X0264763Y0041295D01*
X0264921Y0041299D01*
X0265079Y0041299D01*
X0265237Y0041295D01*
X0265396Y0041287D01*
X0265553Y0041275D01*
X0265711Y0041259D01*
X0265868Y0041239D01*
X0266024Y0041215D01*
X0266180Y0041187D01*
X0266335Y0041156D01*
X0266490Y0041120D01*
X0266643Y0041081D01*
X0266795Y0041038D01*
X0266946Y0040991D01*
X0267096Y0040940D01*
X0267245Y0040885D01*
X0267392Y0040827D01*
X0267538Y0040765D01*
X0267682Y0040700D01*
X0267824Y0040630D01*
X0267965Y0040558D01*
X0268104Y0040481D01*
X0268240Y0040402D01*
X0268375Y0040318D01*
X0268508Y0040232D01*
X0268638Y0040142D01*
X0268766Y0040049D01*
X0268892Y0039953D01*
X0269015Y0039853D01*
X0269136Y0039751D01*
X0269254Y0039646D01*
X0269369Y0039537D01*
X0269482Y0039426D01*
X0269592Y0039312D01*
X0269699Y0039195D01*
X0269803Y0039076D01*
X0269904Y0038954D01*
X0270001Y0038829D01*
X0270096Y0038702D01*
X0270187Y0038573D01*
X0270276Y0038442D01*
X0270360Y0038308D01*
X0270442Y0038172D01*
X0270520Y0038035D01*
X0270594Y0037895D01*
X0270665Y0037753D01*
X0270733Y0037610D01*
X0270797Y0037465D01*
X0270857Y0037319D01*
X0270913Y0037171D01*
X0270966Y0037022D01*
X0271015Y0036871D01*
X0271060Y0036719D01*
X0271101Y0036566D01*
X0271139Y0036413D01*
X0271172Y0036258D01*
X0271202Y0036102D01*
X0271228Y0035946D01*
X0271249Y0035789D01*
X0271267Y0035632D01*
X0271281Y0035474D01*
X0271291Y0035316D01*
X0271297Y0035158D01*
X0271299Y0035000D01*
X0271297Y0034842D01*
X0271291Y0034684D01*
X0271281Y0034526D01*
X0271267Y0034368D01*
X0271249Y0034211D01*
X0271228Y0034054D01*
X0271202Y0033898D01*
X0271172Y0033742D01*
X0271139Y0033587D01*
X0271101Y0033434D01*
X0271060Y0033281D01*
X0271015Y0033129D01*
X0270966Y0032978D01*
X0270913Y0032829D01*
X0270857Y0032681D01*
X0270797Y0032535D01*
X0270733Y0032390D01*
X0270665Y0032247D01*
X0270594Y0032105D01*
X0270520Y0031965D01*
X0270442Y0031828D01*
X0270360Y0031692D01*
X0270276Y0031558D01*
X0270187Y0031427D01*
X0270096Y0031298D01*
X0270001Y0031171D01*
X0269904Y0031046D01*
X0269803Y0030924D01*
X0269699Y0030805D01*
X0269592Y0030688D01*
X0269482Y0030574D01*
X0269369Y0030463D01*
X0269254Y0030354D01*
X0269136Y0030249D01*
X0269015Y0030147D01*
X0268892Y0030047D01*
X0268766Y0029951D01*
X0268638Y0029858D01*
X0268508Y0029768D01*
X0268375Y0029682D01*
X0268240Y0029598D01*
X0268104Y0029519D01*
X0267965Y0029442D01*
X0267824Y0029370D01*
X0267682Y0029300D01*
X0267538Y0029235D01*
X0267392Y0029173D01*
X0267245Y0029115D01*
X0267096Y0029060D01*
X0266946Y0029009D01*
X0266795Y0028962D01*
X0266643Y0028919D01*
X0266490Y0028880D01*
X0266335Y0028844D01*
X0266180Y0028813D01*
X0266024Y0028785D01*
X0265868Y0028761D01*
X0265711Y0028741D01*
X0265553Y0028725D01*
X0265396Y0028713D01*
X0265237Y0028705D01*
X0265079Y0028701D01*
X0264921Y0028701D01*
X0264763Y0028705D01*
X0264604Y0028713D01*
X0264447Y0028725D01*
X0264289Y0028741D01*
X0264132Y0028761D01*
X0263976Y0028785D01*
X0263820Y0028813D01*
X0263665Y0028844D01*
X0263510Y0028880D01*
X0263357Y0028919D01*
X0263205Y0028962D01*
X0263054Y0029009D01*
X0262904Y0029060D01*
X0262755Y0029115D01*
X0262608Y0029173D01*
X0262462Y0029235D01*
X0262318Y0029300D01*
X0262176Y0029370D01*
X0262035Y0029442D01*
X0261896Y0029519D01*
X0261760Y0029598D01*
X0261625Y0029682D01*
X0261492Y0029768D01*
X0261362Y0029858D01*
X0261234Y0029951D01*
X0261108Y0030047D01*
X0260985Y0030147D01*
X0260864Y0030249D01*
X0260746Y0030354D01*
X0260631Y0030463D01*
X0260518Y0030574D01*
X0260408Y0030688D01*
X0260301Y0030805D01*
X0260197Y0030924D01*
X0260096Y0031046D01*
X0259999Y0031171D01*
X0259904Y0031298D01*
X0259813Y0031427D01*
X0259724Y0031558D01*
X0259640Y0031692D01*
X0259558Y0031828D01*
X0259480Y0031965D01*
X0259406Y0032105D01*
X0259335Y0032247D01*
X0259267Y0032390D01*
X0259203Y0032535D01*
X0259143Y0032681D01*
X0259087Y0032829D01*
X0259034Y0032978D01*
X0258985Y0033129D01*
X0258940Y0033281D01*
X0258899Y0033434D01*
X0258861Y0033587D01*
X0258828Y0033742D01*
X0258798Y0033898D01*
X0258772Y0034054D01*
X0258751Y0034211D01*
X0258733Y0034368D01*
X0258719Y0034526D01*
X0258709Y0034684D01*
X0258703Y0034842D01*
X0258701Y0035000D01*
X0053701Y0015000D02*
X0053703Y0015158D01*
X0053709Y0015316D01*
X0053719Y0015474D01*
X0053733Y0015632D01*
X0053751Y0015789D01*
X0053772Y0015946D01*
X0053798Y0016102D01*
X0053828Y0016258D01*
X0053861Y0016413D01*
X0053899Y0016566D01*
X0053940Y0016719D01*
X0053985Y0016871D01*
X0054034Y0017022D01*
X0054087Y0017171D01*
X0054143Y0017319D01*
X0054203Y0017465D01*
X0054267Y0017610D01*
X0054335Y0017753D01*
X0054406Y0017895D01*
X0054480Y0018035D01*
X0054558Y0018172D01*
X0054640Y0018308D01*
X0054724Y0018442D01*
X0054813Y0018573D01*
X0054904Y0018702D01*
X0054999Y0018829D01*
X0055096Y0018954D01*
X0055197Y0019076D01*
X0055301Y0019195D01*
X0055408Y0019312D01*
X0055518Y0019426D01*
X0055631Y0019537D01*
X0055746Y0019646D01*
X0055864Y0019751D01*
X0055985Y0019853D01*
X0056108Y0019953D01*
X0056234Y0020049D01*
X0056362Y0020142D01*
X0056492Y0020232D01*
X0056625Y0020318D01*
X0056760Y0020402D01*
X0056896Y0020481D01*
X0057035Y0020558D01*
X0057176Y0020630D01*
X0057318Y0020700D01*
X0057462Y0020765D01*
X0057608Y0020827D01*
X0057755Y0020885D01*
X0057904Y0020940D01*
X0058054Y0020991D01*
X0058205Y0021038D01*
X0058357Y0021081D01*
X0058510Y0021120D01*
X0058665Y0021156D01*
X0058820Y0021187D01*
X0058976Y0021215D01*
X0059132Y0021239D01*
X0059289Y0021259D01*
X0059447Y0021275D01*
X0059604Y0021287D01*
X0059763Y0021295D01*
X0059921Y0021299D01*
X0060079Y0021299D01*
X0060237Y0021295D01*
X0060396Y0021287D01*
X0060553Y0021275D01*
X0060711Y0021259D01*
X0060868Y0021239D01*
X0061024Y0021215D01*
X0061180Y0021187D01*
X0061335Y0021156D01*
X0061490Y0021120D01*
X0061643Y0021081D01*
X0061795Y0021038D01*
X0061946Y0020991D01*
X0062096Y0020940D01*
X0062245Y0020885D01*
X0062392Y0020827D01*
X0062538Y0020765D01*
X0062682Y0020700D01*
X0062824Y0020630D01*
X0062965Y0020558D01*
X0063104Y0020481D01*
X0063240Y0020402D01*
X0063375Y0020318D01*
X0063508Y0020232D01*
X0063638Y0020142D01*
X0063766Y0020049D01*
X0063892Y0019953D01*
X0064015Y0019853D01*
X0064136Y0019751D01*
X0064254Y0019646D01*
X0064369Y0019537D01*
X0064482Y0019426D01*
X0064592Y0019312D01*
X0064699Y0019195D01*
X0064803Y0019076D01*
X0064904Y0018954D01*
X0065001Y0018829D01*
X0065096Y0018702D01*
X0065187Y0018573D01*
X0065276Y0018442D01*
X0065360Y0018308D01*
X0065442Y0018172D01*
X0065520Y0018035D01*
X0065594Y0017895D01*
X0065665Y0017753D01*
X0065733Y0017610D01*
X0065797Y0017465D01*
X0065857Y0017319D01*
X0065913Y0017171D01*
X0065966Y0017022D01*
X0066015Y0016871D01*
X0066060Y0016719D01*
X0066101Y0016566D01*
X0066139Y0016413D01*
X0066172Y0016258D01*
X0066202Y0016102D01*
X0066228Y0015946D01*
X0066249Y0015789D01*
X0066267Y0015632D01*
X0066281Y0015474D01*
X0066291Y0015316D01*
X0066297Y0015158D01*
X0066299Y0015000D01*
X0066297Y0014842D01*
X0066291Y0014684D01*
X0066281Y0014526D01*
X0066267Y0014368D01*
X0066249Y0014211D01*
X0066228Y0014054D01*
X0066202Y0013898D01*
X0066172Y0013742D01*
X0066139Y0013587D01*
X0066101Y0013434D01*
X0066060Y0013281D01*
X0066015Y0013129D01*
X0065966Y0012978D01*
X0065913Y0012829D01*
X0065857Y0012681D01*
X0065797Y0012535D01*
X0065733Y0012390D01*
X0065665Y0012247D01*
X0065594Y0012105D01*
X0065520Y0011965D01*
X0065442Y0011828D01*
X0065360Y0011692D01*
X0065276Y0011558D01*
X0065187Y0011427D01*
X0065096Y0011298D01*
X0065001Y0011171D01*
X0064904Y0011046D01*
X0064803Y0010924D01*
X0064699Y0010805D01*
X0064592Y0010688D01*
X0064482Y0010574D01*
X0064369Y0010463D01*
X0064254Y0010354D01*
X0064136Y0010249D01*
X0064015Y0010147D01*
X0063892Y0010047D01*
X0063766Y0009951D01*
X0063638Y0009858D01*
X0063508Y0009768D01*
X0063375Y0009682D01*
X0063240Y0009598D01*
X0063104Y0009519D01*
X0062965Y0009442D01*
X0062824Y0009370D01*
X0062682Y0009300D01*
X0062538Y0009235D01*
X0062392Y0009173D01*
X0062245Y0009115D01*
X0062096Y0009060D01*
X0061946Y0009009D01*
X0061795Y0008962D01*
X0061643Y0008919D01*
X0061490Y0008880D01*
X0061335Y0008844D01*
X0061180Y0008813D01*
X0061024Y0008785D01*
X0060868Y0008761D01*
X0060711Y0008741D01*
X0060553Y0008725D01*
X0060396Y0008713D01*
X0060237Y0008705D01*
X0060079Y0008701D01*
X0059921Y0008701D01*
X0059763Y0008705D01*
X0059604Y0008713D01*
X0059447Y0008725D01*
X0059289Y0008741D01*
X0059132Y0008761D01*
X0058976Y0008785D01*
X0058820Y0008813D01*
X0058665Y0008844D01*
X0058510Y0008880D01*
X0058357Y0008919D01*
X0058205Y0008962D01*
X0058054Y0009009D01*
X0057904Y0009060D01*
X0057755Y0009115D01*
X0057608Y0009173D01*
X0057462Y0009235D01*
X0057318Y0009300D01*
X0057176Y0009370D01*
X0057035Y0009442D01*
X0056896Y0009519D01*
X0056760Y0009598D01*
X0056625Y0009682D01*
X0056492Y0009768D01*
X0056362Y0009858D01*
X0056234Y0009951D01*
X0056108Y0010047D01*
X0055985Y0010147D01*
X0055864Y0010249D01*
X0055746Y0010354D01*
X0055631Y0010463D01*
X0055518Y0010574D01*
X0055408Y0010688D01*
X0055301Y0010805D01*
X0055197Y0010924D01*
X0055096Y0011046D01*
X0054999Y0011171D01*
X0054904Y0011298D01*
X0054813Y0011427D01*
X0054724Y0011558D01*
X0054640Y0011692D01*
X0054558Y0011828D01*
X0054480Y0011965D01*
X0054406Y0012105D01*
X0054335Y0012247D01*
X0054267Y0012390D01*
X0054203Y0012535D01*
X0054143Y0012681D01*
X0054087Y0012829D01*
X0054034Y0012978D01*
X0053985Y0013129D01*
X0053940Y0013281D01*
X0053899Y0013434D01*
X0053861Y0013587D01*
X0053828Y0013742D01*
X0053798Y0013898D01*
X0053772Y0014054D01*
X0053751Y0014211D01*
X0053733Y0014368D01*
X0053719Y0014526D01*
X0053709Y0014684D01*
X0053703Y0014842D01*
X0053701Y0015000D01*
D14*
X0229644Y0137600D02*
X0229646Y0137753D01*
X0229652Y0137907D01*
X0229662Y0138060D01*
X0229676Y0138212D01*
X0229694Y0138365D01*
X0229716Y0138516D01*
X0229741Y0138667D01*
X0229771Y0138818D01*
X0229805Y0138968D01*
X0229842Y0139116D01*
X0229883Y0139264D01*
X0229928Y0139410D01*
X0229977Y0139556D01*
X0230030Y0139700D01*
X0230086Y0139842D01*
X0230146Y0139983D01*
X0230210Y0140123D01*
X0230277Y0140261D01*
X0230348Y0140397D01*
X0230423Y0140531D01*
X0230500Y0140663D01*
X0230582Y0140793D01*
X0230666Y0140921D01*
X0230754Y0141047D01*
X0230845Y0141170D01*
X0230939Y0141291D01*
X0231037Y0141409D01*
X0231137Y0141525D01*
X0231241Y0141638D01*
X0231347Y0141749D01*
X0231456Y0141857D01*
X0231568Y0141962D01*
X0231682Y0142063D01*
X0231800Y0142162D01*
X0231919Y0142258D01*
X0232041Y0142351D01*
X0232166Y0142440D01*
X0232293Y0142527D01*
X0232422Y0142609D01*
X0232553Y0142689D01*
X0232686Y0142765D01*
X0232821Y0142838D01*
X0232958Y0142907D01*
X0233097Y0142972D01*
X0233237Y0143034D01*
X0233379Y0143092D01*
X0233522Y0143147D01*
X0233667Y0143198D01*
X0233813Y0143245D01*
X0233960Y0143288D01*
X0234108Y0143327D01*
X0234257Y0143363D01*
X0234407Y0143394D01*
X0234558Y0143422D01*
X0234709Y0143446D01*
X0234862Y0143466D01*
X0235014Y0143482D01*
X0235167Y0143494D01*
X0235320Y0143502D01*
X0235473Y0143506D01*
X0235627Y0143506D01*
X0235780Y0143502D01*
X0235933Y0143494D01*
X0236086Y0143482D01*
X0236238Y0143466D01*
X0236391Y0143446D01*
X0236542Y0143422D01*
X0236693Y0143394D01*
X0236843Y0143363D01*
X0236992Y0143327D01*
X0237140Y0143288D01*
X0237287Y0143245D01*
X0237433Y0143198D01*
X0237578Y0143147D01*
X0237721Y0143092D01*
X0237863Y0143034D01*
X0238003Y0142972D01*
X0238142Y0142907D01*
X0238279Y0142838D01*
X0238414Y0142765D01*
X0238547Y0142689D01*
X0238678Y0142609D01*
X0238807Y0142527D01*
X0238934Y0142440D01*
X0239059Y0142351D01*
X0239181Y0142258D01*
X0239300Y0142162D01*
X0239418Y0142063D01*
X0239532Y0141962D01*
X0239644Y0141857D01*
X0239753Y0141749D01*
X0239859Y0141638D01*
X0239963Y0141525D01*
X0240063Y0141409D01*
X0240161Y0141291D01*
X0240255Y0141170D01*
X0240346Y0141047D01*
X0240434Y0140921D01*
X0240518Y0140793D01*
X0240600Y0140663D01*
X0240677Y0140531D01*
X0240752Y0140397D01*
X0240823Y0140261D01*
X0240890Y0140123D01*
X0240954Y0139983D01*
X0241014Y0139842D01*
X0241070Y0139700D01*
X0241123Y0139556D01*
X0241172Y0139410D01*
X0241217Y0139264D01*
X0241258Y0139116D01*
X0241295Y0138968D01*
X0241329Y0138818D01*
X0241359Y0138667D01*
X0241384Y0138516D01*
X0241406Y0138365D01*
X0241424Y0138212D01*
X0241438Y0138060D01*
X0241448Y0137907D01*
X0241454Y0137753D01*
X0241456Y0137600D01*
X0241454Y0137447D01*
X0241448Y0137293D01*
X0241438Y0137140D01*
X0241424Y0136988D01*
X0241406Y0136835D01*
X0241384Y0136684D01*
X0241359Y0136533D01*
X0241329Y0136382D01*
X0241295Y0136232D01*
X0241258Y0136084D01*
X0241217Y0135936D01*
X0241172Y0135790D01*
X0241123Y0135644D01*
X0241070Y0135500D01*
X0241014Y0135358D01*
X0240954Y0135217D01*
X0240890Y0135077D01*
X0240823Y0134939D01*
X0240752Y0134803D01*
X0240677Y0134669D01*
X0240600Y0134537D01*
X0240518Y0134407D01*
X0240434Y0134279D01*
X0240346Y0134153D01*
X0240255Y0134030D01*
X0240161Y0133909D01*
X0240063Y0133791D01*
X0239963Y0133675D01*
X0239859Y0133562D01*
X0239753Y0133451D01*
X0239644Y0133343D01*
X0239532Y0133238D01*
X0239418Y0133137D01*
X0239300Y0133038D01*
X0239181Y0132942D01*
X0239059Y0132849D01*
X0238934Y0132760D01*
X0238807Y0132673D01*
X0238678Y0132591D01*
X0238547Y0132511D01*
X0238414Y0132435D01*
X0238279Y0132362D01*
X0238142Y0132293D01*
X0238003Y0132228D01*
X0237863Y0132166D01*
X0237721Y0132108D01*
X0237578Y0132053D01*
X0237433Y0132002D01*
X0237287Y0131955D01*
X0237140Y0131912D01*
X0236992Y0131873D01*
X0236843Y0131837D01*
X0236693Y0131806D01*
X0236542Y0131778D01*
X0236391Y0131754D01*
X0236238Y0131734D01*
X0236086Y0131718D01*
X0235933Y0131706D01*
X0235780Y0131698D01*
X0235627Y0131694D01*
X0235473Y0131694D01*
X0235320Y0131698D01*
X0235167Y0131706D01*
X0235014Y0131718D01*
X0234862Y0131734D01*
X0234709Y0131754D01*
X0234558Y0131778D01*
X0234407Y0131806D01*
X0234257Y0131837D01*
X0234108Y0131873D01*
X0233960Y0131912D01*
X0233813Y0131955D01*
X0233667Y0132002D01*
X0233522Y0132053D01*
X0233379Y0132108D01*
X0233237Y0132166D01*
X0233097Y0132228D01*
X0232958Y0132293D01*
X0232821Y0132362D01*
X0232686Y0132435D01*
X0232553Y0132511D01*
X0232422Y0132591D01*
X0232293Y0132673D01*
X0232166Y0132760D01*
X0232041Y0132849D01*
X0231919Y0132942D01*
X0231800Y0133038D01*
X0231682Y0133137D01*
X0231568Y0133238D01*
X0231456Y0133343D01*
X0231347Y0133451D01*
X0231241Y0133562D01*
X0231137Y0133675D01*
X0231037Y0133791D01*
X0230939Y0133909D01*
X0230845Y0134030D01*
X0230754Y0134153D01*
X0230666Y0134279D01*
X0230582Y0134407D01*
X0230500Y0134537D01*
X0230423Y0134669D01*
X0230348Y0134803D01*
X0230277Y0134939D01*
X0230210Y0135077D01*
X0230146Y0135217D01*
X0230086Y0135358D01*
X0230030Y0135500D01*
X0229977Y0135644D01*
X0229928Y0135790D01*
X0229883Y0135936D01*
X0229842Y0136084D01*
X0229805Y0136232D01*
X0229771Y0136382D01*
X0229741Y0136533D01*
X0229716Y0136684D01*
X0229694Y0136835D01*
X0229676Y0136988D01*
X0229662Y0137140D01*
X0229652Y0137293D01*
X0229646Y0137447D01*
X0229644Y0137600D01*
D15*
X0232800Y0140100D02*
X0232881Y0140186D01*
X0232964Y0140270D01*
X0233051Y0140351D01*
X0233140Y0140429D01*
X0233232Y0140504D01*
X0233326Y0140575D01*
X0233422Y0140644D01*
X0233521Y0140709D01*
X0233621Y0140771D01*
X0233724Y0140830D01*
X0233829Y0140885D01*
X0233935Y0140936D01*
X0234044Y0140984D01*
X0234153Y0141029D01*
X0234264Y0141069D01*
X0234377Y0141106D01*
X0234490Y0141139D01*
X0234605Y0141169D01*
X0234720Y0141194D01*
X0234837Y0141216D01*
X0234954Y0141233D01*
X0235071Y0141247D01*
X0235189Y0141257D01*
X0235307Y0141263D01*
X0235426Y0141265D01*
X0235544Y0141263D01*
X0235662Y0141257D01*
X0235780Y0141247D01*
X0235897Y0141233D01*
X0236014Y0141216D01*
X0236131Y0141194D01*
X0236246Y0141168D01*
X0236361Y0141139D01*
X0236474Y0141106D01*
X0236587Y0141069D01*
X0236698Y0141028D01*
X0236808Y0140984D01*
X0236916Y0140936D01*
X0237022Y0140884D01*
X0237127Y0140829D01*
X0237230Y0140771D01*
X0237330Y0140709D01*
X0237429Y0140643D01*
X0237525Y0140575D01*
X0237619Y0140503D01*
X0237711Y0140428D01*
X0237800Y0140350D01*
X0237886Y0140269D01*
X0237970Y0140186D01*
X0238051Y0140099D01*
X0238129Y0140010D01*
X0238204Y0139918D01*
X0238275Y0139824D01*
X0238344Y0139728D01*
X0238409Y0139629D01*
X0238471Y0139529D01*
X0238530Y0139426D01*
X0238585Y0139321D01*
X0238636Y0139215D01*
X0238684Y0139106D01*
X0238729Y0138997D01*
X0238769Y0138886D01*
X0238806Y0138773D01*
X0238839Y0138660D01*
X0238869Y0138545D01*
X0238894Y0138430D01*
X0238916Y0138313D01*
X0238933Y0138196D01*
X0238947Y0138079D01*
X0238957Y0137961D01*
X0238963Y0137843D01*
X0238965Y0137724D01*
X0238963Y0137606D01*
X0238957Y0137488D01*
X0238947Y0137370D01*
X0238933Y0137253D01*
X0238916Y0137136D01*
X0238894Y0137019D01*
X0238868Y0136904D01*
X0238839Y0136789D01*
X0238806Y0136676D01*
X0238769Y0136563D01*
X0238728Y0136452D01*
X0238684Y0136342D01*
X0238636Y0136234D01*
X0238584Y0136128D01*
X0238529Y0136023D01*
X0238471Y0135920D01*
X0238409Y0135820D01*
X0238343Y0135721D01*
X0238275Y0135625D01*
X0238203Y0135531D01*
X0238128Y0135439D01*
X0238050Y0135350D01*
X0237969Y0135264D01*
X0237886Y0135180D01*
X0237799Y0135099D01*
X0237710Y0135021D01*
X0237618Y0134946D01*
X0237524Y0134875D01*
X0237428Y0134806D01*
X0237329Y0134741D01*
X0237229Y0134679D01*
X0237126Y0134620D01*
X0237021Y0134565D01*
X0236915Y0134514D01*
X0236806Y0134466D01*
X0236697Y0134421D01*
X0236586Y0134381D01*
X0236473Y0134344D01*
X0236360Y0134311D01*
X0236245Y0134281D01*
X0236130Y0134256D01*
X0236013Y0134234D01*
X0235896Y0134217D01*
X0235779Y0134203D01*
X0235661Y0134193D01*
X0235543Y0134187D01*
X0235424Y0134185D01*
X0235306Y0134187D01*
X0235188Y0134193D01*
X0235070Y0134203D01*
X0234953Y0134217D01*
X0234836Y0134234D01*
X0234719Y0134256D01*
X0234604Y0134282D01*
X0234489Y0134311D01*
X0234376Y0134344D01*
X0234263Y0134381D01*
X0234152Y0134422D01*
X0234042Y0134466D01*
X0233934Y0134514D01*
X0233828Y0134566D01*
X0233723Y0134621D01*
X0233620Y0134679D01*
X0233520Y0134741D01*
X0233421Y0134807D01*
X0233325Y0134875D01*
X0233231Y0134947D01*
X0233139Y0135022D01*
X0233050Y0135100D01*
D16*
X0055500Y0151360D03*
X0055500Y0152984D03*
X0039407Y0159824D03*
X0038620Y0159874D03*
X0038423Y0155149D03*
X0037636Y0155100D03*
X0037144Y0149047D03*
X0038423Y0148998D03*
X0037439Y0142649D03*
X0035175Y0142748D03*
X0040096Y0142649D03*
X0038620Y0165139D03*
X0038423Y0165139D03*
X0038128Y0165139D03*
X0037439Y0165139D03*
X0043541Y0170848D03*
X0040589Y0171193D03*
X0038128Y0171291D03*
X0037931Y0171291D03*
X0037636Y0171291D03*
X0033699Y0171094D03*
X0033207Y0171045D03*
X0032715Y0181921D03*
X0032222Y0181921D03*
X0031730Y0181921D03*
X0031238Y0181921D03*
X0030746Y0181921D03*
X0030254Y0181921D03*
X0029762Y0181921D03*
X0029270Y0181921D03*
X0028778Y0181921D03*
X0028285Y0181921D03*
X0027793Y0181921D03*
X0027301Y0181921D03*
X0026809Y0181921D03*
X0026317Y0181921D03*
X0025825Y0181921D03*
X0025333Y0181921D03*
X0024841Y0181921D03*
X0024348Y0181921D03*
X0023955Y0181921D03*
X0023856Y0181921D03*
X0023463Y0181921D03*
X0023217Y0181921D03*
X0022970Y0181921D03*
X0013522Y0181921D03*
X0013030Y0181921D03*
X0012537Y0181921D03*
X0012045Y0181921D03*
X0009093Y0181921D03*
X0008600Y0181921D03*
X0008108Y0181921D03*
X0007616Y0181921D03*
X0006632Y0181921D03*
D17*
X0006730Y0181921D03*
X0006829Y0181921D03*
X0006927Y0181921D03*
X0007025Y0181921D03*
X0007271Y0181921D03*
X0007419Y0181921D03*
X0007518Y0181921D03*
X0007764Y0181921D03*
X0007862Y0181921D03*
X0007960Y0181921D03*
X0008206Y0181921D03*
X0008354Y0181921D03*
X0008502Y0181921D03*
X0008748Y0181921D03*
X0008846Y0181921D03*
X0008994Y0181921D03*
X0009240Y0181921D03*
X0009388Y0181921D03*
X0009486Y0181921D03*
X0009732Y0181921D03*
X0009880Y0181921D03*
X0009978Y0181921D03*
X0010273Y0181921D03*
X0010372Y0181921D03*
X0010519Y0181921D03*
X0010766Y0181921D03*
X0010864Y0181921D03*
X0011012Y0181921D03*
X0011159Y0181921D03*
X0011258Y0181921D03*
X0011405Y0181921D03*
X0011504Y0181921D03*
X0011651Y0181921D03*
X0011750Y0181921D03*
X0011897Y0181921D03*
X0012144Y0181921D03*
X0012291Y0181921D03*
X0012390Y0181921D03*
X0012636Y0181921D03*
X0012783Y0181921D03*
X0012931Y0181921D03*
X0013177Y0181921D03*
X0013275Y0181921D03*
X0013423Y0181921D03*
X0013669Y0181921D03*
X0013817Y0181921D03*
X0013915Y0181921D03*
X0014161Y0181921D03*
X0014309Y0181921D03*
X0014407Y0181921D03*
X0014703Y0181921D03*
X0014801Y0181921D03*
X0014949Y0181921D03*
X0015195Y0181921D03*
X0015293Y0181921D03*
X0015441Y0181921D03*
X0015588Y0181921D03*
X0015687Y0181921D03*
X0015834Y0181921D03*
X0015933Y0181921D03*
X0016081Y0181921D03*
X0016179Y0181921D03*
X0016327Y0181921D03*
X0016425Y0181921D03*
X0016573Y0181921D03*
X0016720Y0181921D03*
X0023118Y0181921D03*
X0023315Y0181921D03*
X0023561Y0181921D03*
X0023659Y0181921D03*
X0024053Y0181921D03*
X0024151Y0181921D03*
X0024250Y0181921D03*
X0024447Y0181921D03*
X0024545Y0181921D03*
X0024644Y0181921D03*
X0024742Y0181921D03*
X0024939Y0181921D03*
X0025037Y0181921D03*
X0025136Y0181921D03*
X0025234Y0181921D03*
X0025431Y0181921D03*
X0025529Y0181921D03*
X0025628Y0181921D03*
X0025726Y0181921D03*
X0025923Y0181921D03*
X0026021Y0181921D03*
X0026120Y0181921D03*
X0026218Y0181921D03*
X0026415Y0181921D03*
X0026514Y0181921D03*
X0026612Y0181921D03*
X0026710Y0181921D03*
X0026907Y0181921D03*
X0027006Y0181921D03*
X0027104Y0181921D03*
X0027203Y0181921D03*
X0027399Y0181921D03*
X0027498Y0181921D03*
X0027596Y0181921D03*
X0027695Y0181921D03*
X0027892Y0181921D03*
X0027990Y0181921D03*
X0028088Y0181921D03*
X0028187Y0181921D03*
X0028384Y0181921D03*
X0028482Y0181921D03*
X0028581Y0181921D03*
X0028679Y0181921D03*
X0028876Y0181921D03*
X0028974Y0181921D03*
X0029073Y0181921D03*
X0029171Y0181921D03*
X0029368Y0181921D03*
X0029466Y0181921D03*
X0029565Y0181921D03*
X0029663Y0181921D03*
X0029860Y0181921D03*
X0029958Y0181921D03*
X0030057Y0181921D03*
X0030155Y0181921D03*
X0030352Y0181921D03*
X0030451Y0181921D03*
X0030549Y0181921D03*
X0030647Y0181921D03*
X0030844Y0181921D03*
X0030943Y0181921D03*
X0031041Y0181921D03*
X0031140Y0181921D03*
X0031336Y0181921D03*
X0031435Y0181921D03*
X0031533Y0181921D03*
X0031632Y0181921D03*
X0031829Y0181921D03*
X0031927Y0181921D03*
X0032025Y0181921D03*
X0032124Y0181921D03*
X0032321Y0181921D03*
X0032419Y0181921D03*
X0032518Y0181921D03*
X0032616Y0181921D03*
X0033059Y0181921D03*
X0034043Y0171143D03*
X0034142Y0171143D03*
X0034634Y0171193D03*
X0034781Y0171193D03*
X0034880Y0171193D03*
X0034978Y0171193D03*
X0035470Y0171242D03*
X0035618Y0171242D03*
X0036897Y0171291D03*
X0037094Y0171291D03*
X0037390Y0171291D03*
X0037537Y0171291D03*
X0037832Y0171291D03*
X0038029Y0171291D03*
X0038374Y0171291D03*
X0038521Y0171291D03*
X0038669Y0171291D03*
X0038817Y0171291D03*
X0039801Y0171242D03*
X0039949Y0171242D03*
X0040736Y0171193D03*
X0041228Y0171143D03*
X0041769Y0171094D03*
X0042901Y0170946D03*
X0039358Y0165090D03*
X0038521Y0165139D03*
X0038275Y0165139D03*
X0037882Y0165139D03*
X0037685Y0165139D03*
X0037537Y0165139D03*
X0036307Y0165041D03*
X0032075Y0170897D03*
X0032370Y0170946D03*
X0033108Y0171045D03*
X0033551Y0171094D03*
X0036701Y0160070D03*
X0037045Y0160021D03*
X0037390Y0159972D03*
X0037832Y0159923D03*
X0038374Y0159874D03*
X0039654Y0159824D03*
X0039752Y0159824D03*
X0039850Y0159824D03*
X0039949Y0159824D03*
X0040047Y0159824D03*
X0040244Y0159824D03*
X0040342Y0159824D03*
X0040441Y0159824D03*
X0040539Y0159824D03*
X0040736Y0159824D03*
X0038571Y0155149D03*
X0037193Y0155051D03*
X0036455Y0154952D03*
X0036405Y0149145D03*
X0037291Y0149047D03*
X0038079Y0148998D03*
X0038177Y0148998D03*
X0038325Y0148998D03*
X0038521Y0148998D03*
X0039358Y0149047D03*
X0039506Y0149047D03*
X0039850Y0149096D03*
X0044230Y0152984D03*
X0044329Y0152984D03*
X0044821Y0152984D03*
X0045313Y0152984D03*
X0045805Y0152984D03*
X0046297Y0152984D03*
X0046789Y0152984D03*
X0047281Y0152984D03*
X0047773Y0152984D03*
X0048266Y0152984D03*
X0048758Y0152984D03*
X0049250Y0152984D03*
X0049742Y0152984D03*
X0050234Y0152984D03*
X0050726Y0152984D03*
X0051218Y0152984D03*
X0051710Y0152984D03*
X0052203Y0152984D03*
X0052695Y0152984D03*
X0053187Y0152984D03*
X0053679Y0152984D03*
X0054171Y0152984D03*
X0054418Y0152984D03*
X0054663Y0152984D03*
X0055155Y0152984D03*
X0043246Y0142895D03*
X0042311Y0142797D03*
X0041819Y0142748D03*
X0041031Y0142698D03*
X0039949Y0142649D03*
X0039850Y0142649D03*
X0037340Y0142649D03*
X0037094Y0142649D03*
X0035962Y0142698D03*
X0035864Y0142698D03*
X0035273Y0142748D03*
X0034043Y0142846D03*
X0033157Y0142944D03*
X0027399Y0144273D03*
X0026268Y0158053D03*
D18*
X0039727Y0142649D03*
X0053310Y0152984D03*
X0053556Y0152984D03*
D19*
X0051342Y0152984D03*
X0051095Y0152984D03*
X0050849Y0152984D03*
X0038645Y0148998D03*
X0039580Y0142649D03*
X0042532Y0170996D03*
X0039580Y0171242D03*
D20*
X0039407Y0142649D03*
X0037931Y0142649D03*
D21*
X0038669Y0142649D03*
D22*
X0037734Y0142649D03*
D23*
X0037562Y0142649D03*
X0036085Y0142698D03*
X0034560Y0142797D03*
X0040908Y0142698D03*
X0037857Y0148998D03*
X0044452Y0152984D03*
X0044698Y0152984D03*
X0044944Y0152984D03*
X0045190Y0152984D03*
X0045436Y0152984D03*
X0045682Y0152984D03*
X0045928Y0152984D03*
X0046174Y0152984D03*
X0046420Y0152984D03*
X0046666Y0152984D03*
X0046912Y0152984D03*
X0047158Y0152984D03*
X0047404Y0152984D03*
X0047650Y0152984D03*
X0047896Y0152984D03*
X0048143Y0152984D03*
X0048389Y0152984D03*
X0048635Y0152984D03*
X0048881Y0152984D03*
X0049127Y0152984D03*
X0049373Y0152984D03*
X0049619Y0152984D03*
X0049865Y0152984D03*
X0050111Y0152984D03*
X0050357Y0152984D03*
X0050603Y0152984D03*
X0051587Y0152984D03*
X0051833Y0152984D03*
X0052080Y0152984D03*
X0052326Y0152984D03*
X0052572Y0152984D03*
X0052818Y0152984D03*
X0053064Y0152984D03*
X0053802Y0152984D03*
X0054048Y0152984D03*
X0054294Y0152984D03*
X0054540Y0152984D03*
X0054786Y0152984D03*
X0055032Y0152984D03*
X0055278Y0152984D03*
X0039530Y0159824D03*
X0039284Y0159824D03*
X0037316Y0165139D03*
X0032887Y0181921D03*
D24*
X0023758Y0181921D03*
X0015047Y0181921D03*
X0014555Y0181921D03*
X0014063Y0181921D03*
X0010618Y0181921D03*
X0010126Y0181921D03*
X0009634Y0181921D03*
X0007173Y0181921D03*
X0032764Y0170996D03*
X0035717Y0171242D03*
X0037242Y0171291D03*
X0037734Y0171291D03*
X0038226Y0171291D03*
X0039703Y0171242D03*
X0041130Y0171143D03*
X0042114Y0171045D03*
X0036750Y0165090D03*
X0036209Y0160169D03*
X0037734Y0159923D03*
X0038472Y0159874D03*
X0040146Y0159824D03*
X0040638Y0159824D03*
X0044575Y0152984D03*
X0045067Y0152984D03*
X0045559Y0152984D03*
X0046051Y0152984D03*
X0046543Y0152984D03*
X0047035Y0152984D03*
X0047528Y0152984D03*
X0048020Y0152984D03*
X0048512Y0152984D03*
X0049004Y0152984D03*
X0049496Y0152984D03*
X0049988Y0152984D03*
X0050480Y0152984D03*
X0050972Y0152984D03*
X0051465Y0152984D03*
X0051957Y0152984D03*
X0052449Y0152984D03*
X0052941Y0152984D03*
X0053433Y0152984D03*
X0053925Y0152984D03*
X0054909Y0152984D03*
X0055402Y0152984D03*
X0037980Y0148998D03*
X0036750Y0149096D03*
X0037242Y0142649D03*
D25*
X0038497Y0142698D03*
D26*
X0038546Y0142748D03*
D27*
X0038448Y0142797D03*
D28*
X0038472Y0142846D03*
D29*
X0038349Y0142895D03*
X0015072Y0170454D03*
X0015170Y0170553D03*
X0014186Y0179313D03*
X0014087Y0179411D03*
X0014038Y0179460D03*
X0013891Y0179608D03*
X0025800Y0179559D03*
D30*
X0011848Y0166911D03*
X0038423Y0142944D03*
D31*
X0038325Y0142994D03*
D32*
X0038374Y0143043D03*
X0028531Y0160809D03*
X0048266Y0164106D03*
D33*
X0038300Y0143092D03*
D34*
X0038325Y0143141D03*
X0048512Y0149637D03*
X0027645Y0154214D03*
D35*
X0027965Y0149637D03*
X0038300Y0143191D03*
X0048143Y0149391D03*
X0019944Y0173358D03*
D36*
X0030279Y0159972D03*
X0038300Y0143240D03*
D37*
X0038275Y0143289D03*
X0033502Y0158200D03*
D38*
X0046223Y0165139D03*
X0038300Y0143338D03*
D39*
X0038226Y0143387D03*
X0019968Y0172423D03*
X0019919Y0176754D03*
D40*
X0038251Y0143437D03*
D41*
X0038226Y0143486D03*
D42*
X0038251Y0143535D03*
X0029983Y0155149D03*
X0032493Y0159234D03*
D43*
X0038202Y0143584D03*
D44*
X0038226Y0143633D03*
X0019968Y0171439D03*
D45*
X0019919Y0177836D03*
X0031878Y0156576D03*
X0038227Y0143683D03*
D46*
X0038202Y0143732D03*
X0031755Y0156330D03*
X0019993Y0171094D03*
D47*
X0019968Y0170946D03*
X0019919Y0178181D03*
X0038177Y0143781D03*
D48*
X0038202Y0143830D03*
X0031410Y0155641D03*
D49*
X0038202Y0143880D03*
D50*
X0038202Y0143929D03*
D51*
X0038152Y0143978D03*
D52*
X0038177Y0144027D03*
D53*
X0038152Y0144076D03*
D54*
X0038177Y0144126D03*
D55*
X0038152Y0144175D03*
D56*
X0038152Y0144224D03*
D57*
X0038177Y0144273D03*
D58*
X0038153Y0144322D03*
D59*
X0038152Y0144372D03*
D60*
X0038152Y0144421D03*
D61*
X0038103Y0144470D03*
D62*
X0038153Y0144519D03*
D63*
X0038128Y0144569D03*
D64*
X0038152Y0144618D03*
D65*
X0038103Y0144667D03*
D66*
X0038128Y0144716D03*
D67*
X0038103Y0144765D03*
D68*
X0038128Y0144815D03*
D69*
X0038103Y0144864D03*
D70*
X0038128Y0144913D03*
D71*
X0038079Y0144962D03*
D72*
X0038128Y0145011D03*
D73*
X0038079Y0145061D03*
D74*
X0038103Y0145110D03*
D75*
X0038079Y0145159D03*
D76*
X0038103Y0145208D03*
D77*
X0038079Y0145257D03*
D78*
X0038103Y0145307D03*
D79*
X0038079Y0145356D03*
D80*
X0038103Y0145405D03*
D81*
X0038079Y0145454D03*
D82*
X0038079Y0145504D03*
D83*
X0038103Y0145553D03*
D84*
X0038079Y0145602D03*
D85*
X0038079Y0145651D03*
D86*
X0038079Y0145700D03*
X0034732Y0169519D03*
D87*
X0038079Y0145750D03*
D88*
X0038079Y0145799D03*
D89*
X0038079Y0145848D03*
X0035273Y0169175D03*
D90*
X0038079Y0145897D03*
D91*
X0038079Y0145946D03*
D92*
X0038079Y0145996D03*
X0035667Y0168880D03*
D93*
X0038054Y0146045D03*
D94*
X0038079Y0146094D03*
D95*
X0038079Y0146143D03*
D96*
X0038079Y0146193D03*
X0036405Y0168289D03*
D97*
X0038054Y0146242D03*
D98*
X0038079Y0146291D03*
X0036848Y0167895D03*
D99*
X0036897Y0167846D03*
X0036947Y0167797D03*
X0038079Y0146340D03*
D100*
X0038054Y0146389D03*
X0037316Y0167452D03*
X0037217Y0167551D03*
D101*
X0038054Y0146439D03*
D102*
X0038079Y0146488D03*
D103*
X0038079Y0146537D03*
D104*
X0038079Y0146586D03*
D105*
X0038054Y0146635D03*
X0037808Y0166714D03*
D106*
X0038079Y0146685D03*
D107*
X0038054Y0146734D03*
D108*
X0038079Y0146783D03*
D109*
X0038054Y0146832D03*
X0037808Y0166468D03*
D110*
X0038079Y0146881D03*
D111*
X0038054Y0146931D03*
D112*
X0038079Y0146980D03*
D113*
X0038054Y0147029D03*
D114*
X0038079Y0147078D03*
D115*
X0038054Y0147128D03*
D116*
X0038079Y0147177D03*
X0037882Y0165927D03*
D117*
X0038054Y0147226D03*
D118*
X0038079Y0147275D03*
X0038079Y0147324D03*
D119*
X0038054Y0147374D03*
D120*
X0038054Y0147423D03*
D121*
X0038079Y0147472D03*
X0037931Y0165484D03*
X0037882Y0165533D03*
D122*
X0038079Y0147521D03*
D123*
X0038079Y0147570D03*
X0037931Y0165287D03*
X0037931Y0165336D03*
D124*
X0038054Y0147620D03*
D125*
X0038103Y0147669D03*
D126*
X0038054Y0147718D03*
D127*
X0038079Y0147767D03*
D128*
X0038054Y0147817D03*
D129*
X0038103Y0147866D03*
D130*
X0038054Y0147915D03*
D131*
X0038079Y0147964D03*
D132*
X0038079Y0148013D03*
D133*
X0038103Y0148063D03*
D134*
X0038054Y0148112D03*
D135*
X0038079Y0148161D03*
D136*
X0038054Y0148210D03*
D137*
X0038079Y0148259D03*
D138*
X0038103Y0148309D03*
D139*
X0038079Y0148358D03*
X0038079Y0148407D03*
D140*
X0038079Y0148456D03*
D141*
X0038054Y0148506D03*
D142*
X0038103Y0148555D03*
D143*
X0038079Y0148604D03*
X0038079Y0148653D03*
D144*
X0038079Y0148702D03*
X0038079Y0148752D03*
D145*
X0038103Y0148801D03*
D146*
X0038103Y0148850D03*
D147*
X0038079Y0148899D03*
D148*
X0038103Y0148948D03*
D149*
X0046740Y0148998D03*
X0029565Y0155100D03*
X0019968Y0172177D03*
D150*
X0029590Y0148998D03*
D151*
X0033280Y0158397D03*
X0037660Y0170504D03*
X0019944Y0172570D03*
X0047158Y0149047D03*
D152*
X0029245Y0149047D03*
D153*
X0047355Y0149096D03*
X0019944Y0172718D03*
X0019944Y0176458D03*
D154*
X0029024Y0149096D03*
D155*
X0047577Y0149145D03*
D156*
X0033379Y0157954D03*
X0030820Y0159874D03*
X0028851Y0149145D03*
X0019944Y0176507D03*
D157*
X0019968Y0176212D03*
X0037685Y0170602D03*
X0028482Y0149293D03*
X0047675Y0149194D03*
D158*
X0028679Y0149194D03*
D159*
X0047823Y0149244D03*
X0019968Y0176065D03*
D160*
X0019944Y0176311D03*
X0019944Y0172866D03*
X0033576Y0158151D03*
X0028605Y0149244D03*
D161*
X0047921Y0149293D03*
D162*
X0048069Y0149342D03*
X0028088Y0149539D03*
X0030057Y0160021D03*
D163*
X0029146Y0165041D03*
X0019944Y0173063D03*
X0028408Y0149342D03*
D164*
X0028285Y0149391D03*
X0028433Y0154756D03*
X0019968Y0173112D03*
X0019968Y0176114D03*
D165*
X0019968Y0175769D03*
X0029909Y0160070D03*
X0027941Y0154460D03*
X0027842Y0149736D03*
X0027892Y0149687D03*
X0048216Y0149441D03*
D166*
X0028236Y0149441D03*
X0028334Y0154706D03*
X0029073Y0164992D03*
X0019968Y0176015D03*
D167*
X0048290Y0149490D03*
D168*
X0028138Y0149490D03*
X0028236Y0154657D03*
D169*
X0027769Y0154313D03*
X0028606Y0164795D03*
X0019944Y0173555D03*
X0048389Y0149539D03*
D170*
X0048438Y0149588D03*
X0047306Y0164844D03*
X0029589Y0160169D03*
X0027719Y0154263D03*
X0019944Y0173604D03*
X0019944Y0175622D03*
D171*
X0019944Y0173309D03*
X0028900Y0164943D03*
X0028162Y0154608D03*
X0028015Y0149588D03*
D172*
X0027523Y0150080D03*
X0048586Y0149687D03*
D173*
X0048635Y0149736D03*
X0048684Y0149785D03*
X0027375Y0150277D03*
X0027375Y0150326D03*
X0027326Y0150376D03*
X0019944Y0173752D03*
D174*
X0019968Y0175720D03*
X0027793Y0149785D03*
D175*
X0027449Y0153968D03*
X0048758Y0149834D03*
D176*
X0027744Y0149834D03*
X0027695Y0149883D03*
X0027842Y0154362D03*
D177*
X0027301Y0153771D03*
X0027301Y0153722D03*
X0029269Y0160317D03*
X0028285Y0164549D03*
X0047675Y0164647D03*
X0048807Y0149883D03*
D178*
X0048831Y0149933D03*
X0027178Y0150671D03*
X0027178Y0150720D03*
X0019944Y0173850D03*
D179*
X0027670Y0149933D03*
D180*
X0027129Y0150819D03*
X0027129Y0150868D03*
X0027080Y0151015D03*
X0027129Y0153378D03*
X0027227Y0153574D03*
X0048881Y0149982D03*
X0048930Y0150031D03*
X0019944Y0173899D03*
D181*
X0027596Y0149982D03*
D182*
X0027547Y0150031D03*
X0028531Y0164746D03*
D183*
X0028187Y0164450D03*
X0029073Y0160415D03*
X0027104Y0153328D03*
X0027006Y0151163D03*
X0027055Y0150966D03*
X0027104Y0150917D03*
X0048955Y0150080D03*
X0019968Y0175326D03*
D184*
X0019944Y0173948D03*
X0027178Y0153476D03*
X0027080Y0153279D03*
X0049028Y0150130D03*
D185*
X0028482Y0164696D03*
X0027498Y0150130D03*
D186*
X0027006Y0151261D03*
X0027006Y0151360D03*
X0027006Y0152885D03*
X0027006Y0152984D03*
X0037685Y0170799D03*
X0047872Y0164500D03*
X0049053Y0150179D03*
X0019968Y0175277D03*
D187*
X0027473Y0150179D03*
D188*
X0026956Y0151458D03*
X0026956Y0151606D03*
X0026956Y0151803D03*
X0026956Y0152393D03*
X0026956Y0152541D03*
X0026956Y0152639D03*
X0026956Y0152738D03*
X0026956Y0152836D03*
X0028925Y0160513D03*
X0019919Y0173998D03*
X0019968Y0175228D03*
X0049102Y0150277D03*
X0049102Y0150228D03*
D189*
X0027449Y0150228D03*
X0019969Y0175523D03*
D190*
X0028015Y0164254D03*
X0028851Y0160563D03*
X0049176Y0150326D03*
D191*
X0049201Y0150376D03*
X0049201Y0150425D03*
X0048019Y0164352D03*
X0019968Y0175179D03*
D192*
X0019944Y0173801D03*
X0028359Y0164598D03*
X0027326Y0150425D03*
X0047601Y0164696D03*
D193*
X0049299Y0150523D03*
X0049250Y0150474D03*
X0027892Y0164057D03*
D194*
X0027277Y0150474D03*
D195*
X0027252Y0150523D03*
X0027350Y0153820D03*
D196*
X0049324Y0150622D03*
X0049324Y0150572D03*
X0048143Y0164254D03*
X0019993Y0175130D03*
D197*
X0027227Y0153624D03*
X0027227Y0150622D03*
X0027227Y0150572D03*
D198*
X0028630Y0160710D03*
X0028581Y0160759D03*
X0027842Y0163958D03*
X0019919Y0174145D03*
X0019968Y0175080D03*
X0048167Y0164204D03*
X0048216Y0164155D03*
X0049348Y0150671D03*
D199*
X0049398Y0150720D03*
X0049398Y0150769D03*
D200*
X0047773Y0164598D03*
X0028236Y0164500D03*
X0027252Y0153673D03*
X0027153Y0150769D03*
X0019968Y0175376D03*
D201*
X0027793Y0163860D03*
X0027793Y0163811D03*
X0049447Y0150868D03*
X0049447Y0150819D03*
D202*
X0049520Y0150917D03*
X0049520Y0151015D03*
X0049570Y0151114D03*
X0048339Y0164007D03*
X0048290Y0164057D03*
X0028457Y0160858D03*
X0027719Y0163663D03*
X0027769Y0163761D03*
X0019944Y0174244D03*
X0019993Y0175031D03*
D203*
X0049496Y0150966D03*
D204*
X0049545Y0151065D03*
X0048364Y0163958D03*
X0027744Y0163712D03*
D205*
X0027055Y0153230D03*
X0027055Y0153181D03*
X0027055Y0153131D03*
X0027055Y0151065D03*
D206*
X0027031Y0151114D03*
X0027031Y0151212D03*
X0027031Y0153082D03*
X0028999Y0160464D03*
D207*
X0028359Y0160956D03*
X0028310Y0161006D03*
X0027670Y0163515D03*
X0027719Y0163614D03*
X0048389Y0163909D03*
X0049570Y0151212D03*
X0049570Y0151163D03*
D208*
X0049594Y0151261D03*
X0049644Y0151311D03*
X0049644Y0151409D03*
X0048462Y0163811D03*
X0028285Y0161055D03*
X0028187Y0161153D03*
X0027645Y0163368D03*
X0027695Y0163466D03*
X0027695Y0163565D03*
X0019919Y0174293D03*
D209*
X0047798Y0164549D03*
X0026981Y0151409D03*
X0026981Y0151311D03*
D210*
X0027621Y0163220D03*
X0027670Y0163417D03*
X0019993Y0174933D03*
X0048438Y0163860D03*
X0048487Y0163761D03*
X0048536Y0163712D03*
X0049668Y0151507D03*
X0049668Y0151458D03*
X0049619Y0151360D03*
D211*
X0028089Y0164352D03*
X0026957Y0152787D03*
X0026957Y0151557D03*
X0026957Y0151507D03*
D212*
X0028138Y0161202D03*
X0028138Y0161252D03*
X0027596Y0162974D03*
X0027645Y0163269D03*
X0027645Y0163319D03*
X0019919Y0174342D03*
X0049693Y0151557D03*
D213*
X0049718Y0151606D03*
X0049718Y0151655D03*
D214*
X0026932Y0151655D03*
X0026932Y0151704D03*
X0026932Y0151754D03*
X0026932Y0151901D03*
X0026932Y0151950D03*
X0026932Y0152098D03*
X0026932Y0152295D03*
X0026932Y0152492D03*
X0026932Y0152590D03*
X0026932Y0152689D03*
D215*
X0049742Y0151852D03*
X0049742Y0151754D03*
X0049742Y0151704D03*
D216*
X0049767Y0151803D03*
X0049767Y0151950D03*
X0048635Y0163515D03*
D217*
X0026907Y0152443D03*
X0026907Y0152344D03*
X0026907Y0152246D03*
X0026907Y0152147D03*
X0026907Y0152049D03*
X0026907Y0152000D03*
X0026907Y0151852D03*
D218*
X0027990Y0161448D03*
X0027941Y0161498D03*
X0027941Y0161547D03*
X0027892Y0161596D03*
X0027892Y0161645D03*
X0027793Y0161793D03*
X0027596Y0162679D03*
X0027596Y0162826D03*
X0049792Y0152147D03*
X0049792Y0152098D03*
X0049792Y0152049D03*
X0049792Y0152000D03*
X0049792Y0151901D03*
D219*
X0049816Y0152196D03*
X0049816Y0152246D03*
X0049816Y0152295D03*
X0049816Y0152344D03*
X0049816Y0152443D03*
X0048684Y0163368D03*
D220*
X0047995Y0164401D03*
X0026932Y0152196D03*
X0019944Y0174047D03*
D221*
X0048709Y0163319D03*
X0048709Y0163269D03*
X0049841Y0152836D03*
X0049841Y0152738D03*
X0049841Y0152639D03*
X0049841Y0152590D03*
X0049841Y0152541D03*
X0049841Y0152492D03*
X0049841Y0152393D03*
D222*
X0049865Y0152689D03*
X0049865Y0152787D03*
X0049865Y0152885D03*
X0049865Y0152935D03*
X0048782Y0163072D03*
X0048782Y0163122D03*
D223*
X0047946Y0164450D03*
X0028064Y0164303D03*
X0027030Y0153033D03*
X0026981Y0152935D03*
D224*
X0027154Y0153427D03*
X0028138Y0164401D03*
D225*
X0027178Y0153525D03*
D226*
X0027400Y0153870D03*
X0027400Y0153919D03*
D227*
X0027498Y0154017D03*
X0027547Y0154067D03*
X0029368Y0160267D03*
X0028384Y0164647D03*
D228*
X0027547Y0154116D03*
D229*
X0027621Y0154165D03*
X0047454Y0164795D03*
X0019944Y0173653D03*
X0019993Y0175572D03*
D230*
X0019944Y0173506D03*
X0028704Y0164844D03*
X0029737Y0160120D03*
X0027867Y0154411D03*
X0047257Y0164893D03*
D231*
X0028015Y0154509D03*
D232*
X0028089Y0154559D03*
D233*
X0028556Y0154805D03*
X0019944Y0173013D03*
X0019944Y0176163D03*
D234*
X0028679Y0154854D03*
D235*
X0028802Y0154903D03*
X0019944Y0176360D03*
D236*
X0033403Y0158299D03*
X0028925Y0154952D03*
D237*
X0029122Y0155002D03*
X0033206Y0157856D03*
X0019968Y0176606D03*
D238*
X0033083Y0157757D03*
X0029343Y0155051D03*
D239*
X0031238Y0155198D03*
D240*
X0031238Y0155248D03*
X0031287Y0155297D03*
D241*
X0031312Y0155346D03*
D242*
X0031287Y0155395D03*
D243*
X0031336Y0155444D03*
X0031336Y0155494D03*
D244*
X0031386Y0155543D03*
D245*
X0031361Y0155592D03*
D246*
X0031435Y0155691D03*
D247*
X0031435Y0155740D03*
X0031484Y0155789D03*
X0031484Y0155838D03*
D248*
X0031509Y0155887D03*
D249*
X0031533Y0155937D03*
D250*
X0031558Y0155986D03*
D251*
X0031607Y0156035D03*
D252*
X0031582Y0156084D03*
X0019919Y0178131D03*
D253*
X0031632Y0156133D03*
D254*
X0031681Y0156183D03*
D255*
X0031656Y0156232D03*
D256*
X0031730Y0156281D03*
X0019919Y0178033D03*
D257*
X0031755Y0156380D03*
D258*
X0031829Y0156429D03*
X0031829Y0156478D03*
X0019968Y0171143D03*
X0019919Y0177935D03*
D259*
X0031878Y0156527D03*
D260*
X0031952Y0156626D03*
D261*
X0031976Y0156675D03*
D262*
X0032001Y0156724D03*
D263*
X0032050Y0156773D03*
X0019895Y0177738D03*
D264*
X0019944Y0177689D03*
X0032099Y0156822D03*
D265*
X0032099Y0156872D03*
D266*
X0032173Y0156921D03*
X0032173Y0159726D03*
X0032173Y0159775D03*
D267*
X0032198Y0156970D03*
D268*
X0032247Y0157019D03*
X0019944Y0177541D03*
D269*
X0032272Y0157069D03*
D270*
X0032345Y0157118D03*
X0032345Y0159431D03*
X0019993Y0171685D03*
D271*
X0032370Y0157167D03*
D272*
X0032419Y0157216D03*
X0032468Y0157265D03*
X0032468Y0159283D03*
D273*
X0032542Y0157315D03*
D274*
X0032567Y0157364D03*
X0019968Y0171931D03*
X0019919Y0177196D03*
D275*
X0032641Y0157413D03*
D276*
X0032690Y0157462D03*
X0032690Y0158988D03*
X0019944Y0177147D03*
D277*
X0019919Y0177049D03*
X0019968Y0172078D03*
X0032764Y0158889D03*
X0032764Y0157511D03*
D278*
X0032788Y0157561D03*
X0032788Y0158840D03*
X0019944Y0177000D03*
D279*
X0019944Y0176950D03*
X0032887Y0157610D03*
D280*
X0032936Y0157659D03*
X0019944Y0176901D03*
D281*
X0019944Y0176803D03*
X0032985Y0157708D03*
D282*
X0033157Y0157807D03*
X0033157Y0158496D03*
X0019968Y0172472D03*
X0019968Y0176704D03*
D283*
X0019968Y0172620D03*
X0033305Y0157905D03*
D284*
X0033477Y0158004D03*
X0037611Y0170553D03*
D285*
X0033576Y0158053D03*
D286*
X0033625Y0158102D03*
X0019944Y0172915D03*
X0019944Y0176261D03*
D287*
X0033453Y0158250D03*
D288*
X0033305Y0158348D03*
X0019968Y0172669D03*
D289*
X0033231Y0158446D03*
D290*
X0033084Y0158545D03*
D291*
X0033059Y0158594D03*
X0037636Y0170454D03*
X0019968Y0172374D03*
D292*
X0033010Y0158643D03*
D293*
X0032936Y0158693D03*
X0019944Y0176852D03*
D294*
X0019968Y0172226D03*
X0032911Y0158742D03*
D295*
X0032862Y0158791D03*
D296*
X0032739Y0158939D03*
X0019944Y0177098D03*
D297*
X0019968Y0171980D03*
X0032616Y0159037D03*
D298*
X0032616Y0159086D03*
D299*
X0032567Y0159135D03*
X0032518Y0159185D03*
X0019968Y0171881D03*
D300*
X0032395Y0159332D03*
D301*
X0032394Y0159381D03*
X0019944Y0177393D03*
D302*
X0019919Y0177443D03*
X0032321Y0159480D03*
D303*
X0032296Y0159529D03*
D304*
X0032271Y0159578D03*
X0032222Y0159628D03*
X0019968Y0171586D03*
D305*
X0019919Y0177590D03*
X0032222Y0159677D03*
D306*
X0031288Y0159824D03*
D307*
X0030475Y0159923D03*
D308*
X0029491Y0160218D03*
X0019944Y0173702D03*
X0047503Y0164746D03*
D309*
X0029171Y0160366D03*
D310*
X0028753Y0160612D03*
X0028704Y0160661D03*
X0019944Y0174096D03*
X0048093Y0164303D03*
D311*
X0028408Y0160907D03*
D312*
X0028236Y0161104D03*
D313*
X0028039Y0161301D03*
D314*
X0028064Y0161350D03*
X0027621Y0162925D03*
X0027621Y0163023D03*
X0027621Y0163072D03*
X0027621Y0163122D03*
X0027621Y0163171D03*
X0019944Y0174391D03*
X0019993Y0174883D03*
X0048536Y0163663D03*
X0048585Y0163614D03*
X0048585Y0163565D03*
D315*
X0028015Y0161399D03*
D316*
X0027867Y0161694D03*
X0027769Y0161891D03*
X0027769Y0161941D03*
X0027670Y0162236D03*
X0027670Y0162334D03*
X0048635Y0163466D03*
D317*
X0048758Y0163220D03*
X0048758Y0163171D03*
X0048807Y0162974D03*
X0027842Y0161744D03*
X0027793Y0161842D03*
X0027744Y0161990D03*
X0027645Y0162383D03*
X0019919Y0174441D03*
X0019968Y0174834D03*
D318*
X0027621Y0162876D03*
X0027621Y0162777D03*
X0027621Y0162630D03*
X0027621Y0162580D03*
X0027621Y0162531D03*
X0027621Y0162482D03*
X0027719Y0162088D03*
X0027719Y0162039D03*
D319*
X0027695Y0162137D03*
X0027695Y0162187D03*
X0027695Y0162285D03*
D320*
X0054442Y0162187D03*
D321*
X0048831Y0162187D03*
D322*
X0048905Y0162285D03*
X0048955Y0162236D03*
X0048955Y0162334D03*
X0048905Y0162383D03*
X0048905Y0162482D03*
X0048905Y0162630D03*
D323*
X0048881Y0162580D03*
X0048930Y0162531D03*
X0048930Y0162433D03*
X0048881Y0162728D03*
X0019944Y0174539D03*
X0019993Y0174736D03*
D324*
X0027646Y0162728D03*
X0027646Y0162433D03*
D325*
X0019919Y0174490D03*
X0048856Y0162876D03*
X0048856Y0162777D03*
X0048856Y0162679D03*
D326*
X0048832Y0162826D03*
X0048832Y0162925D03*
D327*
X0048807Y0163023D03*
D328*
X0048659Y0163417D03*
D329*
X0027818Y0163909D03*
X0019944Y0174194D03*
D330*
X0027892Y0164007D03*
D331*
X0027941Y0164106D03*
D332*
X0027966Y0164155D03*
D333*
X0027990Y0164204D03*
D334*
X0028802Y0164893D03*
X0019944Y0173407D03*
X0019944Y0175819D03*
D335*
X0047084Y0164943D03*
D336*
X0046986Y0164992D03*
D337*
X0046765Y0165041D03*
D338*
X0046617Y0165090D03*
D339*
X0029417Y0165090D03*
D340*
X0029663Y0165139D03*
D341*
X0037956Y0165189D03*
D342*
X0037931Y0165238D03*
D343*
X0037906Y0165385D03*
X0037906Y0165435D03*
D344*
X0037906Y0165582D03*
D345*
X0037906Y0165631D03*
D346*
X0037882Y0165681D03*
X0037882Y0165730D03*
D347*
X0037882Y0165779D03*
X0037882Y0165828D03*
D348*
X0037882Y0165878D03*
D349*
X0037857Y0165976D03*
D350*
X0037882Y0166025D03*
D351*
X0037857Y0166074D03*
D352*
X0037857Y0166124D03*
D353*
X0037832Y0166173D03*
D354*
X0037857Y0166222D03*
D355*
X0037857Y0166271D03*
D356*
X0037832Y0166320D03*
D357*
X0037833Y0166370D03*
D358*
X0037832Y0166419D03*
D359*
X0037808Y0166517D03*
D360*
X0037833Y0166567D03*
D361*
X0011627Y0166665D03*
X0011578Y0166616D03*
X0011528Y0166567D03*
D362*
X0037808Y0166616D03*
X0037808Y0166665D03*
D363*
X0037636Y0170946D03*
X0011750Y0166813D03*
X0011701Y0166763D03*
X0011651Y0166714D03*
D364*
X0037808Y0166763D03*
D365*
X0037808Y0166813D03*
D366*
X0037783Y0166862D03*
D367*
X0011799Y0166862D03*
D368*
X0037783Y0166911D03*
D369*
X0037783Y0166960D03*
X0037685Y0167059D03*
X0037636Y0167108D03*
D370*
X0012119Y0167206D03*
X0012070Y0167157D03*
X0012020Y0167108D03*
X0011922Y0167009D03*
X0011873Y0166960D03*
D371*
X0037709Y0167009D03*
D372*
X0012439Y0167551D03*
X0012193Y0167305D03*
X0012144Y0167256D03*
X0011996Y0167059D03*
D373*
X0037587Y0167157D03*
D374*
X0037513Y0167206D03*
X0037513Y0167256D03*
D375*
X0037439Y0167305D03*
D376*
X0037390Y0167354D03*
D377*
X0012267Y0167354D03*
D378*
X0037340Y0167403D03*
D379*
X0012291Y0167403D03*
D380*
X0012341Y0167452D03*
D381*
X0037242Y0167502D03*
D382*
X0012365Y0167502D03*
D383*
X0037094Y0167649D03*
X0037144Y0167600D03*
D384*
X0027965Y0181872D03*
X0011676Y0181872D03*
X0012513Y0167649D03*
X0012463Y0167600D03*
D385*
X0037070Y0167698D03*
D386*
X0027892Y0181773D03*
X0027941Y0181822D03*
X0011799Y0181773D03*
X0012832Y0167994D03*
X0012783Y0167944D03*
X0012734Y0167895D03*
X0012685Y0167846D03*
X0012636Y0167797D03*
X0012636Y0167748D03*
X0012537Y0167698D03*
D387*
X0036996Y0167748D03*
D388*
X0036799Y0167944D03*
D389*
X0036725Y0167994D03*
X0036676Y0168043D03*
D390*
X0027399Y0181232D03*
X0027498Y0181330D03*
X0027596Y0181478D03*
X0012242Y0181330D03*
X0012144Y0181380D03*
X0012144Y0181429D03*
X0012045Y0181527D03*
X0013226Y0168437D03*
X0013128Y0168338D03*
X0013079Y0168240D03*
X0012882Y0168043D03*
D391*
X0036651Y0168092D03*
D392*
X0027670Y0181527D03*
X0011922Y0181626D03*
X0013005Y0168191D03*
X0012906Y0168092D03*
D393*
X0036528Y0168191D03*
X0036578Y0168141D03*
D394*
X0027719Y0181576D03*
X0027769Y0181626D03*
X0012070Y0181478D03*
X0011971Y0181576D03*
X0011873Y0181675D03*
X0011824Y0181724D03*
X0013103Y0168289D03*
X0012956Y0168141D03*
D395*
X0036455Y0168240D03*
D396*
X0036331Y0168338D03*
D397*
X0036282Y0168387D03*
X0036233Y0168437D03*
D398*
X0027326Y0181183D03*
X0012513Y0181035D03*
X0012414Y0181133D03*
X0012365Y0181183D03*
X0012316Y0181232D03*
X0012267Y0181281D03*
X0013497Y0168732D03*
X0013398Y0168633D03*
X0013349Y0168584D03*
X0013349Y0168535D03*
X0013202Y0168387D03*
D399*
X0036086Y0168535D03*
X0036184Y0168486D03*
D400*
X0013276Y0168486D03*
D401*
X0036061Y0168584D03*
D402*
X0035987Y0168633D03*
D403*
X0035913Y0168683D03*
X0035864Y0168732D03*
D404*
X0013817Y0169076D03*
X0013472Y0168683D03*
D405*
X0035790Y0168781D03*
D406*
X0026956Y0180789D03*
X0027055Y0180887D03*
X0027104Y0180937D03*
X0027153Y0180986D03*
X0027203Y0181035D03*
X0012734Y0180789D03*
X0012537Y0180986D03*
X0012439Y0181084D03*
X0013718Y0168978D03*
X0013521Y0168781D03*
D407*
X0035741Y0168830D03*
D408*
X0013620Y0168830D03*
X0013620Y0168880D03*
X0012636Y0180887D03*
D409*
X0035593Y0168929D03*
D410*
X0026833Y0180641D03*
X0026932Y0180740D03*
X0027030Y0180838D03*
X0012906Y0180641D03*
X0012808Y0180740D03*
X0012709Y0180838D03*
X0014038Y0169322D03*
X0013940Y0169224D03*
X0013891Y0169175D03*
X0013792Y0169027D03*
X0013694Y0168929D03*
D411*
X0035544Y0168978D03*
D412*
X0035470Y0169027D03*
D413*
X0035397Y0169076D03*
D414*
X0035323Y0169126D03*
D415*
X0014014Y0169273D03*
X0013866Y0169126D03*
X0013030Y0180494D03*
D416*
X0035200Y0169224D03*
D417*
X0035101Y0169273D03*
X0035052Y0169322D03*
D418*
X0034954Y0169372D03*
D419*
X0014063Y0169372D03*
D420*
X0034905Y0169421D03*
D421*
X0014137Y0169421D03*
D422*
X0034806Y0169470D03*
D423*
X0026563Y0180346D03*
X0026661Y0180444D03*
X0012980Y0180543D03*
X0012931Y0180592D03*
X0012832Y0180691D03*
X0014260Y0169569D03*
X0014161Y0169470D03*
D424*
X0014235Y0169519D03*
X0014333Y0169618D03*
X0014333Y0169667D03*
X0014432Y0169765D03*
X0013202Y0180297D03*
X0013202Y0180346D03*
X0013103Y0180395D03*
X0013103Y0180444D03*
X0026391Y0180198D03*
X0026489Y0180248D03*
X0026489Y0180297D03*
X0026587Y0180395D03*
D425*
X0034658Y0169569D03*
D426*
X0034584Y0169618D03*
D427*
X0034511Y0169667D03*
D428*
X0034412Y0169716D03*
D429*
X0026366Y0180149D03*
X0013423Y0180100D03*
X0014407Y0169716D03*
D430*
X0034314Y0169765D03*
D431*
X0034265Y0169815D03*
D432*
X0026317Y0180100D03*
X0013522Y0180002D03*
X0014506Y0169864D03*
X0014506Y0169815D03*
D433*
X0034167Y0169864D03*
D434*
X0034068Y0169913D03*
D435*
X0026218Y0180002D03*
X0026268Y0180051D03*
X0013374Y0180149D03*
X0013325Y0180198D03*
X0013275Y0180248D03*
X0014850Y0170208D03*
X0014703Y0170061D03*
X0014604Y0169962D03*
X0014604Y0169913D03*
D436*
X0033969Y0169962D03*
D437*
X0033871Y0170011D03*
D438*
X0014678Y0170011D03*
X0013595Y0179903D03*
X0013448Y0180051D03*
D439*
X0033797Y0170061D03*
D440*
X0033699Y0170110D03*
D441*
X0025948Y0179706D03*
X0025997Y0179756D03*
X0026046Y0179805D03*
X0026095Y0179854D03*
X0026194Y0179952D03*
X0013644Y0179854D03*
X0013546Y0179952D03*
X0014776Y0170110D03*
D442*
X0033600Y0170159D03*
D443*
X0025726Y0179460D03*
X0013866Y0179657D03*
X0013768Y0179706D03*
X0013768Y0179756D03*
X0015244Y0170651D03*
X0015047Y0170405D03*
X0014949Y0170356D03*
X0014949Y0170307D03*
X0014899Y0170257D03*
X0014801Y0170159D03*
D444*
X0033526Y0170208D03*
D445*
X0033379Y0170257D03*
D446*
X0033305Y0170307D03*
D447*
X0033182Y0170356D03*
D448*
X0033084Y0170405D03*
D449*
X0025111Y0170454D03*
D450*
X0025062Y0170504D03*
X0024914Y0170651D03*
D451*
X0015096Y0170504D03*
X0013719Y0179805D03*
X0025923Y0179657D03*
D452*
X0024816Y0170750D03*
X0025013Y0170553D03*
D453*
X0024988Y0170602D03*
D454*
X0025456Y0179165D03*
X0013989Y0179509D03*
X0015219Y0170602D03*
D455*
X0037636Y0170651D03*
D456*
X0037660Y0170700D03*
X0019944Y0173456D03*
D457*
X0024890Y0170700D03*
D458*
X0025382Y0179116D03*
X0025529Y0179263D03*
X0025677Y0179411D03*
X0015342Y0170750D03*
X0015293Y0170700D03*
X0037636Y0170996D03*
D459*
X0037611Y0170750D03*
D460*
X0019968Y0170799D03*
D461*
X0037611Y0170848D03*
D462*
X0019993Y0170848D03*
X0019894Y0178230D03*
D463*
X0037709Y0170897D03*
D464*
X0019993Y0170897D03*
D465*
X0019993Y0170996D03*
D466*
X0037660Y0171045D03*
D467*
X0019968Y0171045D03*
X0019919Y0178082D03*
D468*
X0037734Y0171094D03*
D469*
X0037636Y0171143D03*
D470*
X0037783Y0171193D03*
D471*
X0019993Y0171193D03*
D472*
X0037636Y0171242D03*
D473*
X0019968Y0171242D03*
X0019919Y0177885D03*
D474*
X0019969Y0171291D03*
D475*
X0019993Y0171340D03*
X0019944Y0177787D03*
D476*
X0019993Y0171389D03*
D477*
X0019968Y0171488D03*
X0019968Y0171537D03*
D478*
X0019968Y0171635D03*
X0019919Y0177492D03*
D479*
X0019968Y0171734D03*
D480*
X0019969Y0171783D03*
D481*
X0019969Y0171832D03*
D482*
X0019968Y0172029D03*
D483*
X0019968Y0172128D03*
D484*
X0019969Y0172275D03*
D485*
X0019969Y0172324D03*
D486*
X0019968Y0172521D03*
X0019919Y0176655D03*
D487*
X0019969Y0176409D03*
X0019969Y0172767D03*
D488*
X0019969Y0172817D03*
D489*
X0019968Y0172964D03*
D490*
X0019944Y0173161D03*
D491*
X0019944Y0173210D03*
X0019944Y0175966D03*
D492*
X0019944Y0173259D03*
D493*
X0019919Y0174588D03*
X0019968Y0174687D03*
D494*
X0019944Y0174637D03*
D495*
X0019993Y0174785D03*
D496*
X0019993Y0174982D03*
D497*
X0019993Y0175425D03*
D498*
X0019969Y0175474D03*
D499*
X0019968Y0175671D03*
D500*
X0019968Y0175868D03*
D501*
X0019969Y0175917D03*
D502*
X0019944Y0176557D03*
D503*
X0019944Y0177246D03*
D504*
X0019919Y0177295D03*
D505*
X0019919Y0177344D03*
D506*
X0019944Y0177639D03*
D507*
X0019919Y0177984D03*
D508*
X0019895Y0178279D03*
D509*
X0024668Y0178328D03*
D510*
X0015146Y0178328D03*
D511*
X0015047Y0178427D03*
X0014998Y0178476D03*
X0014949Y0178525D03*
X0014899Y0178574D03*
X0024693Y0178378D03*
D512*
X0015096Y0178378D03*
D513*
X0014801Y0178673D03*
X0024742Y0178427D03*
D514*
X0024816Y0178476D03*
X0024865Y0178525D03*
X0024865Y0178574D03*
X0014776Y0178722D03*
X0014629Y0178870D03*
D515*
X0014653Y0178820D03*
X0014456Y0179017D03*
X0024939Y0178624D03*
X0024988Y0178673D03*
X0025038Y0178722D03*
X0025086Y0178771D03*
D516*
X0025185Y0178870D03*
X0014850Y0178624D03*
D517*
X0014703Y0178771D03*
X0014555Y0178919D03*
D518*
X0014432Y0179067D03*
X0014333Y0179165D03*
X0014235Y0179263D03*
X0014137Y0179362D03*
X0025111Y0178820D03*
X0025259Y0178968D03*
X0025357Y0179067D03*
D519*
X0025308Y0179017D03*
X0025210Y0178919D03*
X0014383Y0179116D03*
D520*
X0014284Y0179214D03*
X0014531Y0178968D03*
D521*
X0025480Y0179214D03*
D522*
X0025579Y0179313D03*
D523*
X0025628Y0179362D03*
X0025776Y0179509D03*
X0025874Y0179608D03*
D524*
X0013940Y0179559D03*
D525*
X0026145Y0179903D03*
D526*
X0026686Y0180494D03*
D527*
X0026735Y0180543D03*
X0026883Y0180691D03*
X0012611Y0180937D03*
D528*
X0026784Y0180592D03*
D529*
X0027227Y0181084D03*
D530*
X0027301Y0181133D03*
D531*
X0027424Y0181281D03*
X0027523Y0181380D03*
D532*
X0027572Y0181429D03*
X0027818Y0181675D03*
D533*
X0027843Y0181724D03*
X0011750Y0181822D03*
D534*
X0190366Y0100060D03*
X0190415Y0100060D03*
X0190464Y0100060D03*
X0190514Y0100060D03*
X0190563Y0100060D03*
X0190760Y0100060D03*
X0190809Y0100060D03*
X0190858Y0100060D03*
X0191104Y0100060D03*
X0191153Y0100060D03*
X0191301Y0100060D03*
X0191350Y0100060D03*
X0191547Y0100060D03*
X0191596Y0100060D03*
X0191744Y0100060D03*
X0191793Y0100060D03*
X0191990Y0100060D03*
X0192039Y0100060D03*
X0192187Y0100060D03*
X0192236Y0100060D03*
X0192433Y0100060D03*
X0192482Y0100060D03*
X0192630Y0100060D03*
X0192679Y0100060D03*
X0192876Y0100060D03*
X0192925Y0100060D03*
X0193073Y0100060D03*
X0193122Y0100060D03*
X0193319Y0100060D03*
X0193368Y0100060D03*
X0193516Y0100060D03*
X0193565Y0100060D03*
X0193762Y0100060D03*
X0193811Y0100060D03*
X0193958Y0100060D03*
X0194008Y0100060D03*
X0194205Y0100060D03*
X0194254Y0100060D03*
X0194401Y0100060D03*
X0194451Y0100060D03*
X0194647Y0100060D03*
X0194697Y0100060D03*
X0194844Y0100060D03*
X0194894Y0100060D03*
X0195090Y0100060D03*
X0195140Y0100060D03*
X0195336Y0100060D03*
X0198535Y0100060D03*
X0198781Y0100060D03*
X0198831Y0100060D03*
X0198880Y0100060D03*
X0198929Y0100060D03*
X0198978Y0100060D03*
X0199027Y0100060D03*
X0199077Y0100060D03*
X0199126Y0100060D03*
X0199175Y0100060D03*
X0199224Y0100060D03*
X0199273Y0100060D03*
X0199323Y0100060D03*
X0199372Y0100060D03*
X0199421Y0100060D03*
X0199470Y0100060D03*
X0199519Y0100060D03*
X0199569Y0100060D03*
X0199618Y0100060D03*
X0199667Y0100060D03*
X0199716Y0100060D03*
X0199766Y0100060D03*
X0199815Y0100060D03*
X0199864Y0100060D03*
X0199913Y0100060D03*
X0199962Y0100060D03*
X0200012Y0100060D03*
X0200061Y0100060D03*
X0200110Y0100060D03*
X0200159Y0100060D03*
X0200208Y0100060D03*
X0200258Y0100060D03*
X0200307Y0100060D03*
X0200356Y0100060D03*
X0200405Y0100060D03*
X0200455Y0100060D03*
X0200504Y0100060D03*
X0200553Y0100060D03*
X0200602Y0100060D03*
X0200651Y0100060D03*
X0200701Y0100060D03*
X0200750Y0100060D03*
X0200799Y0100060D03*
X0200848Y0100060D03*
X0200897Y0100060D03*
X0200947Y0100060D03*
X0200996Y0100060D03*
X0201045Y0100060D03*
X0201094Y0100060D03*
X0201144Y0100060D03*
X0201193Y0100060D03*
X0201242Y0100060D03*
X0201291Y0100060D03*
X0201340Y0100060D03*
X0201390Y0100060D03*
X0201439Y0100060D03*
X0201488Y0100060D03*
X0201537Y0100060D03*
X0201586Y0100060D03*
X0201636Y0100060D03*
X0201685Y0100060D03*
X0201734Y0100060D03*
X0201783Y0100060D03*
X0201832Y0100060D03*
X0201882Y0100060D03*
X0201931Y0100060D03*
X0201980Y0100060D03*
X0202029Y0100060D03*
X0202079Y0100060D03*
X0202128Y0100060D03*
X0202177Y0100060D03*
X0202226Y0100060D03*
X0202275Y0100060D03*
X0202325Y0100060D03*
X0202374Y0100060D03*
X0202423Y0100060D03*
X0202472Y0100060D03*
X0202521Y0100060D03*
X0202571Y0100060D03*
X0202620Y0100060D03*
X0202669Y0100060D03*
X0202718Y0100060D03*
X0202768Y0100060D03*
X0202817Y0100060D03*
X0202866Y0100060D03*
X0202915Y0100060D03*
X0202964Y0100060D03*
X0203014Y0100060D03*
X0203063Y0100060D03*
X0203112Y0100060D03*
X0203161Y0100060D03*
X0203210Y0100060D03*
X0203260Y0100060D03*
X0203309Y0100060D03*
X0203358Y0100060D03*
X0203407Y0100060D03*
X0203899Y0094647D03*
X0203653Y0094622D03*
X0203604Y0094622D03*
X0204441Y0094696D03*
X0204490Y0094696D03*
X0204539Y0094696D03*
X0207344Y0094696D03*
X0207935Y0094647D03*
X0208821Y0094524D03*
X0206360Y0091670D03*
X0206311Y0091670D03*
X0206262Y0091670D03*
X0206114Y0091670D03*
X0205819Y0091670D03*
X0205769Y0091670D03*
X0205425Y0091645D03*
X0205573Y0089111D03*
X0205917Y0089061D03*
X0205966Y0089061D03*
X0206754Y0089012D03*
X0206262Y0086675D03*
X0205868Y0086650D03*
X0205277Y0086576D03*
X0209165Y0085592D03*
X0209214Y0085592D03*
X0209460Y0085592D03*
X0209706Y0085592D03*
X0209953Y0085592D03*
X0210199Y0085592D03*
X0210445Y0085592D03*
X0210691Y0085592D03*
X0210937Y0085592D03*
X0211183Y0085592D03*
X0211429Y0085592D03*
X0211675Y0085592D03*
X0211921Y0085592D03*
X0212167Y0085592D03*
X0212413Y0085592D03*
X0212659Y0085592D03*
X0212905Y0085592D03*
X0213151Y0085592D03*
X0213397Y0085592D03*
X0213644Y0085592D03*
X0213890Y0085592D03*
X0214136Y0085592D03*
X0214382Y0085592D03*
X0214628Y0085592D03*
X0208673Y0080548D03*
X0207098Y0080425D03*
X0205769Y0080425D03*
X0205720Y0080425D03*
X0205671Y0080425D03*
X0205622Y0083623D03*
X0206212Y0083599D03*
X0206262Y0083599D03*
X0206311Y0083599D03*
X0206803Y0083623D03*
X0200750Y0081237D03*
D535*
X0203629Y0080572D03*
X0204072Y0080523D03*
X0205597Y0080425D03*
X0206975Y0080425D03*
X0207024Y0080425D03*
X0208206Y0080498D03*
X0206729Y0083623D03*
X0206139Y0083599D03*
X0206089Y0083599D03*
X0206040Y0083599D03*
X0205696Y0083623D03*
X0209337Y0085592D03*
X0209583Y0085592D03*
X0209830Y0085592D03*
X0210076Y0085592D03*
X0210322Y0085592D03*
X0210568Y0085592D03*
X0210814Y0085592D03*
X0211060Y0085592D03*
X0211306Y0085592D03*
X0211552Y0085592D03*
X0211798Y0085592D03*
X0212044Y0085592D03*
X0212290Y0085592D03*
X0212536Y0085592D03*
X0212782Y0085592D03*
X0213028Y0085592D03*
X0213274Y0085592D03*
X0213520Y0085592D03*
X0213767Y0085592D03*
X0214013Y0085592D03*
X0214259Y0085592D03*
X0214505Y0085592D03*
X0214751Y0085592D03*
X0214800Y0085592D03*
X0214800Y0084780D03*
X0207418Y0089012D03*
X0207369Y0089012D03*
X0207320Y0089012D03*
X0207270Y0089012D03*
X0207221Y0089012D03*
X0207172Y0089012D03*
X0207123Y0089012D03*
X0207074Y0089012D03*
X0207024Y0089012D03*
X0206975Y0089012D03*
X0206926Y0089012D03*
X0206877Y0089012D03*
X0205400Y0089135D03*
X0205204Y0091620D03*
X0205893Y0091670D03*
X0205991Y0091670D03*
X0206188Y0091670D03*
X0206729Y0091645D03*
X0207418Y0094696D03*
X0207615Y0094672D03*
X0207664Y0094672D03*
X0208107Y0094622D03*
X0208501Y0094573D03*
X0204367Y0094696D03*
X0204121Y0094672D03*
X0204072Y0094672D03*
X0203826Y0094647D03*
X0203432Y0094598D03*
X0203235Y0094573D03*
X0203087Y0094549D03*
X0203580Y0100060D03*
X0198707Y0100060D03*
X0198658Y0100060D03*
X0198609Y0100060D03*
X0195410Y0100060D03*
X0195263Y0100060D03*
X0195213Y0100060D03*
X0195017Y0100060D03*
X0194967Y0100060D03*
X0194770Y0100060D03*
X0194574Y0100060D03*
X0194524Y0100060D03*
X0194328Y0100060D03*
X0194131Y0100060D03*
X0194081Y0100060D03*
X0193885Y0100060D03*
X0193688Y0100060D03*
X0193639Y0100060D03*
X0193442Y0100060D03*
X0193245Y0100060D03*
X0193196Y0100060D03*
X0192999Y0100060D03*
X0192802Y0100060D03*
X0192753Y0100060D03*
X0192556Y0100060D03*
X0192359Y0100060D03*
X0192310Y0100060D03*
X0192113Y0100060D03*
X0191916Y0100060D03*
X0191867Y0100060D03*
X0191670Y0100060D03*
X0191473Y0100060D03*
X0191424Y0100060D03*
X0191227Y0100060D03*
X0191030Y0100060D03*
X0190981Y0100060D03*
X0190932Y0100060D03*
X0190686Y0100060D03*
X0190637Y0100060D03*
X0200184Y0088126D03*
X0206335Y0086675D03*
D536*
X0206692Y0089012D03*
X0206815Y0089012D03*
X0205708Y0091670D03*
X0208316Y0094598D03*
X0203494Y0100060D03*
X0209276Y0085592D03*
X0209399Y0085592D03*
X0209522Y0085592D03*
X0209645Y0085592D03*
X0209768Y0085592D03*
X0209891Y0085592D03*
X0210014Y0085592D03*
X0210137Y0085592D03*
X0210260Y0085592D03*
X0210383Y0085592D03*
X0210506Y0085592D03*
X0210629Y0085592D03*
X0210752Y0085592D03*
X0210875Y0085592D03*
X0210998Y0085592D03*
X0211121Y0085592D03*
X0211244Y0085592D03*
X0211368Y0085592D03*
X0211490Y0085592D03*
X0211614Y0085592D03*
X0211736Y0085592D03*
X0211860Y0085592D03*
X0211982Y0085592D03*
X0212106Y0085592D03*
X0212229Y0085592D03*
X0212352Y0085592D03*
X0212475Y0085592D03*
X0212598Y0085592D03*
X0212721Y0085592D03*
X0212844Y0085592D03*
X0212967Y0085592D03*
X0213090Y0085592D03*
X0213213Y0085592D03*
X0213336Y0085592D03*
X0213459Y0085592D03*
X0213582Y0085592D03*
X0213705Y0085592D03*
X0213828Y0085592D03*
X0213951Y0085592D03*
X0214074Y0085592D03*
X0214197Y0085592D03*
X0214320Y0085592D03*
X0214443Y0085592D03*
X0214566Y0085592D03*
X0214689Y0085592D03*
X0206372Y0083599D03*
X0205979Y0083599D03*
X0205831Y0080425D03*
X0206840Y0080425D03*
X0206914Y0080425D03*
X0204330Y0080498D03*
D537*
X0205917Y0080425D03*
X0206016Y0080425D03*
X0206754Y0080425D03*
D538*
X0206385Y0080425D03*
D539*
X0207566Y0080449D03*
X0206975Y0083648D03*
X0206286Y0089037D03*
X0206237Y0089037D03*
X0207024Y0094721D03*
X0204908Y0094721D03*
X0204859Y0094721D03*
D540*
X0206840Y0094721D03*
X0207504Y0080449D03*
X0205093Y0080449D03*
D541*
X0206299Y0080449D03*
D542*
X0205031Y0080449D03*
X0204982Y0080449D03*
X0205425Y0083648D03*
X0206360Y0089037D03*
X0206901Y0094721D03*
X0206951Y0094721D03*
X0204785Y0094721D03*
D543*
X0205499Y0094745D03*
X0205597Y0094745D03*
X0205745Y0094745D03*
X0206237Y0094745D03*
X0206385Y0094745D03*
X0205745Y0089086D03*
X0205154Y0089184D03*
X0205646Y0086625D03*
X0205253Y0083673D03*
X0207959Y0080474D03*
D544*
X0206323Y0080474D03*
D545*
X0204687Y0080474D03*
X0204638Y0080474D03*
X0205671Y0094745D03*
X0205819Y0094745D03*
X0205868Y0094745D03*
X0205917Y0094745D03*
X0205966Y0094745D03*
X0206016Y0094745D03*
X0206065Y0094745D03*
X0206114Y0094745D03*
X0206163Y0094745D03*
X0206311Y0094745D03*
X0206458Y0094745D03*
D546*
X0206274Y0080498D03*
D547*
X0206286Y0080523D03*
D548*
X0206225Y0080548D03*
X0194586Y0094327D03*
X0194635Y0094376D03*
X0194660Y0094401D03*
X0194094Y0098806D03*
X0194069Y0098830D03*
D549*
X0192974Y0092556D03*
X0192876Y0092457D03*
X0205868Y0094573D03*
X0206262Y0080572D03*
D550*
X0206212Y0080597D03*
X0211527Y0090218D03*
X0211527Y0090267D03*
D551*
X0201316Y0089504D03*
X0206237Y0080621D03*
D552*
X0206200Y0080646D03*
X0211490Y0084091D03*
X0211515Y0084116D03*
X0200614Y0084509D03*
X0200614Y0084534D03*
X0200590Y0084608D03*
X0200614Y0085789D03*
X0197022Y0096050D03*
D553*
X0206212Y0080671D03*
D554*
X0206200Y0080695D03*
D555*
X0206200Y0080720D03*
X0202189Y0089086D03*
D556*
X0206188Y0080745D03*
D557*
X0206200Y0080769D03*
X0210162Y0091670D03*
D558*
X0206163Y0080794D03*
X0197010Y0097477D03*
D559*
X0197022Y0097575D03*
X0203493Y0087905D03*
X0206176Y0080818D03*
D560*
X0206163Y0080843D03*
X0203358Y0088619D03*
D561*
X0203296Y0088717D03*
X0202042Y0086675D03*
X0206176Y0080868D03*
D562*
X0206151Y0080892D03*
X0203198Y0088865D03*
D563*
X0206163Y0080917D03*
D564*
X0206163Y0080941D03*
D565*
X0206151Y0080966D03*
D566*
X0206139Y0080991D03*
X0197034Y0094573D03*
D567*
X0202755Y0086921D03*
X0202731Y0086896D03*
X0206151Y0081015D03*
D568*
X0206151Y0081040D03*
D569*
X0206151Y0081064D03*
D570*
X0206126Y0081089D03*
D571*
X0206139Y0081114D03*
D572*
X0206126Y0081138D03*
D573*
X0206139Y0081163D03*
D574*
X0206126Y0081187D03*
D575*
X0206126Y0081212D03*
D576*
X0206139Y0081237D03*
D577*
X0206126Y0081261D03*
D578*
X0206126Y0081286D03*
D579*
X0206126Y0081310D03*
D580*
X0206102Y0081335D03*
D581*
X0206126Y0081360D03*
D582*
X0206114Y0081384D03*
D583*
X0206126Y0081409D03*
D584*
X0206102Y0081433D03*
D585*
X0206114Y0081458D03*
D586*
X0206102Y0081483D03*
D587*
X0206114Y0081507D03*
D588*
X0206102Y0081532D03*
D589*
X0206114Y0081557D03*
D590*
X0206089Y0081581D03*
D591*
X0206114Y0081606D03*
D592*
X0206089Y0081630D03*
D593*
X0206102Y0081655D03*
X0203592Y0094303D03*
D594*
X0206089Y0081680D03*
D595*
X0206102Y0081704D03*
D596*
X0206089Y0081729D03*
D597*
X0206102Y0081753D03*
D598*
X0206089Y0081778D03*
D599*
X0206102Y0081803D03*
X0203985Y0094106D03*
D600*
X0206089Y0081827D03*
D601*
X0206089Y0081852D03*
D602*
X0206102Y0081876D03*
D603*
X0206089Y0081901D03*
D604*
X0206089Y0081926D03*
D605*
X0206089Y0081950D03*
D606*
X0206089Y0081975D03*
D607*
X0206089Y0081999D03*
D608*
X0206089Y0082024D03*
D609*
X0206089Y0082049D03*
X0204711Y0093663D03*
D610*
X0206089Y0082073D03*
D611*
X0206089Y0082098D03*
D612*
X0206077Y0082122D03*
D613*
X0206089Y0082147D03*
D614*
X0206089Y0082172D03*
D615*
X0206089Y0082196D03*
D616*
X0206077Y0082221D03*
X0205339Y0093171D03*
X0205314Y0093195D03*
D617*
X0205450Y0093072D03*
X0206089Y0082245D03*
D618*
X0206089Y0082270D03*
X0205548Y0092974D03*
D619*
X0205659Y0092875D03*
X0205708Y0092826D03*
X0206077Y0082295D03*
D620*
X0206077Y0082319D03*
X0205806Y0092703D03*
X0205806Y0092728D03*
D621*
X0205942Y0092556D03*
X0206089Y0082344D03*
D622*
X0206089Y0082369D03*
D623*
X0206089Y0082393D03*
D624*
X0206077Y0082418D03*
D625*
X0206089Y0082442D03*
D626*
X0206077Y0082467D03*
D627*
X0206089Y0082492D03*
D628*
X0206077Y0082516D03*
X0205954Y0092334D03*
D629*
X0206089Y0082541D03*
D630*
X0206077Y0082565D03*
D631*
X0206089Y0082590D03*
D632*
X0206077Y0082615D03*
X0205979Y0092211D03*
D633*
X0206089Y0082639D03*
D634*
X0206077Y0082664D03*
D635*
X0206089Y0082688D03*
X0205991Y0092063D03*
D636*
X0206077Y0082713D03*
D637*
X0206089Y0082738D03*
X0206089Y0082762D03*
X0205991Y0091990D03*
D638*
X0206003Y0091916D03*
X0206077Y0082787D03*
D639*
X0206077Y0082811D03*
X0206003Y0091891D03*
D640*
X0205991Y0091867D03*
X0206089Y0082836D03*
D641*
X0206089Y0082861D03*
D642*
X0206089Y0082885D03*
D643*
X0206077Y0082910D03*
D644*
X0206102Y0082934D03*
D645*
X0206077Y0082959D03*
D646*
X0206089Y0082984D03*
D647*
X0206077Y0083008D03*
D648*
X0206102Y0083033D03*
D649*
X0206077Y0083058D03*
D650*
X0206089Y0083082D03*
D651*
X0206089Y0083107D03*
D652*
X0206102Y0083131D03*
D653*
X0206077Y0083156D03*
D654*
X0206089Y0083181D03*
D655*
X0206077Y0083205D03*
D656*
X0206089Y0083230D03*
D657*
X0206102Y0083254D03*
D658*
X0206089Y0083279D03*
X0206089Y0083304D03*
D659*
X0206089Y0083328D03*
D660*
X0206077Y0083353D03*
X0206102Y0083377D03*
D661*
X0206089Y0083402D03*
D662*
X0206089Y0083427D03*
D663*
X0206089Y0083451D03*
X0206089Y0083476D03*
D664*
X0206102Y0083500D03*
D665*
X0206102Y0083525D03*
D666*
X0206089Y0083550D03*
D667*
X0206102Y0083574D03*
D668*
X0210420Y0083599D03*
X0203481Y0088495D03*
X0197034Y0095188D03*
D669*
X0201845Y0083599D03*
D670*
X0210629Y0083623D03*
X0205880Y0094352D03*
X0197022Y0095385D03*
D671*
X0203543Y0087954D03*
X0201673Y0083623D03*
D672*
X0210728Y0083648D03*
X0197022Y0095459D03*
D673*
X0201611Y0086601D03*
X0201562Y0083648D03*
D674*
X0210838Y0083673D03*
D675*
X0201476Y0083673D03*
D676*
X0201291Y0083746D03*
X0210888Y0083697D03*
D677*
X0201390Y0083697D03*
D678*
X0210961Y0083722D03*
D679*
X0203838Y0088176D03*
X0201353Y0083722D03*
X0197022Y0095533D03*
D680*
X0197034Y0097108D03*
X0201217Y0086453D03*
X0201168Y0083820D03*
X0211011Y0083746D03*
D681*
X0211084Y0083771D03*
X0202079Y0089111D03*
X0201094Y0083870D03*
X0210543Y0091596D03*
D682*
X0201623Y0091620D03*
X0197022Y0095631D03*
X0201254Y0083771D03*
D683*
X0211121Y0083796D03*
X0197022Y0095779D03*
D684*
X0201193Y0083796D03*
D685*
X0200971Y0083968D03*
X0201020Y0086330D03*
X0202005Y0089135D03*
X0197034Y0096985D03*
X0211158Y0083820D03*
D686*
X0211195Y0083845D03*
X0205880Y0094450D03*
X0197022Y0095828D03*
D687*
X0201168Y0086429D03*
X0201119Y0083845D03*
D688*
X0200934Y0086256D03*
X0201353Y0091497D03*
X0197022Y0095877D03*
X0211244Y0083870D03*
D689*
X0211269Y0083894D03*
X0210703Y0091522D03*
D690*
X0201057Y0083894D03*
D691*
X0211306Y0083919D03*
D692*
X0201033Y0083919D03*
D693*
X0200861Y0086183D03*
X0211343Y0083943D03*
X0210777Y0091497D03*
X0197022Y0095927D03*
D694*
X0200996Y0083943D03*
D695*
X0200737Y0084239D03*
X0200737Y0084263D03*
X0200713Y0084288D03*
X0211367Y0083968D03*
X0211392Y0083993D03*
D696*
X0200947Y0083993D03*
D697*
X0200750Y0086035D03*
X0200750Y0086059D03*
X0211429Y0084017D03*
D698*
X0200922Y0084017D03*
X0200971Y0086281D03*
D699*
X0200725Y0086010D03*
X0200676Y0084362D03*
X0211454Y0084042D03*
D700*
X0200897Y0084042D03*
D701*
X0200664Y0085912D03*
X0211466Y0084066D03*
X0197022Y0096025D03*
D702*
X0197022Y0095902D03*
X0200910Y0086232D03*
X0200885Y0084066D03*
D703*
X0200848Y0084091D03*
D704*
X0200824Y0084116D03*
X0200873Y0086207D03*
X0201316Y0091473D03*
D705*
X0200553Y0084681D03*
X0200602Y0084558D03*
X0211527Y0084140D03*
D706*
X0200811Y0084140D03*
X0197046Y0096886D03*
D707*
X0201550Y0089332D03*
X0200565Y0085641D03*
X0200565Y0084706D03*
X0200565Y0084657D03*
X0211564Y0084165D03*
D708*
X0200799Y0084165D03*
D709*
X0200553Y0084731D03*
X0200553Y0084780D03*
X0200553Y0085543D03*
X0200553Y0085592D03*
X0211577Y0084189D03*
X0210986Y0091350D03*
D710*
X0210801Y0091473D03*
X0201795Y0089209D03*
X0200787Y0084189D03*
D711*
X0200528Y0085001D03*
X0200528Y0085297D03*
X0200528Y0085420D03*
X0200528Y0085469D03*
X0200528Y0085518D03*
X0201513Y0089357D03*
X0211601Y0084239D03*
X0211601Y0084214D03*
D712*
X0200774Y0084214D03*
X0197034Y0096862D03*
D713*
X0197022Y0096123D03*
X0201057Y0091227D03*
X0201476Y0089381D03*
X0200516Y0085198D03*
X0211638Y0084263D03*
D714*
X0211650Y0084288D03*
X0211650Y0084312D03*
D715*
X0210851Y0091448D03*
X0201230Y0091399D03*
X0197022Y0096000D03*
X0197047Y0096812D03*
X0200688Y0084337D03*
X0200713Y0084312D03*
D716*
X0200996Y0091128D03*
X0211675Y0084337D03*
D717*
X0211700Y0084362D03*
X0201020Y0091153D03*
D718*
X0211712Y0084386D03*
D719*
X0200664Y0084386D03*
X0200639Y0084435D03*
D720*
X0211712Y0084411D03*
X0197046Y0096665D03*
D721*
X0200639Y0084460D03*
X0200664Y0084411D03*
D722*
X0211724Y0084435D03*
D723*
X0211749Y0084460D03*
D724*
X0211749Y0084485D03*
X0211158Y0091178D03*
X0201365Y0089455D03*
X0200971Y0091079D03*
D725*
X0201168Y0091350D03*
X0200676Y0085936D03*
X0200627Y0084485D03*
D726*
X0200947Y0091005D03*
X0211183Y0091153D03*
X0211773Y0084534D03*
X0211773Y0084509D03*
D727*
X0211810Y0084558D03*
X0201279Y0089529D03*
D728*
X0211798Y0084583D03*
D729*
X0200578Y0084583D03*
X0201119Y0091301D03*
D730*
X0200934Y0090981D03*
X0200910Y0090932D03*
X0201254Y0089554D03*
X0197046Y0096616D03*
X0211195Y0091128D03*
X0211220Y0091104D03*
X0211810Y0084608D03*
D731*
X0211823Y0084632D03*
D732*
X0200578Y0084632D03*
X0200528Y0084878D03*
D733*
X0211835Y0084657D03*
X0197022Y0096222D03*
D734*
X0211835Y0084681D03*
D735*
X0211835Y0084706D03*
X0211244Y0091055D03*
X0201230Y0089578D03*
D736*
X0211847Y0084731D03*
D737*
X0211872Y0084755D03*
X0211281Y0091005D03*
X0201193Y0089627D03*
X0200897Y0090833D03*
X0200897Y0090882D03*
X0197010Y0096246D03*
D738*
X0197022Y0096074D03*
X0200639Y0085838D03*
X0200590Y0085740D03*
X0200541Y0084755D03*
X0210949Y0091374D03*
D739*
X0211294Y0090981D03*
X0211318Y0090956D03*
X0211884Y0084854D03*
X0211859Y0084780D03*
X0200861Y0090710D03*
X0197046Y0096566D03*
D740*
X0211872Y0084805D03*
D741*
X0200541Y0084805D03*
D742*
X0200885Y0090808D03*
X0211909Y0084903D03*
X0211884Y0084829D03*
D743*
X0200528Y0084829D03*
X0200528Y0084903D03*
X0197034Y0096714D03*
D744*
X0197034Y0096739D03*
X0200578Y0085715D03*
X0200578Y0085690D03*
X0200578Y0085666D03*
X0200528Y0085494D03*
X0200528Y0084854D03*
D745*
X0211896Y0084878D03*
D746*
X0211909Y0084928D03*
X0211269Y0091030D03*
D747*
X0200565Y0085617D03*
X0200516Y0085051D03*
X0200516Y0084928D03*
D748*
X0211921Y0084952D03*
D749*
X0200516Y0084952D03*
X0200516Y0085075D03*
X0200516Y0085149D03*
X0200516Y0085395D03*
D750*
X0200848Y0090587D03*
X0211921Y0085026D03*
X0211921Y0084977D03*
D751*
X0211023Y0091325D03*
X0201082Y0091251D03*
X0200541Y0085567D03*
X0200516Y0085444D03*
X0200516Y0085346D03*
X0200516Y0085247D03*
X0200516Y0084977D03*
D752*
X0201057Y0089800D03*
X0200860Y0090612D03*
X0200860Y0090636D03*
X0200860Y0090661D03*
X0200860Y0090685D03*
X0211318Y0090932D03*
X0211343Y0090907D03*
X0211343Y0090882D03*
X0211368Y0090858D03*
X0211933Y0085001D03*
D753*
X0200504Y0085026D03*
X0200504Y0085100D03*
X0200504Y0085174D03*
X0200504Y0085223D03*
X0200504Y0085272D03*
X0200504Y0085321D03*
X0197010Y0096099D03*
D754*
X0211946Y0085124D03*
X0211946Y0085051D03*
D755*
X0211933Y0085075D03*
X0200860Y0090562D03*
X0197022Y0096296D03*
X0197047Y0096542D03*
D756*
X0200873Y0090464D03*
X0201020Y0089873D03*
X0201020Y0089849D03*
X0211946Y0085174D03*
X0211946Y0085100D03*
D757*
X0200504Y0085124D03*
D758*
X0200873Y0090316D03*
X0211946Y0085149D03*
D759*
X0211958Y0085198D03*
X0211958Y0085223D03*
X0211958Y0085247D03*
X0211958Y0085272D03*
X0211958Y0085321D03*
X0211367Y0090833D03*
X0200983Y0089947D03*
X0200910Y0090120D03*
X0200910Y0090144D03*
X0200885Y0090218D03*
X0200885Y0090267D03*
X0200861Y0090341D03*
X0200861Y0090366D03*
X0200861Y0090390D03*
X0200861Y0090415D03*
X0200861Y0090489D03*
D760*
X0200897Y0090243D03*
X0200897Y0090193D03*
X0200897Y0090169D03*
X0200947Y0090021D03*
X0197010Y0096320D03*
X0211429Y0090710D03*
X0211429Y0090685D03*
X0211970Y0085518D03*
X0211970Y0085469D03*
X0211970Y0085420D03*
X0211970Y0085346D03*
X0211970Y0085297D03*
D761*
X0211970Y0085370D03*
D762*
X0200528Y0085370D03*
D763*
X0211970Y0085395D03*
D764*
X0211982Y0085444D03*
X0211982Y0085494D03*
X0211982Y0085543D03*
X0211982Y0085567D03*
X0211441Y0090636D03*
X0211441Y0090661D03*
X0197047Y0096493D03*
D765*
X0201144Y0091325D03*
X0201586Y0089307D03*
X0200602Y0085764D03*
D766*
X0200627Y0085813D03*
D767*
X0200639Y0085863D03*
D768*
X0200664Y0085887D03*
D769*
X0200701Y0085961D03*
X0200701Y0085986D03*
X0201685Y0089258D03*
X0201193Y0091374D03*
X0210888Y0091424D03*
D770*
X0200774Y0086084D03*
X0197034Y0096837D03*
D771*
X0200799Y0086109D03*
D772*
X0200824Y0086133D03*
D773*
X0200824Y0086158D03*
D774*
X0200984Y0086306D03*
X0197022Y0095853D03*
D775*
X0197022Y0097009D03*
X0201057Y0086355D03*
D776*
X0201094Y0086379D03*
D777*
X0201131Y0086404D03*
X0201500Y0091571D03*
X0197022Y0095754D03*
D778*
X0197034Y0095656D03*
X0201267Y0086478D03*
D779*
X0201328Y0086502D03*
X0197022Y0095607D03*
D780*
X0201390Y0086527D03*
D781*
X0201451Y0086552D03*
D782*
X0201513Y0086576D03*
D783*
X0201722Y0086625D03*
D784*
X0201832Y0086650D03*
D785*
X0202669Y0086699D03*
D786*
X0202669Y0086724D03*
D787*
X0202694Y0086748D03*
D788*
X0202706Y0086773D03*
D789*
X0202694Y0086798D03*
D790*
X0202718Y0086822D03*
D791*
X0202718Y0086847D03*
D792*
X0202743Y0086871D03*
D793*
X0202768Y0086945D03*
D794*
X0202768Y0086970D03*
D795*
X0202792Y0086995D03*
X0202792Y0087019D03*
D796*
X0202805Y0087044D03*
X0197047Y0094549D03*
D797*
X0202817Y0087068D03*
D798*
X0202829Y0087093D03*
D799*
X0202854Y0087118D03*
D800*
X0202841Y0087142D03*
D801*
X0202866Y0087167D03*
D802*
X0202891Y0087191D03*
X0197034Y0094622D03*
D803*
X0202878Y0087216D03*
D804*
X0202915Y0087241D03*
D805*
X0202927Y0087265D03*
X0197047Y0094647D03*
D806*
X0202928Y0087290D03*
D807*
X0202964Y0087314D03*
X0197010Y0098067D03*
D808*
X0202964Y0087339D03*
D809*
X0202989Y0087364D03*
D810*
X0202989Y0087388D03*
D811*
X0203026Y0087413D03*
D812*
X0203038Y0087437D03*
D813*
X0203051Y0087462D03*
X0203075Y0087487D03*
X0197047Y0094795D03*
X0196997Y0097969D03*
D814*
X0203100Y0087511D03*
D815*
X0203100Y0087536D03*
D816*
X0203137Y0087560D03*
X0203137Y0088963D03*
X0203137Y0088988D03*
X0197034Y0094844D03*
X0197034Y0094869D03*
D817*
X0203149Y0087585D03*
D818*
X0203173Y0087610D03*
D819*
X0203186Y0087634D03*
X0197034Y0094918D03*
D820*
X0197047Y0094942D03*
X0203223Y0088815D03*
X0203223Y0087659D03*
D821*
X0203235Y0087683D03*
D822*
X0203260Y0087708D03*
D823*
X0203284Y0087733D03*
X0203284Y0088742D03*
D824*
X0203321Y0087757D03*
D825*
X0203333Y0087782D03*
X0197034Y0095065D03*
D826*
X0203370Y0087807D03*
D827*
X0203395Y0087831D03*
X0197022Y0097674D03*
D828*
X0203432Y0087856D03*
D829*
X0203444Y0087880D03*
X0203444Y0088520D03*
X0197022Y0097600D03*
D830*
X0197022Y0097551D03*
X0203518Y0087930D03*
D831*
X0203592Y0087979D03*
D832*
X0203629Y0088003D03*
X0197034Y0095336D03*
D833*
X0203653Y0088028D03*
D834*
X0203703Y0088053D03*
X0201882Y0091670D03*
D835*
X0202460Y0089037D03*
X0203739Y0088077D03*
D836*
X0203789Y0088102D03*
D837*
X0203838Y0088126D03*
X0203862Y0088151D03*
X0197022Y0095558D03*
X0197022Y0097231D03*
D838*
X0203801Y0088200D03*
D839*
X0203776Y0088225D03*
X0197034Y0097305D03*
D840*
X0203752Y0088249D03*
D841*
X0203703Y0088274D03*
D842*
X0203690Y0088299D03*
D843*
X0203666Y0088323D03*
D844*
X0203629Y0088348D03*
X0197034Y0097452D03*
D845*
X0203592Y0088372D03*
D846*
X0203580Y0088397D03*
X0197034Y0095287D03*
D847*
X0203555Y0088422D03*
D848*
X0203518Y0088446D03*
X0197022Y0097526D03*
D849*
X0203506Y0088471D03*
D850*
X0203432Y0088545D03*
D851*
X0203419Y0088569D03*
D852*
X0203395Y0088594D03*
D853*
X0203358Y0088643D03*
D854*
X0203333Y0088668D03*
D855*
X0203309Y0088692D03*
D856*
X0203247Y0088766D03*
D857*
X0203247Y0088791D03*
D858*
X0203210Y0088840D03*
D859*
X0203186Y0088889D03*
X0197034Y0094893D03*
D860*
X0203161Y0088914D03*
D861*
X0203161Y0088938D03*
X0197010Y0097895D03*
D862*
X0202694Y0089012D03*
D863*
X0202288Y0089061D03*
X0210359Y0091645D03*
D864*
X0201919Y0089160D03*
X0201402Y0091522D03*
D865*
X0201845Y0089184D03*
X0197022Y0096911D03*
D866*
X0201242Y0091424D03*
X0201734Y0089234D03*
D867*
X0201636Y0089283D03*
D868*
X0201427Y0089406D03*
X0197022Y0096148D03*
D869*
X0201402Y0089431D03*
D870*
X0201340Y0089480D03*
X0200996Y0091104D03*
X0211134Y0091202D03*
D871*
X0205856Y0094524D03*
X0200910Y0090907D03*
X0200885Y0090858D03*
X0201205Y0089603D03*
X0197047Y0096591D03*
D872*
X0200873Y0090784D03*
X0201168Y0089652D03*
D873*
X0201144Y0089677D03*
D874*
X0201119Y0089701D03*
X0201119Y0089726D03*
X0201070Y0089750D03*
X0200873Y0090735D03*
X0200873Y0090759D03*
D875*
X0201082Y0089775D03*
D876*
X0201045Y0089824D03*
X0211380Y0090808D03*
D877*
X0200996Y0089923D03*
X0200996Y0089898D03*
X0200947Y0089996D03*
X0200848Y0090439D03*
X0200848Y0090513D03*
D878*
X0200922Y0090095D03*
X0200971Y0089972D03*
X0211404Y0090735D03*
X0211404Y0090759D03*
X0211454Y0090587D03*
D879*
X0211392Y0090784D03*
X0200934Y0090046D03*
X0200861Y0090538D03*
D880*
X0200934Y0090070D03*
D881*
X0214271Y0090193D03*
D882*
X0211466Y0090193D03*
D883*
X0211503Y0090243D03*
X0211503Y0090341D03*
X0211503Y0090415D03*
D884*
X0211503Y0090292D03*
D885*
X0200873Y0090292D03*
X0197034Y0096517D03*
D886*
X0197046Y0096468D03*
X0211466Y0090562D03*
X0211515Y0090316D03*
D887*
X0211515Y0090366D03*
X0211491Y0090390D03*
X0211491Y0090464D03*
X0211466Y0090513D03*
X0197022Y0096370D03*
D888*
X0197010Y0096345D03*
X0211478Y0090489D03*
X0211478Y0090439D03*
D889*
X0211478Y0090538D03*
D890*
X0211454Y0090612D03*
D891*
X0200922Y0090956D03*
D892*
X0200947Y0091030D03*
D893*
X0200959Y0091055D03*
D894*
X0211232Y0091079D03*
D895*
X0211097Y0091251D03*
X0201033Y0091178D03*
D896*
X0201045Y0091202D03*
D897*
X0211121Y0091227D03*
D898*
X0211060Y0091276D03*
X0197034Y0096689D03*
D899*
X0201094Y0091276D03*
D900*
X0211048Y0091301D03*
D901*
X0210937Y0091399D03*
D902*
X0201291Y0091448D03*
D903*
X0210679Y0091547D03*
D904*
X0201451Y0091547D03*
D905*
X0210592Y0091571D03*
D906*
X0201586Y0091596D03*
D907*
X0210432Y0091620D03*
D908*
X0201759Y0091645D03*
D909*
X0206028Y0091694D03*
D910*
X0206016Y0091719D03*
D911*
X0206016Y0091744D03*
D912*
X0206016Y0091768D03*
D913*
X0206003Y0091793D03*
D914*
X0206003Y0091817D03*
D915*
X0206016Y0091842D03*
D916*
X0205991Y0091940D03*
X0205991Y0091965D03*
D917*
X0205991Y0092014D03*
D918*
X0205991Y0092039D03*
D919*
X0205979Y0092088D03*
D920*
X0205991Y0092113D03*
D921*
X0205979Y0092137D03*
D922*
X0205979Y0092162D03*
D923*
X0205966Y0092186D03*
D924*
X0205979Y0092236D03*
D925*
X0205966Y0092260D03*
D926*
X0205966Y0092285D03*
D927*
X0205966Y0092309D03*
D928*
X0205954Y0092359D03*
D929*
X0205966Y0092383D03*
D930*
X0192863Y0092433D03*
X0192839Y0092408D03*
X0192814Y0092383D03*
D931*
X0205954Y0092408D03*
X0205954Y0092433D03*
D932*
X0205954Y0092457D03*
D933*
X0205954Y0092482D03*
D934*
X0192900Y0092482D03*
D935*
X0205954Y0092506D03*
D936*
X0192925Y0092506D03*
D937*
X0205942Y0092531D03*
D938*
X0192950Y0092531D03*
D939*
X0205843Y0092679D03*
X0205893Y0092629D03*
X0205942Y0092580D03*
D940*
X0193110Y0092703D03*
X0193085Y0092679D03*
X0193060Y0092654D03*
X0193011Y0092605D03*
X0192986Y0092580D03*
D941*
X0205905Y0092605D03*
D942*
X0193196Y0092802D03*
X0193048Y0092629D03*
D943*
X0205868Y0092654D03*
D944*
X0193269Y0092875D03*
X0193220Y0092826D03*
X0193122Y0092728D03*
D945*
X0205769Y0092752D03*
D946*
X0193146Y0092752D03*
D947*
X0205745Y0092777D03*
D948*
X0193183Y0092777D03*
D949*
X0205720Y0092802D03*
D950*
X0205671Y0092851D03*
X0205622Y0092900D03*
D951*
X0201033Y0100036D03*
X0192888Y0100036D03*
X0193306Y0092925D03*
X0193282Y0092900D03*
X0193233Y0092851D03*
D952*
X0205597Y0092925D03*
D953*
X0205585Y0092949D03*
D954*
X0200996Y0099987D03*
X0192925Y0100011D03*
X0193466Y0093097D03*
X0193417Y0093048D03*
X0193368Y0092974D03*
X0193319Y0092949D03*
D955*
X0205523Y0092998D03*
D956*
X0193368Y0092998D03*
D957*
X0205499Y0093023D03*
D958*
X0193393Y0093023D03*
D959*
X0205474Y0093048D03*
D960*
X0200971Y0099962D03*
X0201020Y0100011D03*
X0192950Y0099987D03*
X0193442Y0093072D03*
D961*
X0205388Y0093121D03*
X0205413Y0093097D03*
D962*
X0193688Y0093343D03*
X0193589Y0093220D03*
X0193491Y0093121D03*
D963*
X0205376Y0093146D03*
D964*
X0200836Y0099814D03*
X0200885Y0099864D03*
X0200959Y0099937D03*
X0193085Y0099839D03*
X0192986Y0099937D03*
X0192962Y0099962D03*
X0193553Y0093195D03*
X0193528Y0093171D03*
X0193503Y0093146D03*
D965*
X0205277Y0093220D03*
D966*
X0205253Y0093244D03*
D967*
X0200910Y0099888D03*
X0193036Y0099888D03*
X0193602Y0093244D03*
D968*
X0205216Y0093269D03*
D969*
X0200701Y0099667D03*
X0193614Y0093269D03*
D970*
X0205167Y0093318D03*
X0205191Y0093294D03*
D971*
X0200713Y0099691D03*
X0200762Y0099741D03*
X0200811Y0099790D03*
X0193306Y0099618D03*
X0193233Y0099691D03*
X0193208Y0099716D03*
X0193183Y0099741D03*
X0193798Y0093466D03*
X0193749Y0093417D03*
X0193725Y0093392D03*
X0193725Y0093368D03*
X0193651Y0093294D03*
D972*
X0193663Y0093318D03*
X0193171Y0099765D03*
X0193122Y0099790D03*
X0193122Y0099814D03*
X0193073Y0099864D03*
X0200750Y0099716D03*
X0200799Y0099765D03*
X0200848Y0099839D03*
D973*
X0205093Y0093368D03*
X0205142Y0093343D03*
D974*
X0205081Y0093392D03*
D975*
X0205044Y0093417D03*
D976*
X0205007Y0093441D03*
D977*
X0200528Y0099495D03*
X0200578Y0099544D03*
X0200627Y0099593D03*
X0193786Y0093441D03*
D978*
X0204982Y0093466D03*
D979*
X0204945Y0093491D03*
D980*
X0193811Y0093491D03*
X0193269Y0099642D03*
D981*
X0204921Y0093515D03*
D982*
X0193860Y0093515D03*
D983*
X0204884Y0093540D03*
D984*
X0200602Y0099568D03*
X0200651Y0099618D03*
X0193417Y0099495D03*
X0193368Y0099544D03*
X0193319Y0099593D03*
X0193958Y0093638D03*
X0193909Y0093589D03*
X0193860Y0093540D03*
D985*
X0204847Y0093564D03*
D986*
X0200418Y0099371D03*
X0200492Y0099445D03*
X0200516Y0099470D03*
X0200565Y0099519D03*
X0193454Y0099470D03*
X0193405Y0099519D03*
X0193356Y0099568D03*
X0194020Y0093712D03*
X0193995Y0093687D03*
X0193946Y0093614D03*
X0193897Y0093564D03*
D987*
X0204822Y0093589D03*
D988*
X0204785Y0093614D03*
D989*
X0204748Y0093638D03*
D990*
X0200331Y0099273D03*
X0200381Y0099322D03*
X0193540Y0099371D03*
X0194180Y0093884D03*
X0194131Y0093835D03*
X0194081Y0093786D03*
X0193983Y0093663D03*
D991*
X0204687Y0093687D03*
D992*
X0204650Y0093712D03*
D993*
X0204601Y0093737D03*
D994*
X0194057Y0093737D03*
X0193516Y0099396D03*
D995*
X0204576Y0093761D03*
D996*
X0200467Y0099421D03*
X0193503Y0099421D03*
X0194069Y0093761D03*
D997*
X0204527Y0093786D03*
D998*
X0204502Y0093810D03*
D999*
X0200245Y0099199D03*
X0200344Y0099298D03*
X0200393Y0099347D03*
X0193651Y0099273D03*
X0193602Y0099298D03*
X0193602Y0099322D03*
X0194217Y0093933D03*
X0194217Y0093909D03*
X0194168Y0093860D03*
X0194119Y0093810D03*
D1000*
X0204453Y0093835D03*
D1001*
X0204416Y0093860D03*
D1002*
X0204379Y0093884D03*
D1003*
X0204342Y0093909D03*
D1004*
X0204305Y0093933D03*
D1005*
X0204256Y0093958D03*
D1006*
X0194401Y0094130D03*
X0194352Y0094081D03*
X0194352Y0094057D03*
X0194303Y0094032D03*
X0194254Y0093958D03*
X0193712Y0099199D03*
D1007*
X0204207Y0093983D03*
D1008*
X0200294Y0099224D03*
X0194266Y0093983D03*
D1009*
X0204182Y0094007D03*
D1010*
X0194303Y0094007D03*
D1011*
X0204133Y0094032D03*
D1012*
X0204084Y0094057D03*
D1013*
X0204035Y0094081D03*
D1014*
X0200024Y0098953D03*
X0200098Y0099027D03*
X0200122Y0099052D03*
X0200147Y0099076D03*
X0193872Y0099027D03*
X0193848Y0099052D03*
X0193823Y0099076D03*
X0194438Y0094155D03*
X0194389Y0094106D03*
D1015*
X0203949Y0094130D03*
D1016*
X0203899Y0094155D03*
D1017*
X0203850Y0094180D03*
D1018*
X0199864Y0098781D03*
X0199913Y0098830D03*
X0194598Y0094352D03*
X0194451Y0094180D03*
D1019*
X0203813Y0094204D03*
D1020*
X0194475Y0094204D03*
D1021*
X0203739Y0094229D03*
D1022*
X0194500Y0094229D03*
D1023*
X0203703Y0094253D03*
D1024*
X0194524Y0094253D03*
X0193983Y0098929D03*
D1025*
X0203641Y0094278D03*
D1026*
X0194672Y0094426D03*
X0194574Y0094303D03*
X0194524Y0094278D03*
X0193934Y0098953D03*
D1027*
X0205868Y0094327D03*
D1028*
X0199606Y0094327D03*
D1029*
X0199581Y0094352D03*
X0199556Y0094376D03*
X0199507Y0094426D03*
D1030*
X0205856Y0094376D03*
D1031*
X0205893Y0094401D03*
D1032*
X0199544Y0094401D03*
X0199495Y0094450D03*
D1033*
X0205868Y0094426D03*
D1034*
X0205868Y0094598D03*
X0194697Y0094450D03*
D1035*
X0197022Y0095951D03*
X0205856Y0094475D03*
D1036*
X0199458Y0094475D03*
D1037*
X0199741Y0098658D03*
X0194721Y0094475D03*
D1038*
X0205893Y0094499D03*
D1039*
X0197034Y0094499D03*
D1040*
X0197046Y0094524D03*
X0196997Y0098215D03*
D1041*
X0205905Y0094549D03*
D1042*
X0197047Y0094598D03*
D1043*
X0205880Y0094622D03*
D1044*
X0205917Y0094647D03*
D1045*
X0205868Y0094672D03*
D1046*
X0197034Y0094672D03*
D1047*
X0205942Y0094696D03*
D1048*
X0197047Y0094696D03*
D1049*
X0205868Y0094721D03*
D1050*
X0197034Y0094721D03*
D1051*
X0197034Y0094745D03*
D1052*
X0197046Y0094770D03*
D1053*
X0197034Y0094819D03*
D1054*
X0197034Y0094967D03*
D1055*
X0197034Y0094992D03*
D1056*
X0197034Y0095016D03*
D1057*
X0197034Y0095041D03*
D1058*
X0197034Y0095090D03*
D1059*
X0197034Y0095115D03*
D1060*
X0197034Y0095139D03*
D1061*
X0197034Y0095164D03*
D1062*
X0197034Y0095213D03*
D1063*
X0197034Y0095238D03*
D1064*
X0197034Y0095262D03*
D1065*
X0197034Y0095311D03*
D1066*
X0197034Y0095361D03*
D1067*
X0197034Y0095410D03*
D1068*
X0197034Y0095434D03*
D1069*
X0197034Y0095484D03*
D1070*
X0197034Y0095508D03*
D1071*
X0197034Y0095582D03*
D1072*
X0197022Y0095681D03*
D1073*
X0197022Y0095705D03*
D1074*
X0197022Y0095730D03*
D1075*
X0197022Y0095804D03*
D1076*
X0197022Y0095976D03*
D1077*
X0197010Y0096173D03*
D1078*
X0197022Y0096197D03*
D1079*
X0197010Y0096271D03*
D1080*
X0197010Y0096394D03*
D1081*
X0197022Y0096419D03*
D1082*
X0197034Y0096443D03*
D1083*
X0197034Y0096640D03*
D1084*
X0197034Y0096763D03*
D1085*
X0197034Y0096788D03*
D1086*
X0197034Y0096935D03*
D1087*
X0197034Y0096960D03*
D1088*
X0197034Y0097034D03*
D1089*
X0197034Y0097058D03*
D1090*
X0197022Y0097083D03*
D1091*
X0197034Y0097132D03*
D1092*
X0197034Y0097157D03*
D1093*
X0197022Y0097181D03*
D1094*
X0197034Y0097206D03*
D1095*
X0197022Y0097255D03*
D1096*
X0197022Y0097280D03*
D1097*
X0197022Y0097329D03*
D1098*
X0197022Y0097354D03*
D1099*
X0197022Y0097378D03*
D1100*
X0197034Y0097403D03*
D1101*
X0197010Y0097428D03*
D1102*
X0197022Y0097501D03*
D1103*
X0197010Y0097624D03*
D1104*
X0197022Y0097649D03*
D1105*
X0197010Y0097698D03*
D1106*
X0197022Y0097723D03*
D1107*
X0197010Y0097747D03*
D1108*
X0197010Y0097772D03*
D1109*
X0197022Y0097797D03*
D1110*
X0197010Y0097821D03*
D1111*
X0197010Y0097846D03*
D1112*
X0197022Y0097870D03*
D1113*
X0197022Y0097920D03*
D1114*
X0197022Y0097944D03*
D1115*
X0197022Y0097994D03*
D1116*
X0197010Y0098018D03*
D1117*
X0197010Y0098043D03*
D1118*
X0197010Y0098092D03*
D1119*
X0197010Y0098117D03*
D1120*
X0197010Y0098141D03*
D1121*
X0197010Y0098166D03*
D1122*
X0197010Y0098190D03*
D1123*
X0196997Y0098240D03*
D1124*
X0199384Y0098264D03*
X0199483Y0098387D03*
D1125*
X0194623Y0098264D03*
D1126*
X0194574Y0098313D03*
X0199396Y0098289D03*
D1127*
X0199421Y0098313D03*
X0194598Y0098289D03*
X0194549Y0098338D03*
D1128*
X0194438Y0098461D03*
X0194365Y0098535D03*
X0199458Y0098338D03*
D1129*
X0199483Y0098363D03*
D1130*
X0194524Y0098363D03*
D1131*
X0194500Y0098387D03*
X0194451Y0098436D03*
D1132*
X0194401Y0098486D03*
X0199519Y0098412D03*
D1133*
X0199593Y0098486D03*
X0194475Y0098412D03*
X0194278Y0098609D03*
D1134*
X0194377Y0098510D03*
X0199544Y0098436D03*
D1135*
X0199569Y0098461D03*
D1136*
X0199606Y0098510D03*
X0199729Y0098633D03*
X0194266Y0098633D03*
X0194217Y0098682D03*
D1137*
X0194328Y0098559D03*
X0199643Y0098535D03*
D1138*
X0199655Y0098559D03*
X0199679Y0098584D03*
X0194315Y0098584D03*
X0194192Y0098707D03*
X0194118Y0098781D03*
D1139*
X0194168Y0098732D03*
X0194242Y0098658D03*
X0199704Y0098609D03*
D1140*
X0199778Y0098682D03*
X0199950Y0098879D03*
X0194143Y0098756D03*
X0194020Y0098879D03*
D1141*
X0199790Y0098707D03*
X0199889Y0098806D03*
D1142*
X0199815Y0098732D03*
D1143*
X0199839Y0098756D03*
D1144*
X0199938Y0098855D03*
X0199987Y0098904D03*
X0193934Y0098978D03*
D1145*
X0193995Y0098904D03*
X0194044Y0098855D03*
D1146*
X0193909Y0099002D03*
X0200012Y0098929D03*
D1147*
X0200049Y0098978D03*
D1148*
X0200073Y0099002D03*
X0193774Y0099125D03*
D1149*
X0193762Y0099150D03*
X0193811Y0099101D03*
X0200159Y0099101D03*
X0200208Y0099150D03*
D1150*
X0200184Y0099125D03*
X0200233Y0099175D03*
X0193737Y0099175D03*
D1151*
X0193688Y0099224D03*
D1152*
X0193651Y0099248D03*
X0200294Y0099248D03*
D1153*
X0193565Y0099347D03*
X0193466Y0099445D03*
D1154*
X0200442Y0099396D03*
D1155*
X0200664Y0099642D03*
D1156*
X0193257Y0099667D03*
D1157*
X0193011Y0099913D03*
X0200934Y0099913D03*
M02*
