%
M48
M72
T01C0.02400
T02C0.03150
T03C0.03200
T04C0.03543
T05C0.03937
T06C0.04000
T07C0.12598
%
T01
X125748Y39800
X145748Y39800
T02
X230250Y125950
X163350Y160500
X108237Y160512
T03
X94499Y130984
X64499Y130984
X159033Y177971
X168975Y187183
X178179Y196671
X192321Y182529
X183117Y173041
X173175Y163829
X248031Y157362
X258031Y157362
X258031Y174882
X248031Y174882
X248031Y192500
X258031Y192500
X213243Y42296
X193243Y42296
X176535Y39800
X166535Y39800
X104488Y39800
X94488Y39800
X74961Y39800
X64961Y39800
T04
X60750Y75300
X70750Y75300
X80750Y75300
X90750Y75300
X100750Y75300
X110750Y75300
X120750Y75300
X130750Y75300
X140750Y75300
X150750Y75300
X160750Y75300
X170750Y75300
X180750Y75300
X180750Y105300
X170750Y105300
X160750Y105300
X150750Y105300
X140750Y105300
X130750Y105300
X120750Y105300
X110750Y105300
X100750Y105300
X90750Y105300
X80750Y105300
X70750Y105300
X60750Y105300
X50750Y105300
X50750Y75300
T05
X115000Y15000
X125000Y15000
X135000Y15000
X145000Y15000
X155000Y15000
X165000Y15000
X175000Y15000
X185000Y15000
X205000Y15000
X215000Y15000
X225000Y15000
X235000Y15000
X245000Y15000
X255000Y15000
X255000Y205000
X245000Y205000
X235000Y205000
X225000Y205000
X215000Y205000
X205000Y205000
X195000Y205000
X185000Y205000
X169000Y205000
X159000Y205000
X149000Y205000
X139000Y205000
X129000Y205000
X119000Y205000
X109000Y205000
X99000Y205000
X89000Y205000
X89000Y205000
X79000Y205000
X79000Y205000
T06
X20200Y39800
X30900Y39800
X41600Y39800
X64517Y147712
X82317Y147712
X82317Y173312
X64517Y173312
X244514Y101544
X244514Y91544
X254514Y91544
X254514Y101544
X254514Y81544
X244514Y81544
T07
X265000Y35000
X265000Y145000
X65000Y205000
X60000Y15000
M30
