G75*
%MOIN*%
%OFA0B0*%
%FSLAX25Y25*%
%IPPOS*%
%LPD*%
%AMOC8*
5,1,8,0,0,1.08239X$1,22.5*
%
%ADD10R,0.06800X0.06800*%
%ADD11OC8,0.06800*%
%ADD12OC8,0.06000*%
%ADD13C,0.06800*%
%ADD14OC8,0.07400*%
%ADD15C,0.13398*%
%ADD16OC8,0.07000*%
%ADD17C,0.07000*%
%ADD18C,0.01200*%
%ADD19C,0.08200*%
%ADD20C,0.06706*%
%ADD21C,0.05200*%
%ADD22OC8,0.07100*%
%ADD23OC8,0.05800*%
D10*
X0244514Y0101544D03*
D11*
X0244514Y0091544D03*
X0254514Y0091544D03*
X0254514Y0101544D03*
X0254514Y0081544D03*
X0244514Y0081544D03*
D12*
X0213243Y0042296D03*
X0193243Y0042296D03*
X0094499Y0130984D03*
X0064499Y0130984D03*
X0248031Y0157362D03*
X0258031Y0157362D03*
X0258031Y0174882D03*
X0248031Y0174882D03*
X0248031Y0192500D03*
X0258031Y0192500D03*
D13*
X0082317Y0176312D02*
X0082317Y0170312D01*
X0064517Y0170312D02*
X0064517Y0176312D01*
X0064517Y0150712D02*
X0064517Y0144712D01*
X0082317Y0144712D02*
X0082317Y0150712D01*
D14*
X0079000Y0205000D03*
X0079000Y0205000D03*
X0089000Y0205000D03*
X0089000Y0205000D03*
X0099000Y0205000D03*
X0109000Y0205000D03*
X0119000Y0205000D03*
X0129000Y0205000D03*
X0139000Y0205000D03*
X0149000Y0205000D03*
X0159000Y0205000D03*
X0169000Y0205000D03*
X0185000Y0205000D03*
X0195000Y0205000D03*
X0205000Y0205000D03*
X0215000Y0205000D03*
X0225000Y0205000D03*
X0235000Y0205000D03*
X0245000Y0205000D03*
X0255000Y0205000D03*
X0255000Y0015000D03*
X0245000Y0015000D03*
X0235000Y0015000D03*
X0225000Y0015000D03*
X0215000Y0015000D03*
X0205000Y0015000D03*
X0185000Y0015000D03*
X0175000Y0015000D03*
X0165000Y0015000D03*
X0155000Y0015000D03*
X0145000Y0015000D03*
X0135000Y0015000D03*
X0125000Y0015000D03*
X0115000Y0015000D03*
D15*
X0060000Y0015000D03*
X0265000Y0035000D03*
X0265000Y0145000D03*
X0065000Y0205000D03*
D16*
X0074961Y0039800D03*
D17*
X0064961Y0039800D03*
D18*
X0173569Y0162030D02*
X0174169Y0161430D01*
X0172181Y0161430D01*
X0170776Y0162835D01*
X0170776Y0164823D01*
X0172181Y0166228D01*
X0174169Y0166228D01*
X0175574Y0164823D01*
X0175574Y0162835D01*
X0174169Y0161430D01*
X0173796Y0162330D01*
X0172554Y0162330D01*
X0171676Y0163208D01*
X0171676Y0164450D01*
X0172554Y0165328D01*
X0173796Y0165328D01*
X0174674Y0164450D01*
X0174674Y0163208D01*
X0173796Y0162330D01*
X0173423Y0163230D01*
X0172927Y0163230D01*
X0172576Y0163581D01*
X0172576Y0164077D01*
X0172927Y0164428D01*
X0173423Y0164428D01*
X0173774Y0164077D01*
X0173774Y0163581D01*
X0173423Y0163230D01*
X0183511Y0171242D02*
X0184111Y0170642D01*
X0182123Y0170642D01*
X0180718Y0172047D01*
X0180718Y0174035D01*
X0182123Y0175440D01*
X0184111Y0175440D01*
X0185516Y0174035D01*
X0185516Y0172047D01*
X0184111Y0170642D01*
X0183738Y0171542D01*
X0182496Y0171542D01*
X0181618Y0172420D01*
X0181618Y0173662D01*
X0182496Y0174540D01*
X0183738Y0174540D01*
X0184616Y0173662D01*
X0184616Y0172420D01*
X0183738Y0171542D01*
X0183365Y0172442D01*
X0182869Y0172442D01*
X0182518Y0172793D01*
X0182518Y0173289D01*
X0182869Y0173640D01*
X0183365Y0173640D01*
X0183716Y0173289D01*
X0183716Y0172793D01*
X0183365Y0172442D01*
X0192715Y0180730D02*
X0193315Y0180130D01*
X0191327Y0180130D01*
X0189922Y0181535D01*
X0189922Y0183523D01*
X0191327Y0184928D01*
X0193315Y0184928D01*
X0194720Y0183523D01*
X0194720Y0181535D01*
X0193315Y0180130D01*
X0192942Y0181030D01*
X0191700Y0181030D01*
X0190822Y0181908D01*
X0190822Y0183150D01*
X0191700Y0184028D01*
X0192942Y0184028D01*
X0193820Y0183150D01*
X0193820Y0181908D01*
X0192942Y0181030D01*
X0192569Y0181930D01*
X0192073Y0181930D01*
X0191722Y0182281D01*
X0191722Y0182777D01*
X0192073Y0183128D01*
X0192569Y0183128D01*
X0192920Y0182777D01*
X0192920Y0182281D01*
X0192569Y0181930D01*
X0178573Y0194872D02*
X0179173Y0194272D01*
X0177185Y0194272D01*
X0175780Y0195677D01*
X0175780Y0197665D01*
X0177185Y0199070D01*
X0179173Y0199070D01*
X0180578Y0197665D01*
X0180578Y0195677D01*
X0179173Y0194272D01*
X0178800Y0195172D01*
X0177558Y0195172D01*
X0176680Y0196050D01*
X0176680Y0197292D01*
X0177558Y0198170D01*
X0178800Y0198170D01*
X0179678Y0197292D01*
X0179678Y0196050D01*
X0178800Y0195172D01*
X0178427Y0196072D01*
X0177931Y0196072D01*
X0177580Y0196423D01*
X0177580Y0196919D01*
X0177931Y0197270D01*
X0178427Y0197270D01*
X0178778Y0196919D01*
X0178778Y0196423D01*
X0178427Y0196072D01*
X0169369Y0185384D02*
X0169969Y0184784D01*
X0167981Y0184784D01*
X0166576Y0186189D01*
X0166576Y0188177D01*
X0167981Y0189582D01*
X0169969Y0189582D01*
X0171374Y0188177D01*
X0171374Y0186189D01*
X0169969Y0184784D01*
X0169596Y0185684D01*
X0168354Y0185684D01*
X0167476Y0186562D01*
X0167476Y0187804D01*
X0168354Y0188682D01*
X0169596Y0188682D01*
X0170474Y0187804D01*
X0170474Y0186562D01*
X0169596Y0185684D01*
X0169223Y0186584D01*
X0168727Y0186584D01*
X0168376Y0186935D01*
X0168376Y0187431D01*
X0168727Y0187782D01*
X0169223Y0187782D01*
X0169574Y0187431D01*
X0169574Y0186935D01*
X0169223Y0186584D01*
X0159427Y0176172D02*
X0160027Y0175572D01*
X0158039Y0175572D01*
X0156634Y0176977D01*
X0156634Y0178965D01*
X0158039Y0180370D01*
X0160027Y0180370D01*
X0161432Y0178965D01*
X0161432Y0176977D01*
X0160027Y0175572D01*
X0159654Y0176472D01*
X0158412Y0176472D01*
X0157534Y0177350D01*
X0157534Y0178592D01*
X0158412Y0179470D01*
X0159654Y0179470D01*
X0160532Y0178592D01*
X0160532Y0177350D01*
X0159654Y0176472D01*
X0159281Y0177372D01*
X0158785Y0177372D01*
X0158434Y0177723D01*
X0158434Y0178219D01*
X0158785Y0178570D01*
X0159281Y0178570D01*
X0159632Y0178219D01*
X0159632Y0177723D01*
X0159281Y0177372D01*
D19*
X0020200Y0039800D03*
X0030900Y0039800D03*
X0041600Y0039800D03*
D20*
X0050750Y0069394D02*
X0050750Y0075300D01*
X0060750Y0075300D02*
X0060750Y0069394D01*
X0070750Y0069394D02*
X0070750Y0075300D01*
X0080750Y0075300D02*
X0080750Y0069394D01*
X0090750Y0069394D02*
X0090750Y0075300D01*
X0100750Y0075300D02*
X0100750Y0069394D01*
X0110750Y0069394D02*
X0110750Y0075300D01*
X0120750Y0075300D02*
X0120750Y0069394D01*
X0130750Y0069394D02*
X0130750Y0075300D01*
X0140750Y0075300D02*
X0140750Y0069394D01*
X0150750Y0069394D02*
X0150750Y0075300D01*
X0160750Y0075300D02*
X0160750Y0069394D01*
X0170750Y0069394D02*
X0170750Y0075300D01*
X0180750Y0075300D02*
X0180750Y0069394D01*
X0180750Y0105300D02*
X0180750Y0111206D01*
X0170750Y0111206D02*
X0170750Y0105300D01*
X0160750Y0105300D02*
X0160750Y0111206D01*
X0150750Y0111206D02*
X0150750Y0105300D01*
X0140750Y0105300D02*
X0140750Y0111206D01*
X0130750Y0111206D02*
X0130750Y0105300D01*
X0120750Y0105300D02*
X0120750Y0111206D01*
X0110750Y0111206D02*
X0110750Y0105300D01*
X0100750Y0105300D02*
X0100750Y0111206D01*
X0090750Y0111206D02*
X0090750Y0105300D01*
X0080750Y0105300D02*
X0080750Y0111206D01*
X0070750Y0111206D02*
X0070750Y0105300D01*
X0060750Y0105300D02*
X0060750Y0111206D01*
X0050750Y0111206D02*
X0050750Y0105300D01*
D21*
X0125748Y0042000D02*
X0125748Y0037600D01*
X0145748Y0037600D02*
X0145748Y0042000D01*
D22*
X0166535Y0039800D03*
X0176535Y0039800D03*
X0104488Y0039800D03*
X0094488Y0039800D03*
D23*
X0230250Y0125950D03*
X0163350Y0160500D03*
X0108237Y0160512D03*
M02*
