%
M48
M72
T01C0.03150
T02C0.03200
T03C0.03543
T04C0.03937
T05C0.04000
T06C0.12598
%
T01
X106500Y155787
X160200Y163650
X230250Y125950
T02
X248031Y157362
X258031Y157362
X258031Y174882
X248031Y174882
X248031Y192500
X258031Y192500
X192321Y182529
X183117Y173041
X173175Y163829
X159033Y177971
X168975Y187183
X178179Y196671
X94499Y130984
X64499Y130984
X155043Y41146
X175043Y41146
X83083Y39912
X73083Y39912
T03
X70750Y75300
X60750Y75300
X50750Y75300
X80750Y75300
X90750Y75300
X100750Y75300
X110750Y75300
X120750Y75300
X130750Y75300
X140750Y75300
X150750Y75300
X160750Y75300
X170750Y75300
X180750Y75300
X180750Y105300
X170750Y105300
X160750Y105300
X150750Y105300
X140750Y105300
X130750Y105300
X120750Y105300
X110750Y105300
X100750Y105300
X90750Y105300
X80750Y105300
X70750Y105300
X60750Y105300
X50750Y105300
T04
X115000Y15000
X125000Y15000
X135000Y15000
X145000Y15000
X155000Y15000
X165000Y15000
X175000Y15000
X185000Y15000
X205000Y15000
X215000Y15000
X225000Y15000
X235000Y15000
X245000Y15000
X255000Y15000
X255000Y205000
X245000Y205000
X235000Y205000
X225000Y205000
X215000Y205000
X205000Y205000
X195000Y205000
X185000Y205000
X169000Y205000
X159000Y205000
X149000Y205000
X139000Y205000
X129000Y205000
X119000Y205000
X109000Y205000
X99000Y205000
X89000Y205000
X89000Y205000
X79000Y205000
X79000Y205000
T05
X20200Y39800
X30900Y39800
X41600Y39800
X64517Y142987
X82317Y142987
X82317Y168587
X64517Y168587
X244514Y101544
X244514Y91544
X254514Y91544
X254514Y101544
X254514Y81544
X244514Y81544
T06
X265000Y35000
X265000Y145000
X65000Y205000
X60000Y15000
M30
