G75*
%MOIN*%
%OFA0B0*%
%FSLAX25Y25*%
%IPPOS*%
%LPD*%
%AMOC8*
5,1,8,0,0,1.08239X$1,22.5*
%
%ADD10R,0.06000X0.06000*%
%ADD11OC8,0.06000*%
%ADD12OC8,0.05200*%
%ADD13C,0.06000*%
%ADD14OC8,0.06600*%
%ADD15OC8,0.06200*%
%ADD16C,0.06200*%
%ADD17C,0.01040*%
%ADD18C,0.07400*%
%ADD19C,0.05906*%
%ADD20C,0.04400*%
%ADD21OC8,0.06300*%
%ADD22C,0.02400*%
%ADD23C,0.05000*%
%ADD24OC8,0.05000*%
D10*
X0244514Y0101544D03*
D11*
X0244514Y0091544D03*
X0254514Y0091544D03*
X0254514Y0101544D03*
X0254514Y0081544D03*
X0244514Y0081544D03*
D12*
X0213243Y0042296D03*
X0193243Y0042296D03*
X0094499Y0130984D03*
X0064499Y0130984D03*
X0248031Y0157362D03*
X0258031Y0157362D03*
X0258031Y0174882D03*
X0248031Y0174882D03*
X0248031Y0192500D03*
X0258031Y0192500D03*
D13*
X0082317Y0176312D02*
X0082317Y0170312D01*
X0064517Y0170312D02*
X0064517Y0176312D01*
X0064517Y0150712D02*
X0064517Y0144712D01*
X0082317Y0144712D02*
X0082317Y0150712D01*
D14*
X0079000Y0205000D03*
X0079000Y0205000D03*
X0089000Y0205000D03*
X0089000Y0205000D03*
X0099000Y0205000D03*
X0109000Y0205000D03*
X0119000Y0205000D03*
X0129000Y0205000D03*
X0139000Y0205000D03*
X0149000Y0205000D03*
X0159000Y0205000D03*
X0169000Y0205000D03*
X0185000Y0205000D03*
X0195000Y0205000D03*
X0205000Y0205000D03*
X0215000Y0205000D03*
X0225000Y0205000D03*
X0235000Y0205000D03*
X0245000Y0205000D03*
X0255000Y0205000D03*
X0255000Y0015000D03*
X0245000Y0015000D03*
X0235000Y0015000D03*
X0225000Y0015000D03*
X0215000Y0015000D03*
X0205000Y0015000D03*
X0185000Y0015000D03*
X0175000Y0015000D03*
X0165000Y0015000D03*
X0155000Y0015000D03*
X0145000Y0015000D03*
X0135000Y0015000D03*
X0125000Y0015000D03*
X0115000Y0015000D03*
D15*
X0074961Y0039800D03*
D16*
X0064961Y0039800D03*
D17*
X0173516Y0162270D02*
X0174036Y0161750D01*
X0172314Y0161750D01*
X0171096Y0162968D01*
X0171096Y0164690D01*
X0172314Y0165908D01*
X0174036Y0165908D01*
X0175254Y0164690D01*
X0175254Y0162968D01*
X0174036Y0161750D01*
X0173713Y0162530D01*
X0172637Y0162530D01*
X0171876Y0163291D01*
X0171876Y0164367D01*
X0172637Y0165128D01*
X0173713Y0165128D01*
X0174474Y0164367D01*
X0174474Y0163291D01*
X0173713Y0162530D01*
X0173390Y0163310D01*
X0172960Y0163310D01*
X0172656Y0163614D01*
X0172656Y0164044D01*
X0172960Y0164348D01*
X0173390Y0164348D01*
X0173694Y0164044D01*
X0173694Y0163614D01*
X0173390Y0163310D01*
X0183458Y0171482D02*
X0183978Y0170962D01*
X0182256Y0170962D01*
X0181038Y0172180D01*
X0181038Y0173902D01*
X0182256Y0175120D01*
X0183978Y0175120D01*
X0185196Y0173902D01*
X0185196Y0172180D01*
X0183978Y0170962D01*
X0183655Y0171742D01*
X0182579Y0171742D01*
X0181818Y0172503D01*
X0181818Y0173579D01*
X0182579Y0174340D01*
X0183655Y0174340D01*
X0184416Y0173579D01*
X0184416Y0172503D01*
X0183655Y0171742D01*
X0183332Y0172522D01*
X0182902Y0172522D01*
X0182598Y0172826D01*
X0182598Y0173256D01*
X0182902Y0173560D01*
X0183332Y0173560D01*
X0183636Y0173256D01*
X0183636Y0172826D01*
X0183332Y0172522D01*
X0192662Y0180970D02*
X0193182Y0180450D01*
X0191460Y0180450D01*
X0190242Y0181668D01*
X0190242Y0183390D01*
X0191460Y0184608D01*
X0193182Y0184608D01*
X0194400Y0183390D01*
X0194400Y0181668D01*
X0193182Y0180450D01*
X0192859Y0181230D01*
X0191783Y0181230D01*
X0191022Y0181991D01*
X0191022Y0183067D01*
X0191783Y0183828D01*
X0192859Y0183828D01*
X0193620Y0183067D01*
X0193620Y0181991D01*
X0192859Y0181230D01*
X0192536Y0182010D01*
X0192106Y0182010D01*
X0191802Y0182314D01*
X0191802Y0182744D01*
X0192106Y0183048D01*
X0192536Y0183048D01*
X0192840Y0182744D01*
X0192840Y0182314D01*
X0192536Y0182010D01*
X0178520Y0195112D02*
X0179040Y0194592D01*
X0177318Y0194592D01*
X0176100Y0195810D01*
X0176100Y0197532D01*
X0177318Y0198750D01*
X0179040Y0198750D01*
X0180258Y0197532D01*
X0180258Y0195810D01*
X0179040Y0194592D01*
X0178717Y0195372D01*
X0177641Y0195372D01*
X0176880Y0196133D01*
X0176880Y0197209D01*
X0177641Y0197970D01*
X0178717Y0197970D01*
X0179478Y0197209D01*
X0179478Y0196133D01*
X0178717Y0195372D01*
X0178394Y0196152D01*
X0177964Y0196152D01*
X0177660Y0196456D01*
X0177660Y0196886D01*
X0177964Y0197190D01*
X0178394Y0197190D01*
X0178698Y0196886D01*
X0178698Y0196456D01*
X0178394Y0196152D01*
X0169316Y0185624D02*
X0169836Y0185104D01*
X0168114Y0185104D01*
X0166896Y0186322D01*
X0166896Y0188044D01*
X0168114Y0189262D01*
X0169836Y0189262D01*
X0171054Y0188044D01*
X0171054Y0186322D01*
X0169836Y0185104D01*
X0169513Y0185884D01*
X0168437Y0185884D01*
X0167676Y0186645D01*
X0167676Y0187721D01*
X0168437Y0188482D01*
X0169513Y0188482D01*
X0170274Y0187721D01*
X0170274Y0186645D01*
X0169513Y0185884D01*
X0169190Y0186664D01*
X0168760Y0186664D01*
X0168456Y0186968D01*
X0168456Y0187398D01*
X0168760Y0187702D01*
X0169190Y0187702D01*
X0169494Y0187398D01*
X0169494Y0186968D01*
X0169190Y0186664D01*
X0159374Y0176412D02*
X0159894Y0175892D01*
X0158172Y0175892D01*
X0156954Y0177110D01*
X0156954Y0178832D01*
X0158172Y0180050D01*
X0159894Y0180050D01*
X0161112Y0178832D01*
X0161112Y0177110D01*
X0159894Y0175892D01*
X0159571Y0176672D01*
X0158495Y0176672D01*
X0157734Y0177433D01*
X0157734Y0178509D01*
X0158495Y0179270D01*
X0159571Y0179270D01*
X0160332Y0178509D01*
X0160332Y0177433D01*
X0159571Y0176672D01*
X0159248Y0177452D01*
X0158818Y0177452D01*
X0158514Y0177756D01*
X0158514Y0178186D01*
X0158818Y0178490D01*
X0159248Y0178490D01*
X0159552Y0178186D01*
X0159552Y0177756D01*
X0159248Y0177452D01*
D18*
X0041600Y0039800D03*
X0030900Y0039800D03*
X0020200Y0039800D03*
D19*
X0050750Y0069394D02*
X0050750Y0075300D01*
X0060750Y0075300D02*
X0060750Y0069394D01*
X0070750Y0069394D02*
X0070750Y0075300D01*
X0080750Y0075300D02*
X0080750Y0069394D01*
X0090750Y0069394D02*
X0090750Y0075300D01*
X0100750Y0075300D02*
X0100750Y0069394D01*
X0110750Y0069394D02*
X0110750Y0075300D01*
X0120750Y0075300D02*
X0120750Y0069394D01*
X0130750Y0069394D02*
X0130750Y0075300D01*
X0140750Y0075300D02*
X0140750Y0069394D01*
X0150750Y0069394D02*
X0150750Y0075300D01*
X0160750Y0075300D02*
X0160750Y0069394D01*
X0170750Y0069394D02*
X0170750Y0075300D01*
X0180750Y0075300D02*
X0180750Y0069394D01*
X0180750Y0105300D02*
X0180750Y0111206D01*
X0170750Y0111206D02*
X0170750Y0105300D01*
X0160750Y0105300D02*
X0160750Y0111206D01*
X0150750Y0111206D02*
X0150750Y0105300D01*
X0140750Y0105300D02*
X0140750Y0111206D01*
X0130750Y0111206D02*
X0130750Y0105300D01*
X0120750Y0105300D02*
X0120750Y0111206D01*
X0110750Y0111206D02*
X0110750Y0105300D01*
X0100750Y0105300D02*
X0100750Y0111206D01*
X0090750Y0111206D02*
X0090750Y0105300D01*
X0080750Y0105300D02*
X0080750Y0111206D01*
X0070750Y0111206D02*
X0070750Y0105300D01*
X0060750Y0105300D02*
X0060750Y0111206D01*
X0050750Y0111206D02*
X0050750Y0105300D01*
D20*
X0125748Y0042000D02*
X0125748Y0037600D01*
X0145748Y0037600D02*
X0145748Y0042000D01*
D21*
X0166535Y0039800D03*
X0176535Y0039800D03*
X0104488Y0039800D03*
X0094488Y0039800D03*
D22*
X0010378Y0010512D02*
X0010200Y0010689D01*
X0010200Y0125079D01*
X0039196Y0125079D01*
X0039093Y0124976D01*
X0033576Y0119459D01*
X0032413Y0116652D01*
X0032413Y0113614D01*
X0032413Y0078849D01*
X0033576Y0076042D01*
X0035724Y0073893D01*
X0040792Y0068826D01*
X0042660Y0068052D01*
X0042660Y0067785D01*
X0043892Y0064812D01*
X0046168Y0062536D01*
X0049141Y0061305D01*
X0052359Y0061305D01*
X0055332Y0062536D01*
X0055750Y0062954D01*
X0056168Y0062536D01*
X0059141Y0061305D01*
X0062359Y0061305D01*
X0065332Y0062536D01*
X0065750Y0062954D01*
X0066168Y0062536D01*
X0069141Y0061305D01*
X0072359Y0061305D01*
X0075332Y0062536D01*
X0075750Y0062954D01*
X0076168Y0062536D01*
X0079141Y0061305D01*
X0082359Y0061305D01*
X0085332Y0062536D01*
X0085750Y0062954D01*
X0086168Y0062536D01*
X0089141Y0061305D01*
X0092359Y0061305D01*
X0095332Y0062536D01*
X0095750Y0062954D01*
X0096168Y0062536D01*
X0099141Y0061305D01*
X0102359Y0061305D01*
X0103127Y0061623D01*
X0104276Y0058849D01*
X0111099Y0052026D01*
X0113906Y0050863D01*
X0185606Y0050863D01*
X0185606Y0045600D01*
X0185506Y0045500D01*
X0185506Y0039091D01*
X0185606Y0038991D01*
X0185606Y0034606D01*
X0185137Y0034137D01*
X0172592Y0034137D01*
X0174822Y0036367D01*
X0174822Y0043233D01*
X0169968Y0048087D01*
X0163103Y0048087D01*
X0162453Y0047437D01*
X0150687Y0047437D01*
X0149904Y0048220D01*
X0147207Y0049337D01*
X0144289Y0049337D01*
X0141592Y0048220D01*
X0139528Y0046156D01*
X0138411Y0043459D01*
X0138411Y0042043D01*
X0138111Y0041319D01*
X0138111Y0038281D01*
X0138411Y0037557D01*
X0138411Y0036141D01*
X0139528Y0033444D01*
X0141592Y0031380D01*
X0144289Y0030263D01*
X0147207Y0030263D01*
X0149904Y0031380D01*
X0150687Y0032163D01*
X0154581Y0032163D01*
X0150674Y0028256D01*
X0148526Y0026108D01*
X0147419Y0023437D01*
X0142637Y0023437D01*
X0142637Y0023539D01*
X0141474Y0026346D01*
X0139326Y0028494D01*
X0132724Y0035096D01*
X0132663Y0035122D01*
X0133085Y0036141D01*
X0133085Y0037557D01*
X0133385Y0038281D01*
X0133385Y0041319D01*
X0133085Y0042043D01*
X0133085Y0043459D01*
X0131968Y0046156D01*
X0129904Y0048220D01*
X0127207Y0049337D01*
X0124289Y0049337D01*
X0121592Y0048220D01*
X0120809Y0047437D01*
X0108571Y0047437D01*
X0107921Y0048087D01*
X0101056Y0048087D01*
X0096201Y0043233D01*
X0096201Y0036367D01*
X0096310Y0036259D01*
X0072410Y0036259D01*
X0073198Y0038162D01*
X0073198Y0041438D01*
X0072598Y0042887D01*
X0072598Y0049091D01*
X0071435Y0051898D01*
X0069287Y0054046D01*
X0064458Y0058874D01*
X0061651Y0060037D01*
X0023452Y0060037D01*
X0020645Y0058874D01*
X0018497Y0056726D01*
X0013726Y0051955D01*
X0012563Y0049148D01*
X0012563Y0044455D01*
X0011363Y0041558D01*
X0011363Y0038042D01*
X0012708Y0034794D01*
X0015194Y0032308D01*
X0018442Y0030963D01*
X0021958Y0030963D01*
X0023263Y0031504D01*
X0023263Y0030696D01*
X0024426Y0027889D01*
X0028019Y0024296D01*
X0030167Y0022148D01*
X0032974Y0020985D01*
X0050177Y0020985D01*
X0049284Y0019439D01*
X0048501Y0016514D01*
X0048501Y0013486D01*
X0049284Y0010561D01*
X0049313Y0010512D01*
X0010378Y0010512D01*
X0010200Y0012196D02*
X0048847Y0012196D01*
X0048501Y0014594D02*
X0010200Y0014594D01*
X0010200Y0016993D02*
X0048629Y0016993D01*
X0049272Y0019391D02*
X0010200Y0019391D01*
X0010200Y0021790D02*
X0031031Y0021790D01*
X0028126Y0024188D02*
X0010200Y0024188D01*
X0010200Y0026587D02*
X0025728Y0026587D01*
X0023972Y0028985D02*
X0010200Y0028985D01*
X0010200Y0031384D02*
X0017427Y0031384D01*
X0013720Y0033782D02*
X0010200Y0033782D01*
X0010200Y0036181D02*
X0012134Y0036181D01*
X0011363Y0038579D02*
X0010200Y0038579D01*
X0010200Y0040978D02*
X0011363Y0040978D01*
X0012116Y0043376D02*
X0010200Y0043376D01*
X0010200Y0045775D02*
X0012563Y0045775D01*
X0012563Y0048173D02*
X0010200Y0048173D01*
X0010200Y0050572D02*
X0013153Y0050572D01*
X0014741Y0052970D02*
X0010200Y0052970D01*
X0010200Y0055369D02*
X0017140Y0055369D01*
X0019538Y0057767D02*
X0010200Y0057767D01*
X0010200Y0060166D02*
X0103730Y0060166D01*
X0105358Y0057767D02*
X0065565Y0057767D01*
X0067964Y0055369D02*
X0107756Y0055369D01*
X0110155Y0052970D02*
X0070363Y0052970D01*
X0071984Y0050572D02*
X0185606Y0050572D01*
X0185606Y0048173D02*
X0149951Y0048173D01*
X0141545Y0048173D02*
X0129951Y0048173D01*
X0132126Y0045775D02*
X0139370Y0045775D01*
X0138411Y0043376D02*
X0133085Y0043376D01*
X0133385Y0040978D02*
X0138111Y0040978D01*
X0138111Y0038579D02*
X0133385Y0038579D01*
X0133085Y0036181D02*
X0138411Y0036181D01*
X0139388Y0033782D02*
X0134038Y0033782D01*
X0136437Y0031384D02*
X0141588Y0031384D01*
X0138835Y0028985D02*
X0151403Y0028985D01*
X0149908Y0031384D02*
X0153802Y0031384D01*
X0149005Y0026587D02*
X0141234Y0026587D01*
X0142368Y0024188D02*
X0147731Y0024188D01*
X0163069Y0018863D02*
X0176931Y0018863D01*
X0176563Y0018495D01*
X0176563Y0011505D01*
X0177556Y0010512D01*
X0162444Y0010512D01*
X0163437Y0011505D01*
X0163437Y0018495D01*
X0163069Y0018863D01*
X0163437Y0016993D02*
X0176563Y0016993D01*
X0176563Y0014594D02*
X0163437Y0014594D01*
X0163437Y0012196D02*
X0176563Y0012196D01*
X0192444Y0010512D02*
X0193437Y0011505D01*
X0193437Y0018495D01*
X0192117Y0019815D01*
X0192626Y0020026D01*
X0194774Y0022174D01*
X0199717Y0027117D01*
X0200880Y0029924D01*
X0200880Y0038991D01*
X0200980Y0039091D01*
X0200980Y0045500D01*
X0200880Y0045600D01*
X0200880Y0050863D01*
X0254146Y0050863D01*
X0257185Y0050863D01*
X0259991Y0052026D01*
X0267276Y0059310D01*
X0269424Y0061459D01*
X0269800Y0062366D01*
X0269800Y0045507D01*
X0269439Y0045716D01*
X0266514Y0046499D01*
X0263486Y0046499D01*
X0260561Y0045716D01*
X0257939Y0044202D01*
X0255798Y0042061D01*
X0254284Y0039439D01*
X0253501Y0036514D01*
X0253501Y0033486D01*
X0254284Y0030561D01*
X0255798Y0027939D01*
X0257939Y0025798D01*
X0259724Y0024768D01*
X0259724Y0022207D01*
X0258495Y0023437D01*
X0251505Y0023437D01*
X0250000Y0021932D01*
X0248495Y0023437D01*
X0241505Y0023437D01*
X0240000Y0021932D01*
X0238495Y0023437D01*
X0231505Y0023437D01*
X0230000Y0021932D01*
X0228495Y0023437D01*
X0221505Y0023437D01*
X0220000Y0021932D01*
X0218495Y0023437D01*
X0211505Y0023437D01*
X0210000Y0021932D01*
X0208495Y0023437D01*
X0201505Y0023437D01*
X0196563Y0018495D01*
X0196563Y0011505D01*
X0197556Y0010512D01*
X0192444Y0010512D01*
X0193437Y0012196D02*
X0196563Y0012196D01*
X0196563Y0014594D02*
X0193437Y0014594D01*
X0193437Y0016993D02*
X0196563Y0016993D01*
X0197459Y0019391D02*
X0192541Y0019391D01*
X0194390Y0021790D02*
X0199858Y0021790D01*
X0196789Y0024188D02*
X0259724Y0024188D01*
X0257151Y0026587D02*
X0199187Y0026587D01*
X0200491Y0028985D02*
X0255195Y0028985D01*
X0254064Y0031384D02*
X0200880Y0031384D01*
X0200880Y0033782D02*
X0253501Y0033782D01*
X0253501Y0036181D02*
X0200880Y0036181D01*
X0200880Y0038579D02*
X0254054Y0038579D01*
X0255173Y0040978D02*
X0200980Y0040978D01*
X0200980Y0043376D02*
X0257114Y0043376D01*
X0260782Y0045775D02*
X0200880Y0045775D01*
X0200880Y0048173D02*
X0269800Y0048173D01*
X0269800Y0045775D02*
X0269218Y0045775D01*
X0269800Y0050572D02*
X0200880Y0050572D01*
X0185606Y0045775D02*
X0172280Y0045775D01*
X0174679Y0043376D02*
X0185506Y0043376D01*
X0185506Y0040978D02*
X0174822Y0040978D01*
X0174822Y0038579D02*
X0185606Y0038579D01*
X0185606Y0036181D02*
X0174636Y0036181D01*
X0188157Y0066137D02*
X0188840Y0067785D01*
X0188840Y0076909D01*
X0188217Y0078413D01*
X0201875Y0078413D01*
X0204682Y0079576D01*
X0209013Y0083907D01*
X0236377Y0083907D01*
X0236377Y0078174D01*
X0241144Y0073407D01*
X0247885Y0073407D01*
X0252651Y0078174D01*
X0252651Y0083407D01*
X0255313Y0083407D01*
X0255313Y0068948D01*
X0252502Y0066137D01*
X0188157Y0066137D01*
X0188664Y0067361D02*
X0253726Y0067361D01*
X0255313Y0069760D02*
X0188840Y0069760D01*
X0188840Y0072158D02*
X0255313Y0072158D01*
X0255313Y0074557D02*
X0249034Y0074557D01*
X0251433Y0076955D02*
X0255313Y0076955D01*
X0255313Y0079354D02*
X0252651Y0079354D01*
X0252651Y0081752D02*
X0255313Y0081752D01*
X0254514Y0091544D02*
X0249550Y0096509D01*
X0249550Y0110812D01*
X0245862Y0114500D01*
X0239050Y0114500D01*
X0239050Y0114600D01*
X0243613Y0120837D02*
X0243376Y0121074D01*
X0240569Y0122237D01*
X0237337Y0122237D01*
X0237887Y0122787D01*
X0237887Y0129113D01*
X0236724Y0130276D01*
X0234576Y0132424D01*
X0234576Y0132424D01*
X0233413Y0133587D01*
X0207113Y0133587D01*
X0203226Y0137474D01*
X0200419Y0138637D01*
X0178837Y0138637D01*
X0178837Y0149725D01*
X0244727Y0149725D01*
X0244827Y0149625D01*
X0251236Y0149625D01*
X0255768Y0154157D01*
X0255768Y0160567D01*
X0251236Y0165099D01*
X0244827Y0165099D01*
X0244727Y0164999D01*
X0182805Y0164999D01*
X0182501Y0165304D01*
X0186322Y0165304D01*
X0186422Y0165404D01*
X0244930Y0165404D01*
X0245058Y0165356D01*
X0246445Y0165404D01*
X0247832Y0165404D01*
X0247958Y0165456D01*
X0248094Y0165460D01*
X0249357Y0166035D01*
X0250639Y0166566D01*
X0250735Y0166663D01*
X0250859Y0166719D01*
X0251545Y0167453D01*
X0255768Y0171677D01*
X0255768Y0178087D01*
X0251236Y0182619D01*
X0244827Y0182619D01*
X0242885Y0180678D01*
X0201270Y0180678D01*
X0205455Y0184863D01*
X0244727Y0184863D01*
X0244827Y0184763D01*
X0251236Y0184763D01*
X0255768Y0189295D01*
X0255768Y0195705D01*
X0254910Y0196563D01*
X0258495Y0196563D01*
X0259800Y0197868D01*
X0259800Y0162966D01*
X0260592Y0161054D01*
X0262054Y0159592D01*
X0262054Y0159592D01*
X0265147Y0156499D01*
X0263486Y0156499D01*
X0260561Y0155716D01*
X0257939Y0154202D01*
X0255798Y0152061D01*
X0254284Y0149439D01*
X0253501Y0146514D01*
X0253501Y0143486D01*
X0254284Y0140561D01*
X0255798Y0137939D01*
X0257939Y0135798D01*
X0260561Y0134284D01*
X0263486Y0133501D01*
X0266514Y0133501D01*
X0269439Y0134284D01*
X0269800Y0134493D01*
X0269800Y0101458D01*
X0269424Y0102364D01*
X0265919Y0105870D01*
X0263770Y0108019D01*
X0260963Y0109181D01*
X0258385Y0109181D01*
X0257885Y0109681D01*
X0255887Y0109681D01*
X0255887Y0112073D01*
X0254922Y0114402D01*
X0251234Y0118090D01*
X0249452Y0119872D01*
X0247123Y0120837D01*
X0243613Y0120837D01*
X0248833Y0120129D02*
X0269800Y0120129D01*
X0269800Y0122527D02*
X0237627Y0122527D01*
X0237887Y0124926D02*
X0269800Y0124926D01*
X0269800Y0127324D02*
X0237887Y0127324D01*
X0237278Y0129723D02*
X0269800Y0129723D01*
X0269800Y0132121D02*
X0234879Y0132121D01*
X0236724Y0130276D02*
X0236724Y0130276D01*
X0251594Y0117730D02*
X0269800Y0117730D01*
X0269800Y0115332D02*
X0253993Y0115332D01*
X0255531Y0112933D02*
X0269800Y0112933D01*
X0269800Y0110534D02*
X0255887Y0110534D01*
X0263487Y0108136D02*
X0269800Y0108136D01*
X0269800Y0105737D02*
X0266051Y0105737D01*
X0268450Y0103339D02*
X0269800Y0103339D01*
X0236377Y0081752D02*
X0206858Y0081752D01*
X0204146Y0079354D02*
X0236377Y0079354D01*
X0237596Y0076955D02*
X0188821Y0076955D01*
X0188840Y0074557D02*
X0239994Y0074557D01*
X0263335Y0055369D02*
X0269800Y0055369D01*
X0269800Y0057767D02*
X0265733Y0057767D01*
X0268132Y0060166D02*
X0269800Y0060166D01*
X0269800Y0052970D02*
X0260936Y0052970D01*
X0260154Y0134520D02*
X0206181Y0134520D01*
X0203782Y0136918D02*
X0256820Y0136918D01*
X0255003Y0139317D02*
X0178837Y0139317D01*
X0178837Y0141715D02*
X0253975Y0141715D01*
X0253501Y0144114D02*
X0178837Y0144114D01*
X0178837Y0146512D02*
X0253501Y0146512D01*
X0254143Y0148911D02*
X0178837Y0148911D01*
X0203082Y0182490D02*
X0244698Y0182490D01*
X0251365Y0182490D02*
X0259800Y0182490D01*
X0259800Y0184888D02*
X0251362Y0184888D01*
X0253760Y0187287D02*
X0259800Y0187287D01*
X0259800Y0189685D02*
X0255768Y0189685D01*
X0255768Y0192084D02*
X0259800Y0192084D01*
X0259800Y0194482D02*
X0255768Y0194482D01*
X0258813Y0196881D02*
X0259800Y0196881D01*
X0259800Y0180091D02*
X0253764Y0180091D01*
X0255768Y0177693D02*
X0259800Y0177693D01*
X0259800Y0175294D02*
X0255768Y0175294D01*
X0255768Y0172896D02*
X0259800Y0172896D01*
X0259800Y0170497D02*
X0254589Y0170497D01*
X0252190Y0168099D02*
X0259800Y0168099D01*
X0259800Y0165700D02*
X0248621Y0165700D01*
X0253034Y0163302D02*
X0259800Y0163302D01*
X0260743Y0160903D02*
X0255432Y0160903D01*
X0255768Y0158505D02*
X0263141Y0158505D01*
X0262019Y0156106D02*
X0255768Y0156106D01*
X0255319Y0153708D02*
X0257445Y0153708D01*
X0255364Y0151309D02*
X0252920Y0151309D01*
X0143193Y0083045D02*
X0142359Y0083390D01*
X0139141Y0083390D01*
X0136168Y0082158D01*
X0135750Y0081741D01*
X0135332Y0082158D01*
X0132359Y0083390D01*
X0129141Y0083390D01*
X0126168Y0082158D01*
X0123892Y0079882D01*
X0122660Y0076909D01*
X0122660Y0067785D01*
X0123343Y0066137D01*
X0118589Y0066137D01*
X0118387Y0066339D01*
X0118387Y0066692D01*
X0118840Y0067785D01*
X0118840Y0076909D01*
X0118387Y0078002D01*
X0118387Y0082166D01*
X0118984Y0082763D01*
X0126707Y0082763D01*
X0129513Y0083926D01*
X0135076Y0089488D01*
X0135912Y0090325D01*
X0143193Y0083045D01*
X0142086Y0084151D02*
X0129739Y0084151D01*
X0132137Y0086549D02*
X0139688Y0086549D01*
X0137289Y0088948D02*
X0134536Y0088948D01*
X0135738Y0081752D02*
X0135762Y0081752D01*
X0125762Y0081752D02*
X0118387Y0081752D01*
X0118387Y0079354D02*
X0123673Y0079354D01*
X0122679Y0076955D02*
X0118821Y0076955D01*
X0118840Y0074557D02*
X0122660Y0074557D01*
X0122660Y0072158D02*
X0118840Y0072158D01*
X0118840Y0069760D02*
X0122660Y0069760D01*
X0122836Y0067361D02*
X0118664Y0067361D01*
X0103113Y0083077D02*
X0102359Y0083390D01*
X0099141Y0083390D01*
X0096168Y0082158D01*
X0095750Y0081741D01*
X0095332Y0082158D01*
X0092359Y0083390D01*
X0089141Y0083390D01*
X0086168Y0082158D01*
X0085750Y0081741D01*
X0085332Y0082158D01*
X0082359Y0083390D01*
X0079141Y0083390D01*
X0076168Y0082158D01*
X0075750Y0081741D01*
X0075332Y0082158D01*
X0072359Y0083390D01*
X0069141Y0083390D01*
X0066168Y0082158D01*
X0065750Y0081741D01*
X0065332Y0082158D01*
X0062359Y0083390D01*
X0059141Y0083390D01*
X0056168Y0082158D01*
X0055750Y0081741D01*
X0055332Y0082158D01*
X0052359Y0083390D01*
X0049141Y0083390D01*
X0048213Y0083005D01*
X0047687Y0083531D01*
X0047687Y0097812D01*
X0049141Y0097210D01*
X0052359Y0097210D01*
X0055332Y0098442D01*
X0055750Y0098859D01*
X0056168Y0098442D01*
X0059141Y0097210D01*
X0062359Y0097210D01*
X0065332Y0098442D01*
X0065750Y0098859D01*
X0066168Y0098442D01*
X0069141Y0097210D01*
X0072359Y0097210D01*
X0075332Y0098442D01*
X0075750Y0098859D01*
X0076168Y0098442D01*
X0079141Y0097210D01*
X0082359Y0097210D01*
X0085332Y0098442D01*
X0085750Y0098859D01*
X0086168Y0098442D01*
X0089141Y0097210D01*
X0092359Y0097210D01*
X0095332Y0098442D01*
X0095750Y0098859D01*
X0096168Y0098442D01*
X0099141Y0097210D01*
X0102359Y0097210D01*
X0105332Y0098442D01*
X0107608Y0100718D01*
X0108840Y0103691D01*
X0108840Y0112815D01*
X0107608Y0115788D01*
X0105332Y0118064D01*
X0102359Y0119295D01*
X0099141Y0119295D01*
X0096168Y0118064D01*
X0095750Y0117646D01*
X0095332Y0118064D01*
X0092359Y0119295D01*
X0089141Y0119295D01*
X0086168Y0118064D01*
X0085750Y0117646D01*
X0085332Y0118064D01*
X0082359Y0119295D01*
X0079141Y0119295D01*
X0076168Y0118064D01*
X0075750Y0117646D01*
X0075332Y0118064D01*
X0072359Y0119295D01*
X0069141Y0119295D01*
X0067878Y0118772D01*
X0068813Y0119700D01*
X0068826Y0119706D01*
X0069891Y0120770D01*
X0070958Y0121830D01*
X0070964Y0121844D01*
X0070975Y0121855D01*
X0071550Y0123245D01*
X0072131Y0124633D01*
X0072131Y0124648D01*
X0072137Y0124662D01*
X0072137Y0126166D01*
X0072142Y0127671D01*
X0072138Y0127681D01*
X0072236Y0127779D01*
X0072236Y0134189D01*
X0072140Y0134285D01*
X0072148Y0141871D01*
X0072654Y0143093D01*
X0072654Y0152330D01*
X0072429Y0152875D01*
X0111363Y0152875D01*
X0111363Y0143281D01*
X0112526Y0140474D01*
X0114378Y0138621D01*
X0097804Y0138621D01*
X0097704Y0138721D01*
X0091294Y0138721D01*
X0086762Y0134189D01*
X0086762Y0127779D01*
X0091294Y0123247D01*
X0097704Y0123247D01*
X0097804Y0123347D01*
X0113486Y0123347D01*
X0118007Y0118826D01*
X0116168Y0118064D01*
X0113892Y0115788D01*
X0112660Y0112815D01*
X0112660Y0103691D01*
X0113892Y0100718D01*
X0116168Y0098442D01*
X0117145Y0098037D01*
X0114302Y0098037D01*
X0111495Y0096874D01*
X0109346Y0094726D01*
X0104276Y0089655D01*
X0103113Y0086848D01*
X0103113Y0083077D01*
X0103113Y0084151D02*
X0047687Y0084151D01*
X0047687Y0086549D02*
X0103113Y0086549D01*
X0103983Y0088948D02*
X0047687Y0088948D01*
X0047687Y0091346D02*
X0105967Y0091346D01*
X0108365Y0093745D02*
X0047687Y0093745D01*
X0047687Y0096143D02*
X0110764Y0096143D01*
X0113799Y0100940D02*
X0107700Y0100940D01*
X0108694Y0103339D02*
X0112806Y0103339D01*
X0112660Y0105737D02*
X0108840Y0105737D01*
X0108840Y0108136D02*
X0112660Y0108136D01*
X0112660Y0110534D02*
X0108840Y0110534D01*
X0108791Y0112933D02*
X0112709Y0112933D01*
X0113703Y0115332D02*
X0107797Y0115332D01*
X0105666Y0117730D02*
X0115834Y0117730D01*
X0116705Y0120129D02*
X0069249Y0120129D01*
X0071253Y0122527D02*
X0114306Y0122527D01*
X0095834Y0117730D02*
X0095666Y0117730D01*
X0089616Y0124926D02*
X0072137Y0124926D01*
X0072141Y0127324D02*
X0087217Y0127324D01*
X0086762Y0129723D02*
X0072236Y0129723D01*
X0072236Y0132121D02*
X0086762Y0132121D01*
X0087093Y0134520D02*
X0072140Y0134520D01*
X0072142Y0136918D02*
X0089491Y0136918D01*
X0072145Y0139317D02*
X0113683Y0139317D01*
X0112012Y0141715D02*
X0072148Y0141715D01*
X0072654Y0144114D02*
X0111363Y0144114D01*
X0111363Y0146512D02*
X0072654Y0146512D01*
X0072654Y0148911D02*
X0111363Y0148911D01*
X0111363Y0151309D02*
X0072654Y0151309D01*
X0056880Y0153537D02*
X0056380Y0152330D01*
X0056380Y0143093D01*
X0056874Y0141902D01*
X0056866Y0134293D01*
X0056762Y0134189D01*
X0056762Y0129260D01*
X0056181Y0128683D01*
X0056181Y0197557D01*
X0057939Y0195798D01*
X0060561Y0194284D01*
X0063486Y0193501D01*
X0066514Y0193501D01*
X0069439Y0194284D01*
X0072061Y0195798D01*
X0074165Y0197903D01*
X0075505Y0196563D01*
X0082495Y0196563D01*
X0084000Y0198068D01*
X0085505Y0196563D01*
X0092495Y0196563D01*
X0094000Y0198068D01*
X0095505Y0196563D01*
X0102495Y0196563D01*
X0107437Y0201505D01*
X0107437Y0208495D01*
X0106207Y0209724D01*
X0111793Y0209724D01*
X0110563Y0208495D01*
X0110563Y0201505D01*
X0111363Y0200705D01*
X0111363Y0168149D01*
X0072429Y0168149D01*
X0072654Y0168693D01*
X0072654Y0177930D01*
X0071416Y0180921D01*
X0069127Y0183210D01*
X0066136Y0184449D01*
X0062899Y0184449D01*
X0059908Y0183210D01*
X0057619Y0180921D01*
X0056380Y0177930D01*
X0056380Y0168693D01*
X0056880Y0167486D01*
X0056880Y0153537D01*
X0056880Y0153708D02*
X0056181Y0153708D01*
X0056181Y0156106D02*
X0056880Y0156106D01*
X0056880Y0158505D02*
X0056181Y0158505D01*
X0056181Y0160903D02*
X0056880Y0160903D01*
X0056880Y0163302D02*
X0056181Y0163302D01*
X0056181Y0165700D02*
X0056880Y0165700D01*
X0056627Y0168099D02*
X0056181Y0168099D01*
X0056181Y0170497D02*
X0056380Y0170497D01*
X0056380Y0172896D02*
X0056181Y0172896D01*
X0056181Y0175294D02*
X0056380Y0175294D01*
X0056380Y0177693D02*
X0056181Y0177693D01*
X0056181Y0180091D02*
X0057275Y0180091D01*
X0056181Y0182490D02*
X0059188Y0182490D01*
X0056181Y0184888D02*
X0111363Y0184888D01*
X0111363Y0182490D02*
X0069847Y0182490D01*
X0071759Y0180091D02*
X0111363Y0180091D01*
X0111363Y0177693D02*
X0072654Y0177693D01*
X0072654Y0175294D02*
X0111363Y0175294D01*
X0111363Y0172896D02*
X0072654Y0172896D01*
X0072654Y0170497D02*
X0111363Y0170497D01*
X0111363Y0187287D02*
X0056181Y0187287D01*
X0056181Y0189685D02*
X0111363Y0189685D01*
X0111363Y0192084D02*
X0056181Y0192084D01*
X0056181Y0194482D02*
X0060219Y0194482D01*
X0056857Y0196881D02*
X0056181Y0196881D01*
X0069781Y0194482D02*
X0111363Y0194482D01*
X0111363Y0196881D02*
X0102813Y0196881D01*
X0105211Y0199279D02*
X0111363Y0199279D01*
X0110563Y0201678D02*
X0107437Y0201678D01*
X0107437Y0204076D02*
X0110563Y0204076D01*
X0110563Y0206475D02*
X0107437Y0206475D01*
X0107058Y0208873D02*
X0110942Y0208873D01*
X0095187Y0196881D02*
X0092813Y0196881D01*
X0085187Y0196881D02*
X0082813Y0196881D01*
X0075187Y0196881D02*
X0073143Y0196881D01*
X0056380Y0151309D02*
X0056181Y0151309D01*
X0056181Y0148911D02*
X0056380Y0148911D01*
X0056380Y0146512D02*
X0056181Y0146512D01*
X0056181Y0144114D02*
X0056380Y0144114D01*
X0056181Y0141715D02*
X0056874Y0141715D01*
X0056871Y0139317D02*
X0056181Y0139317D01*
X0056181Y0136918D02*
X0056868Y0136918D01*
X0056866Y0134520D02*
X0056181Y0134520D01*
X0056181Y0132121D02*
X0056762Y0132121D01*
X0056762Y0129723D02*
X0056181Y0129723D01*
X0039042Y0124926D02*
X0010200Y0124926D01*
X0010200Y0122527D02*
X0036644Y0122527D01*
X0034245Y0120129D02*
X0010200Y0120129D01*
X0010200Y0117730D02*
X0032860Y0117730D01*
X0032413Y0115332D02*
X0010200Y0115332D01*
X0010200Y0112933D02*
X0032413Y0112933D01*
X0032413Y0110534D02*
X0010200Y0110534D01*
X0010200Y0108136D02*
X0032413Y0108136D01*
X0032413Y0105737D02*
X0010200Y0105737D01*
X0010200Y0103339D02*
X0032413Y0103339D01*
X0032413Y0100940D02*
X0010200Y0100940D01*
X0010200Y0098542D02*
X0032413Y0098542D01*
X0032413Y0096143D02*
X0010200Y0096143D01*
X0010200Y0093745D02*
X0032413Y0093745D01*
X0032413Y0091346D02*
X0010200Y0091346D01*
X0010200Y0088948D02*
X0032413Y0088948D01*
X0032413Y0086549D02*
X0010200Y0086549D01*
X0010200Y0084151D02*
X0032413Y0084151D01*
X0032413Y0081752D02*
X0010200Y0081752D01*
X0010200Y0079354D02*
X0032413Y0079354D01*
X0033197Y0076955D02*
X0010200Y0076955D01*
X0010200Y0074557D02*
X0035061Y0074557D01*
X0037459Y0072158D02*
X0010200Y0072158D01*
X0010200Y0069760D02*
X0039858Y0069760D01*
X0042836Y0067361D02*
X0010200Y0067361D01*
X0010200Y0064963D02*
X0043829Y0064963D01*
X0046140Y0062564D02*
X0010200Y0062564D01*
X0022973Y0031384D02*
X0023263Y0031384D01*
X0055360Y0062564D02*
X0056140Y0062564D01*
X0065360Y0062564D02*
X0066140Y0062564D01*
X0075360Y0062564D02*
X0076140Y0062564D01*
X0085360Y0062564D02*
X0086140Y0062564D01*
X0095360Y0062564D02*
X0096140Y0062564D01*
X0098743Y0045775D02*
X0072598Y0045775D01*
X0072598Y0048173D02*
X0121545Y0048173D01*
X0096345Y0043376D02*
X0072598Y0043376D01*
X0073198Y0040978D02*
X0096201Y0040978D01*
X0096201Y0038579D02*
X0073198Y0038579D01*
X0075738Y0081752D02*
X0075762Y0081752D01*
X0085738Y0081752D02*
X0085762Y0081752D01*
X0095738Y0081752D02*
X0095762Y0081752D01*
X0096067Y0098542D02*
X0095433Y0098542D01*
X0086067Y0098542D02*
X0085433Y0098542D01*
X0076067Y0098542D02*
X0075433Y0098542D01*
X0066067Y0098542D02*
X0065433Y0098542D01*
X0056067Y0098542D02*
X0055433Y0098542D01*
X0055738Y0081752D02*
X0055762Y0081752D01*
X0065738Y0081752D02*
X0065762Y0081752D01*
X0105433Y0098542D02*
X0116067Y0098542D01*
X0085834Y0117730D02*
X0085666Y0117730D01*
X0075834Y0117730D02*
X0075666Y0117730D01*
D23*
X0064500Y0126180D02*
X0064499Y0130984D01*
X0064517Y0147712D01*
X0064517Y0160512D01*
X0108237Y0160512D01*
X0129000Y0154500D02*
X0129000Y0205000D01*
X0119000Y0205000D02*
X0119000Y0144800D01*
X0140750Y0123050D01*
X0140750Y0105300D01*
X0140750Y0096287D01*
X0150987Y0086050D01*
X0200356Y0086050D01*
X0205850Y0091544D01*
X0244514Y0091544D01*
X0244514Y0101544D02*
X0198144Y0101544D01*
X0192050Y0095450D01*
X0155708Y0095450D01*
X0150750Y0100408D01*
X0150750Y0105300D01*
X0150750Y0132750D01*
X0129000Y0154500D01*
X0139000Y0164400D02*
X0139000Y0205000D01*
X0149000Y0205000D02*
X0149000Y0174850D01*
X0163175Y0160675D01*
X0163350Y0160500D01*
X0171200Y0152650D01*
X0171200Y0131000D01*
X0198900Y0131000D01*
X0203950Y0125950D01*
X0230250Y0125950D01*
X0239050Y0114600D02*
X0197250Y0114600D01*
X0190200Y0121650D01*
X0160750Y0121650D01*
X0160750Y0142650D01*
X0139000Y0164400D01*
X0159033Y0177971D02*
X0159000Y0205000D01*
X0169000Y0205000D02*
X0168975Y0187183D01*
X0178179Y0196671D02*
X0185000Y0203492D01*
X0185000Y0205000D01*
X0202292Y0192500D02*
X0248031Y0192500D01*
X0248031Y0174882D02*
X0246313Y0173041D01*
X0183117Y0173041D01*
X0173175Y0163829D02*
X0179642Y0157362D01*
X0248031Y0157362D01*
X0202292Y0192500D02*
X0192321Y0182529D01*
X0130750Y0116884D02*
X0116649Y0130984D01*
X0094499Y0130984D01*
X0064500Y0126180D02*
X0058929Y0120650D01*
X0045567Y0120650D01*
X0040050Y0115133D01*
X0040050Y0080368D01*
X0045118Y0075300D01*
X0050750Y0075300D01*
X0060132Y0052400D02*
X0024971Y0052400D01*
X0020200Y0047629D01*
X0020200Y0039800D01*
X0030900Y0039800D02*
X0030900Y0032215D01*
X0034493Y0028622D01*
X0128398Y0028622D01*
X0135000Y0022020D01*
X0135000Y0015000D01*
X0155000Y0015000D02*
X0155000Y0021782D01*
X0159718Y0026500D01*
X0188300Y0026500D01*
X0193243Y0031443D01*
X0193243Y0042296D01*
X0193243Y0058500D01*
X0255665Y0058500D01*
X0262950Y0065785D01*
X0262950Y0098038D01*
X0259444Y0101544D01*
X0254514Y0101544D01*
X0193243Y0058500D02*
X0115425Y0058500D01*
X0110750Y0063175D01*
X0110750Y0075300D01*
X0110750Y0085329D01*
X0115821Y0090400D01*
X0125187Y0090400D01*
X0130750Y0095963D01*
X0130750Y0105300D01*
X0130750Y0116884D01*
X0160750Y0121650D02*
X0160750Y0105300D01*
X0166535Y0039800D02*
X0145748Y0039800D01*
X0125748Y0039800D02*
X0104488Y0039800D01*
X0064961Y0039800D02*
X0064961Y0047572D01*
X0060132Y0052400D01*
X0064517Y0160512D02*
X0064517Y0173312D01*
D24*
X0108237Y0160512D03*
X0163350Y0160500D03*
X0230250Y0125950D03*
M02*
